<svg width="379" height="294" viewBox="0 0 379 294" fill="none" xmlns="http://www.w3.org/2000/svg">
<path d="M109.208 168.865C111.034 167.911 112.858 166.957 114.684 166.004C114.64 165.571 114.594 165.138 114.55 164.703C108.154 165.325 101.757 165.947 93.2119 166.778C96.0811 165.13 97.1206 164.532 98.162 163.934C86.7694 164.36 74.9644 166.435 65.9553 156.515C87.5633 151.221 86.6594 153.094 89.3435 138.129C80.58 136.944 70.084 140.139 65.7077 127.95C65.1962 126.527 60.3378 126.62 57.4796 126.098C50.2177 124.773 42.9465 123.498 35.6791 122.203C35.7359 121.158 35.7946 120.114 35.8514 119.068C62.0703 111.557 88.2911 104.047 114.51 96.5355C114.492 96.242 114.472 95.9485 114.453 95.655C112.024 95.9247 109.595 96.1961 106.544 96.5355C107.648 94.6113 108.335 93.4116 110.35 89.9007C99.152 93.2374 89.943 96.2438 80.5928 98.7073C65.6858 102.635 50.7989 106.789 35.6846 109.717C25.3664 111.715 14.6742 111.786 3.96188 110.73C4.90973 110.185 5.85757 109.64 7.28943 108.818C5.34058 108.317 3.77121 107.912 0 106.942C27.6233 93.7271 55.5619 89.0734 83.1907 85.247C74.1595 82.0479 65.1302 78.8489 56.5079 75.7947C59.885 73.5531 64.7177 70.3467 69.5505 67.1403C69.4442 66.5056 69.3378 65.8709 69.2315 65.2363C65.1577 65.8049 61.084 66.3754 55.6957 67.1275C57.542 65.7022 58.5778 64.2292 59.4688 64.3136C70.788 65.3683 78.9428 57.7504 87.4734 52.8563C110.596 39.5959 137.178 38.0881 161.468 29.0448C168.295 26.5025 176.331 27.205 183.155 24.6553C196.454 19.6861 209.13 13.0641 222.371 7.91699C230.865 4.61519 239.907 2.72766 249.42 0C250.109 7.93716 249.779 14.3151 241.19 18.6827C234.146 22.2652 228.217 28.0451 221.811 32.8364C229.348 30.8278 237.531 28.8871 245.559 26.4383C253.028 24.16 260.263 21.1022 267.748 18.8808C270.484 18.0682 273.916 17.8646 276.552 18.7726C285.451 21.8378 290.392 14.9608 296.631 11.4242C301.482 8.67273 306.126 5.55803 311.303 2.32777C312.655 7.62349 313.588 11.2812 314.917 16.4962C320.404 13.4347 324.751 11.0097 328.016 9.18817C332.759 10.2411 336.996 11.1803 339.781 11.7984C343.358 15.2873 346.057 18.5378 349.347 20.9885C354.508 24.8314 361.088 36.749 358.597 40.0912C354.398 45.7244 349.289 50.679 345.211 55.2006C350.127 58.5483 355.634 62.2995 362.632 67.0669C366.484 64.3796 372.015 60.5183 377.794 56.4865C380.83 68.2427 378.302 73.0524 368.293 77.9482C355.436 84.2381 342.804 90.9903 330.075 97.5444C330.398 98.3221 330.722 99.1017 331.045 99.8795C332.605 99.7034 334.164 99.5273 335.724 99.3512C335.947 99.6924 336.173 100.034 336.397 100.375C333.714 101.901 331.03 103.427 328.35 104.955C324.443 107.182 320.373 107.993 320.61 114.978C320.727 118.45 313.366 122.968 308.605 125.582C304.252 127.97 298.858 128.486 293.897 129.724C288.648 131.034 283.416 132.512 278.09 133.376C273.351 134.145 268.177 133.22 263.742 134.693C245.81 140.642 227.997 146.991 210.347 153.73C205.41 155.616 201.445 160.02 196.52 161.981C193.748 163.085 189.925 161.229 186.585 161.284C179.14 161.403 171.594 161.205 164.279 162.351C146.062 165.206 127.954 168.739 109.802 172C109.602 170.954 109.404 169.909 109.208 168.865Z" fill="#1B64FA"/>
<path d="M111.003 236.131C92.302 242.914 88.3318 248.057 78 267.103C91.2046 275.402 135.66 292 207.846 292C280.031 292 326.62 277.446 340.892 270.169C327.234 247.352 323.256 242.209 304.554 235.434C285.853 228.658 264.814 220.005 257.571 206.914C255.38 202.609 251 192.5 251 186.5C251 180.5 247 179 245 179L247.293 176C251.527 172.962 255.195 158.401 256.5 151.5C265.707 149 265.5 126.5 266.5 119.5C267.3 113.9 260.167 115.5 256.5 117C256.333 114.667 256.314 108.8 257.571 104C261.641 64.5 249 57.5 247.293 57C245.585 56.5 229.5 49 228 48.5C226.5 48 196.5 47 195 47C193.5 47 177.5 52 170.5 54C163.5 56 157.987 80.5 157.987 90V117C155.325 116.167 149.5 115 147.5 117C145 119.5 150 142.5 151.5 147C153 151.5 155.5 148.5 159.5 151.5C159.5 161.1 165.343 171.833 168.265 176V180.494C166.51 181.163 163.1 183.8 163.5 189C163.9 194.2 159.991 203.574 157.987 207.611C150.744 220.702 129.705 229.355 111.003 236.131Z" fill="white"/>
<path fill-rule="evenodd" clip-rule="evenodd" d="M256.492 142.603C256.492 142.603 251.043 157.365 244.566 161.565C238.097 165.766 239.232 169.514 237.415 172.694C235.599 175.875 236.166 170.081 234.119 166.333C232.073 162.585 232.303 163.604 224.24 160.431C216.177 157.25 215.724 154.414 213.908 154.184C212.091 153.955 206.427 153.648 206.014 156.729C205.73 159.956 208.351 165.198 209.371 164.854C210.39 164.516 215.05 164.516 218.913 165.988C222.776 167.467 225.612 164.509 228.225 168.372C230.839 172.234 230.839 176.32 228.907 180.635C226.976 184.95 218.346 189.38 216.077 187.104C213.808 184.835 214.598 183.471 210.743 181.991C206.88 180.512 206.09 181.761 206.09 181.761C206.09 181.761 207.002 200.501 209.953 201.636C212.904 202.77 220.285 201.068 230.509 195.841C240.726 190.614 248.567 175.178 248.567 175.178C248.567 175.178 255.611 164.846 256.967 158.147C258.332 151.448 259.129 139.07 259.129 139.07L256.515 142.588L256.492 142.603Z" fill="#E3E3E4"/>
<path fill-rule="evenodd" clip-rule="evenodd" d="M160.942 142.58C160.942 142.58 166.391 157.342 172.868 161.542C179.337 165.742 178.202 169.49 180.019 172.671C181.835 175.852 181.268 170.057 183.314 166.309C185.361 162.561 185.131 163.581 193.194 160.408C201.257 157.227 201.709 154.391 203.526 154.161C205.342 153.931 208.293 153.931 208.638 157.112C208.975 160.293 209.09 165.175 208.071 164.83C207.051 164.493 202.391 164.493 198.529 165.964C194.666 167.444 191.83 164.485 189.216 168.348C186.603 172.211 186.603 176.296 188.534 180.611C190.465 184.926 199.096 189.357 201.364 187.08C203.633 184.812 202.844 183.447 206.699 181.968C210.562 180.489 211.351 181.738 211.351 181.738C211.351 181.738 213.336 201.137 210.363 202.187C207.381 203.413 193.884 200.961 186.94 195.818C177.75 188.866 168.882 175.154 168.882 175.154C168.882 175.154 161.838 164.822 160.482 158.124C159.118 151.425 158.328 139.047 158.328 139.047L160.942 142.565V142.58Z" fill="#E3E3E4"/>
<path fill-rule="evenodd" clip-rule="evenodd" d="M169.382 183.591C169.382 183.591 180.956 210.241 203.919 220.059C226.889 229.877 242.318 221.285 242.318 221.285L243.015 220.059C243.015 220.059 235.65 210.593 237.052 206.209C238.455 201.825 246.871 191.654 246.871 191.654L245.821 177.452C245.821 177.452 232.147 200.591 216.542 203.228C200.937 205.857 191.472 201.128 191.472 201.128C191.472 201.128 181.301 193.064 176.043 186.051C170.785 179.038 168.854 177.107 168.854 177.107L169.382 183.591Z" fill="#B7B7B9"/>
<path d="M156.311 116.28C154.548 115.958 149.229 113.414 147.696 116.081C146.163 118.748 146.915 121.722 148.149 131.893C149.383 142.071 151.237 147.482 153.552 149.376C155.867 151.269 157.982 151.583 157.982 151.583" stroke="#333333" stroke-width="4" stroke-miterlimit="100"/>
<path d="M257.573 116.811C259.336 116.489 264.655 113.944 266.188 116.612C267.721 119.279 266.97 122.253 265.736 132.424C264.502 142.602 262.647 148.013 260.332 149.906C258.018 151.799 255.902 152.114 255.902 152.114" stroke="#333333" stroke-width="4" stroke-miterlimit="100"/>
<path fill-rule="evenodd" clip-rule="evenodd" d="M199.29 107.666C199.29 107.666 198.271 104.746 196.562 103.19C194.86 101.634 192.814 101.826 192.814 101.826L193.833 103.381C193.833 103.381 188.215 99.4879 178.336 102.408C168.456 105.328 166.586 110.387 166.586 110.387C166.586 110.387 180.727 104.937 187.027 106.102C193.327 107.267 195.542 108.241 195.542 108.241L195.205 107.076L199.29 107.658V107.666Z" fill="#333333"/>
<path fill-rule="evenodd" clip-rule="evenodd" d="M198.617 120.841C198.617 120.841 197.766 113.69 187.373 113.859C176.98 114.027 171.699 120.504 171.699 120.504C171.699 120.504 177.662 116.074 185.495 115.905C193.328 115.736 195.206 119.139 195.206 119.139C195.206 119.139 188.393 121.355 189.243 121.692C190.094 122.029 198.609 120.841 198.609 120.841H198.617Z" fill="#333333"/>
<path fill-rule="evenodd" clip-rule="evenodd" d="M199.676 152.127C199.676 152.127 195.79 151.162 195.936 153.093C196.089 155.025 199.822 154.197 202.811 155.439C205.8 156.68 209.241 156.818 211.633 156.128C214.024 155.438 215.074 154.749 217.166 154.473C219.259 154.197 220.753 153.369 219.857 152.265C218.96 151.162 216.714 151.162 212.828 152.955C208.942 154.749 206.099 153.921 204.006 153.231C201.914 152.541 199.668 152.127 199.668 152.127H199.676Z" fill="#333333"/>
<path fill-rule="evenodd" clip-rule="evenodd" d="M190.321 171.435C190.321 171.435 186.458 172.57 186.121 171.205C185.784 169.841 189.187 168.822 192.705 169.504C196.223 170.186 201.465 172.899 209.183 172.547C216.894 172.37 222.121 168.592 225.409 168.707C228.705 168.822 229.724 170.071 228.927 170.638C228.13 171.205 225.179 170.753 225.179 170.753L222.566 170.638C222.566 170.638 216.365 174.831 208.126 175.007C199.886 175.183 190.321 171.435 190.321 171.435Z" fill="#333333"/>
<path fill-rule="evenodd" clip-rule="evenodd" d="M199.392 177.244C199.392 177.244 204.044 179.291 209.271 179.061C214.498 178.831 217.564 176.792 217.564 176.792C217.564 176.792 213.586 182.241 207.685 181.789C201.783 181.337 197.92 177.137 197.92 177.137L199.399 177.252L199.392 177.244Z" fill="#333333"/>
<path fill-rule="evenodd" clip-rule="evenodd" d="M185.586 121.539C187.426 121.539 188.913 119.991 188.913 118.082C188.913 116.174 187.426 114.626 185.586 114.626C183.747 114.626 182.26 116.174 182.26 118.082C182.26 119.991 183.747 121.539 185.586 121.539Z" fill="#333333"/>
<path fill-rule="evenodd" clip-rule="evenodd" d="M218.373 109.773C218.373 109.773 219.392 106.852 221.102 105.297C222.803 103.741 224.85 103.932 224.85 103.932L223.83 105.488C223.83 105.488 229.448 101.595 239.328 104.515C249.207 107.435 251.078 112.494 251.078 112.494C251.078 112.494 236.937 107.044 230.636 108.209C224.336 109.374 222.121 110.347 222.121 110.347L222.458 109.182L218.373 109.765V109.773Z" fill="#333333"/>
<path fill-rule="evenodd" clip-rule="evenodd" d="M219.051 120.841C219.051 120.841 219.902 113.69 230.295 113.859C240.688 114.027 245.969 120.504 245.969 120.504C245.969 120.504 240.006 116.074 232.172 115.905C224.339 115.736 222.462 119.139 222.462 119.139C222.462 119.139 229.275 121.355 228.424 121.692C227.574 122.029 219.058 120.841 219.058 120.841H219.051Z" fill="#333333"/>
<path fill-rule="evenodd" clip-rule="evenodd" d="M232.078 121.539C230.239 121.539 228.752 119.991 228.752 118.082C228.752 116.174 230.239 114.626 232.078 114.626C233.918 114.626 235.405 116.174 235.405 118.082C235.405 119.991 233.918 121.539 232.078 121.539Z" fill="#333333"/>
<path fill-rule="evenodd" clip-rule="evenodd" d="M156.715 122.152C156.715 122.152 156.032 109.206 154.898 99.2119C153.764 89.2174 152.629 76.7242 160.348 59.4637C168.066 42.2032 189.189 38.5702 206.45 37.8881C223.71 37.2059 243.921 40.839 254.146 57.4174C264.363 73.9957 262.776 94.8892 261.19 102.615C259.603 110.333 257.787 120.328 257.787 120.328L257.334 123.961C257.334 123.961 252.452 107.037 253.134 103.121C254.667 94.0921 255.288 73.5435 252.115 66.4998C248.934 59.4561 244.167 55.6008 230.769 55.3709C217.372 55.141 216.459 57.6396 202.15 55.6009C187.84 53.5544 184.207 53.5544 178.988 57.8695C173.76 62.1847 173.76 68.0863 173.76 68.0863C173.76 68.0863 171.492 65.3577 171.492 61.9547C171.492 58.5516 171.492 58.5517 171.492 58.5517C171.492 58.5517 162.409 65.8176 161.045 80.5795C159.681 95.3414 163.774 99.6565 162.861 104.424C161.949 109.191 159.911 117.599 158.999 124.413C158.086 131.227 158.086 131.227 158.086 131.227L156.952 126.459L156.722 122.144L156.715 122.152Z" fill="#333333"/>
<path d="M169.21 194.289L168.742 176.76" stroke="#333333" stroke-width="4" stroke-miterlimit="100"/>
<path d="M168.265 180.494C168.265 180.494 167.33 180.027 165.23 183.767C163.13 187.507 165.23 194.52 157.987 207.611C150.744 220.702 129.705 229.355 111.003 236.131C92.302 242.914 88.3318 248.057 78 267.103C91.2046 275.402 135.66 292 207.846 292C280.031 292 326.62 277.446 340.892 270.169C327.234 247.352 323.256 242.209 304.554 235.434C285.853 228.658 264.814 220.005 257.571 206.914C250.328 193.823 252.428 186.81 250.328 183.07C248.228 179.329 247.293 179.797 247.293 179.797" stroke="#333333" stroke-width="4" stroke-miterlimit="100"/>
<path d="M168.043 192.421C168.043 192.421 178.092 203.412 178.559 208.317C179.027 213.223 164.533 230.292 162.433 234.262C160.333 238.232 175.524 235.664 177.862 236.599C180.199 237.535 179.494 247.59 183.771 268.637C184.644 276.425 188.37 292 196.293 292M247.526 191.722C247.526 191.722 237.477 202.713 237.01 207.618C236.542 212.524 251.036 229.593 253.136 233.563C255.236 237.533 240.045 234.965 237.707 235.9C235.37 236.836 236.067 246.884 230.526 267.103C228.835 275.402 224.132 292 218.851 292" stroke="#333333" stroke-width="4" stroke-miterlimit="100"/>
<path d="M246.35 194.289L245.883 176.76" stroke="#333333" stroke-width="4" stroke-miterlimit="100"/>
<path d="M172.717 220.939C173.652 221.636 176.457 227.714 188.613 235.432C200.769 243.143 208.25 245.251 208.25 245.251C208.25 245.251 222.743 240.575 232.561 231.692C242.38 222.809 242.847 220.471 242.847 220.471" stroke="#333333" stroke-width="4" stroke-miterlimit="100"/>
<path fill-rule="evenodd" clip-rule="evenodd" d="M230.362 51.3709C230.362 51.3709 219.984 52.6355 213.668 48.8492C207.361 45.0629 206.234 42.9552 202.731 41.9742C199.228 40.9931 199.229 40.9931 199.229 40.9931C199.229 40.9931 204.977 40.15 209.468 43.6603C213.96 47.163 215.776 48.4277 222.513 49.8303C229.243 51.2329 230.369 51.3709 230.369 51.3709H230.362Z" fill="#B7B7B9"/>
<path fill-rule="evenodd" clip-rule="evenodd" d="M210.304 51.9304C210.304 51.9304 199.367 53.7546 192.63 49.8303C185.9 45.9061 182.949 44.6414 182.949 44.6414C182.949 44.6414 187.441 43.2388 192.208 46.044C196.975 48.8492 196.132 48.7113 201.321 50.2518C206.51 51.7924 209.737 50.6734 209.737 50.6734L205.529 48.0062L215.209 52.076L210.304 51.9381V51.9304Z" fill="#B7B7B9"/>
<path d="M158.299 111.927C158.529 137.136 156.483 161.892 165.795 173.021C175.337 184.38 183.508 202.315 202.815 203.457C222.344 204.821 230.805 198.176 240.003 184.893C249.369 171.779 253.63 168.2 255.163 157.983C256.696 147.766 256.643 133.963 256.643 126.474C256.643 118.978 257.095 108.984 257.095 108.984" stroke="#333333" stroke-width="4" stroke-miterlimit="100"/>
<path fill-rule="evenodd" clip-rule="evenodd" d="M212.918 113.062C212.918 113.062 219.226 107.589 234.095 106.187C248.964 104.784 255.556 105.627 255.556 105.627L261.864 109.413L260.882 113.905L255.272 119.377C255.272 119.377 253.172 136.07 244.473 138.876C235.774 141.681 223.012 141.121 219.785 137.895C216.559 134.668 214.88 125.976 213.615 121.201C212.351 116.434 208.564 117.131 208.564 117.131L212.91 113.062L216.696 116.426C216.696 116.426 216.275 128.099 220.659 134.415C223.641 138.707 235.651 138.01 240.824 136.96C246.787 135.733 248.19 133.365 249.769 128.015C251.961 120.473 250.505 111.099 249.524 110.532C248.543 109.973 241.951 106.186 230.447 109.268C218.942 112.356 219.509 112.632 218.107 114.035C216.145 115.859 216.704 115.438 216.704 115.438L212.918 113.054V113.062Z" fill="#333333"/>
<path fill-rule="evenodd" clip-rule="evenodd" d="M216.135 122.933C212.923 116.564 206.899 114.402 201.641 122.289L200.645 110.371C204.561 109.374 211.628 108.324 217.3 111.13L216.135 122.933Z" fill="#333333"/>
<path fill-rule="evenodd" clip-rule="evenodd" d="M204.924 111.659C204.924 111.659 198.616 106.187 183.747 104.784C168.878 103.381 162.286 104.224 162.286 104.224L155.979 108.011L156.96 112.502L162.57 117.975C162.57 117.975 164.67 134.668 173.369 137.473C182.069 140.278 194.83 139.719 198.057 136.492C201.284 133.265 202.962 124.574 204.227 119.799C205.491 115.031 209.278 115.729 209.278 115.729L204.932 111.659L201.146 115.024C201.146 115.024 201.567 126.697 197.183 133.012C194.201 137.305 182.191 136.607 177.018 135.557C171.055 134.331 169.652 131.962 168.073 126.612C165.881 119.071 167.337 109.697 168.318 109.13C169.299 108.57 175.891 104.784 187.395 107.865C198.9 110.954 198.333 111.23 199.735 112.632C201.697 114.457 201.138 114.035 201.138 114.035L204.924 111.651V111.659Z" fill="#333333"/>
</svg>
