<svg width="343" height="322" viewBox="0 0 343 322" fill="none" xmlns="http://www.w3.org/2000/svg">
<path d="M11.4756 197.329C6.65716 189.96 3.47907 185.103 0 179.783C13.3624 174.401 26.4191 169.143 40.9549 163.288C37.5013 161.77 36.0663 161.139 34.5551 160.475C42.8328 154.503 42.872 154.062 37.4028 150.535C39.5213 142.216 41.8181 134.696 43.0209 127.047C43.2319 125.71 38.8391 123.831 36.3182 122.019C40.0832 117.601 44.1027 112.885 48.1224 108.167C47.8597 107.852 47.5968 107.538 47.3322 107.223C45.2498 108.576 43.1656 109.926 41.0832 111.279C40.4862 110.916 39.8893 110.552 39.2942 110.19C42.0406 106.17 44.4111 101.906 47.6293 98.1955C51.3184 93.9409 55.4166 89.8493 59.9571 86.2816C65.5366 81.8981 64.0046 79.2619 56.5929 77.167C77.1602 66.8057 96.433 56.9276 115.925 47.3847C121.608 44.6022 127.895 42.7403 133.936 40.5187C141.22 37.8384 147.882 35.513 156.829 36.3511C163.503 36.9756 170.893 30.7871 178.161 28.0177C184.368 25.6519 190.948 24.0255 197.184 21.7071C201.728 20.0178 207.522 21.3346 210.438 15.2487C211.977 12.0373 219.01 10.6615 223.729 8.77301C236.062 3.83716 248.404 -1.08826 262.616 0.211105C273.073 1.16667 283.05 12.172 282.59 20.3937C257.458 25.9788 232.984 31.4184 208.706 36.8134C210.181 44.2945 213.335 46.0624 219.849 45.7117C232.378 45.037 244.984 45.4139 257.557 45.355C257.743 46.3288 257.931 47.3011 258.117 48.2748C236.665 52.9306 215.217 57.5834 193.767 62.2376C193.882 62.7715 193.996 63.3054 194.111 63.8377C198.553 63.1804 202.996 62.523 207.436 61.8656C196.779 68.3723 185.286 69.281 175.664 67.3222C168.713 71.6068 162.14 74.6732 157.092 79.0596C152.521 83.0314 149.612 88.4427 145.971 93.2188C146.669 93.759 147.366 94.2991 148.064 94.8376C159.083 90.8989 170.11 86.9753 181.119 83.0164C185.151 81.5666 189.237 80.192 193.142 78.5108C203.648 73.9883 213.743 68.5886 224.623 64.9296C234.138 61.7297 244.472 60.3232 254.52 58.4306C255.477 58.2503 257.732 60.0718 258.097 61.2624C259.545 65.9848 260.482 70.8264 261.821 76.5315C255.919 77.0485 249.898 77.5758 243.844 78.1059C244.583 80.6311 245.224 82.8224 246.398 86.8264C252.255 89.7025 259.843 88.5676 267.299 84.2842C268.765 83.4419 271.133 82.7729 272.669 83.1872C288.822 87.5466 304.484 81.4847 320.429 81.6865C331.775 81.8298 337.693 84.9169 343 95.5444C331.735 94.8259 321.188 94.1532 309.473 93.4059C310.904 101.432 308.586 104.095 299.635 103.134C293.314 102.456 286.421 105.325 279.863 106.864C272.421 108.609 265.065 110.636 257.059 112.7C258.883 115.288 260.24 117.215 261.599 119.141C258.914 120.081 256.254 121.082 253.537 121.947C250.647 122.867 247.704 123.659 243.961 124.744C245.892 125.568 246.956 126.021 248.844 126.828C242.895 128.088 237.579 129.213 232.255 130.341C234.067 134.66 235.475 138.01 237.584 143.036C245.744 140.804 254.73 138.206 263.815 135.898C273.729 133.381 283.734 131.133 293.696 128.764C302.708 126.621 305.546 133.162 311.023 138.037C289.795 141.93 269.394 145.671 249.606 149.301C249.052 147.786 248.3 145.729 246.937 142.002C229.099 151.521 212.212 160.86 194.931 169.615C186.314 173.981 177.002 177.321 167.963 181.049C158.225 185.064 148.439 188.989 138.791 192.907C137.62 191.355 136.204 189.478 133.597 186.022C118.864 193.159 103.681 199.4 89.953 207.499C77.6138 214.779 66.0027 216.241 52.6291 203.128C54.032 201.942 55.4551 200.74 56.9554 199.471C55.2976 196.7 53.648 193.944 51.8979 191.02C57.369 188.958 64.4561 188.141 66.8541 184.796C68.7766 182.114 65.0108 176.363 63.6383 171.512C46.0908 180.194 28.9528 188.678 11.4756 197.329ZM94.2336 172.891C87.0152 176.344 79.795 179.796 72.5766 183.248C73.0082 183.965 73.44 184.681 73.8698 185.398C84.6414 181.223 95.413 177.049 106.183 172.876C105.848 172.235 105.515 171.592 105.18 170.952C101.446 171.661 97.7133 172.371 93.9789 173.08C97.6397 170.823 101.418 168.692 104.934 166.273C109.337 163.246 114.696 160.51 112.652 154.112C116.068 151.926 119.923 149.457 123.779 146.987C92.6326 155.568 86.483 160.093 83.7658 175.055C87.1923 174.343 90.7279 173.607 94.2336 172.891ZM115.23 87.0975C95.215 97.7108 79.2378 112.014 63.9033 129.134C87.3451 119.495 98.5887 100.792 115.23 87.0975Z" fill="#1B64FA"/>
<path d="M127.501 103.136C129.101 85.5357 143.834 77.8024 151.001 76.1357L194 69.6357C203.5 71.8024 223.6 77.8357 228 84.6357C233.5 93.1357 230 121.636 232 128.636C236.4 126.636 238.5 127.802 239 128.636C239.167 130.302 238.9 137.136 236.5 151.136C234.1 165.136 229.833 163.969 228 161.636V170.136L222.5 209.636L232 216.136L299.5 255.636L305.5 260.636L319.5 296.636C300.167 304.136 245 319.136 179 319.136C113 319.136 56.8333 304.469 37 297.136C37.1667 296.302 38 293.236 40 287.636C45.6 262.436 57 253.136 62 251.636C84.8333 238.469 131.6 211.636 136 209.636C137 199.636 129 164.136 127.501 161.636C120.701 159.236 119 140.302 119 131.136L121 126.636L127.501 128.636C126.834 127.469 125.901 120.736 127.501 103.136Z" fill="white"/>
<path fill-rule="evenodd" clip-rule="evenodd" d="M139.373 210.482C139.373 210.482 152.149 225.427 179.592 230.049C207.043 234.672 219.542 224.888 220.903 217.274C222.265 209.667 222.265 200.421 222.265 200.421C222.265 200.421 206.505 215.097 183.399 214.828C160.302 214.559 137.742 199.606 137.742 199.606L139.373 210.474V210.482Z" fill="#B7B7B9"/>
<path fill-rule="evenodd" clip-rule="evenodd" d="M186.402 117.513C186.402 117.513 186.141 120.684 187.331 122.404C188.522 124.125 188.522 124.125 188.522 124.125L188.652 121.614L189.973 123.334C189.973 123.334 190.764 122.274 192.354 121.353C193.943 120.423 193.943 120.423 193.943 120.423L191.824 123.595C191.824 123.595 200.286 123.856 203.328 123.856C206.369 123.856 212.051 122.266 217.473 122.665C222.895 123.065 225.406 125.446 225.406 125.446C225.406 125.446 222.104 119.094 218.794 116.983C215.492 114.863 214.302 114.863 214.302 114.863L210.201 116.844L211.652 114.463L206.36 116.314V115.654C206.36 115.654 201.469 116.184 196.707 116.583C191.946 116.983 185.994 115.923 185.994 115.923L186.394 117.513H186.402Z" fill="#333333"/>
<path fill-rule="evenodd" clip-rule="evenodd" d="M180.319 177.063C180.319 177.063 176.088 176.933 173.047 176.134C170.006 175.343 168.285 176.925 164.845 176.533C161.404 176.134 159.822 174.552 159.292 175.473C158.762 176.403 159.953 178.775 163.393 178.914C166.834 179.044 170.796 177.593 171.987 177.724C173.177 177.854 175.028 178.384 177.409 178.914C179.789 179.444 180.45 179.175 180.45 179.175L180.319 177.055V177.063Z" fill="#333333"/>
<path fill-rule="evenodd" clip-rule="evenodd" d="M173.577 184.205C173.577 184.205 178.338 185.135 183.099 184.866C187.861 184.605 189.842 183.545 189.842 183.545C189.842 183.545 184.29 186.847 179.928 186.455C175.566 186.056 172.395 184.605 172.395 184.605L173.585 184.205H173.577Z" fill="#333333"/>
<path fill-rule="evenodd" clip-rule="evenodd" d="M180.058 177.063C180.058 177.063 184.29 176.933 187.331 176.134C190.372 175.343 192.092 176.925 195.533 176.533C198.973 176.134 200.555 174.552 201.085 175.473C201.615 176.403 200.425 178.775 196.984 178.914C193.543 179.044 189.581 177.593 188.391 177.724C187.2 177.854 185.35 178.384 182.969 178.914C180.588 179.444 179.928 179.175 179.928 179.175L180.058 177.055V177.063Z" fill="#333333"/>
<path fill-rule="evenodd" clip-rule="evenodd" d="M128.508 156.787C128.508 156.787 128.508 192.001 136.661 200.154C143.999 207.222 159.759 217.544 165.743 220.267C171.719 223.259 181.177 222.028 181.177 222.028V190.949C181.177 190.949 174.515 189.954 171.996 189.294C169.371 188.633 169.501 191.389 171.409 193.15C173.317 194.911 176.717 196.901 177.141 198.441C177.565 199.982 178.837 205.054 174.589 205.054C170.341 205.054 165.034 197.341 161.422 195.36C157.81 193.378 153.562 189.188 153.562 183.676C153.562 178.165 156.75 173.762 162.058 171.993C167.365 170.232 170.129 167.802 171.613 168.691C173.097 169.571 180.418 171.447 181.079 170.346L180.973 163.954C176.081 163.4 172.322 160.872 169.069 162.079C165.971 163.073 162.058 165.381 156.326 167.15C150.594 168.911 147.619 170.452 148.043 174.423C148.466 178.393 148.89 182.576 143.371 181.695C137.851 180.814 137.745 176.241 135.03 169.718C132.315 163.196 130.138 121.615 128.932 154.586L128.508 156.787Z" fill="#333333"/>
<path d="M207.688 71.1057C207.688 71.1057 214.463 73.0869 217.936 77.3835C221.409 81.6802 229.839 84.6561 231.486 97.383C233.141 110.11 230.989 132.099 231.323 137.219C231.657 142.339 232.318 152.098 230.329 164.328C228.347 176.557 228.347 176.557 228.347 176.557" stroke="#333333" stroke-width="4" stroke-miterlimit="100"/>
<path d="M152.764 74.953C152.764 74.953 145.712 77.0157 142.092 81.4918C138.48 85.9678 129.699 89.066 127.979 102.315C126.258 115.563 128.492 138.457 128.15 143.789C127.808 149.121 127.115 159.28 132.854 181.676" stroke="#333333" stroke-width="4" stroke-miterlimit="100"/>
<path fill-rule="evenodd" clip-rule="evenodd" d="M232.867 112.238C232.867 112.238 236.536 85.333 232.46 73.5111C227.975 61.6891 215.787 56.6669 215.787 56.6669L215.615 59.2514C215.615 59.2514 212.004 53.3974 204.601 48.7501C197.198 44.1029 194.792 43.5894 194.792 43.5894L198.926 48.0654C198.926 48.0654 193.765 44.4536 188.254 42.3828C182.75 40.32 180.166 41.1761 180.166 41.1761L183.606 43.7606C183.606 43.7606 177.41 42.8963 167.26 42.8963C157.109 42.8963 155.56 43.9318 155.56 43.9318L159.865 45.1384C159.865 45.1384 153.326 43.5893 143.347 50.9922C133.367 58.3952 124.44 69.8422 125.255 84.9253C126.478 100.824 123.624 108.977 126.07 108.977C126.07 108.977 126.829 94.7008 134.916 87.2978C143.004 79.8948 146.787 76.976 151.956 77.4897C157.117 78.0033 161.593 77.6611 171.573 79.7238C181.552 81.7865 192.053 78.8595 192.053 78.8595L190.333 74.3835L194.809 77.6529C194.809 77.6529 198.249 78.8596 203.41 76.4462C208.571 74.0329 218.379 80.5797 218.379 80.5797C218.379 80.5797 227.576 88.1784 229.207 92.2549C231.245 96.7391 228.391 113.045 232.875 112.23L232.867 112.238Z" fill="#333333"/>
<path fill-rule="evenodd" clip-rule="evenodd" d="M170.536 130.013C170.536 130.013 165.375 126.042 160.883 125.121C156.39 124.191 148.718 127.901 145.547 129.352C142.375 130.804 143.036 131.603 143.036 131.603C143.036 131.603 146.868 131.203 148.197 131.472C149.517 131.733 152.028 132.132 152.028 132.132L148.857 130.282C148.857 130.282 157.785 126.311 160.1 127.143C162.252 127.803 167.642 129.752 167.642 129.752L165.791 130.942L170.552 130.013H170.536Z" fill="#333333"/>
<path fill-rule="evenodd" clip-rule="evenodd" d="M176.086 114.873C176.086 114.873 176.347 118.044 175.157 119.764C173.966 121.485 173.966 121.485 173.966 121.485L173.836 118.974L172.515 120.694C172.515 120.694 171.724 119.634 170.135 118.713C168.545 117.783 168.545 117.783 168.545 117.783L170.664 120.955C170.664 120.955 162.202 121.216 159.16 121.216C156.119 121.216 150.437 119.626 145.015 120.025C139.593 120.425 137.082 122.806 137.082 122.806C137.082 122.806 140.384 116.454 143.694 114.343C146.996 112.223 148.186 112.223 148.186 112.223L152.288 114.204L150.836 111.823L156.128 113.674V113.014C156.128 113.014 161.019 113.544 165.781 113.943C170.542 114.343 176.494 113.283 176.494 113.283L176.094 114.873H176.086Z" fill="#333333"/>
<path fill-rule="evenodd" clip-rule="evenodd" d="M202.138 72.8597C202.138 72.8597 197.246 71.9303 191.824 65.9867C186.402 60.035 185.342 54.3522 181.641 50.2512C177.939 46.1503 174.107 44.4301 174.107 44.4301C174.107 44.4301 182.44 45.2209 188.253 55.8035C194.074 66.3862 196.316 67.9678 198.567 69.8186C200.817 71.6693 202.138 72.8597 202.138 72.8597Z" fill="#B7B7B9"/>
<path fill-rule="evenodd" clip-rule="evenodd" d="M204.65 66.6459C204.65 66.6459 203.329 57.3922 199.359 52.1008C195.388 46.8095 190.635 44.9587 190.635 44.9587C190.635 44.9587 196.717 49.3207 200.027 56.0633C203.329 62.8059 204.658 66.6459 204.658 66.6459H204.65Z" fill="#B7B7B9"/>
<path fill-rule="evenodd" clip-rule="evenodd" d="M188.653 74.5793C188.653 74.5793 180.451 67.9671 176.619 60.6946C172.787 53.4221 169.477 49.1905 166.835 47.3398C164.193 45.489 164.193 45.489 164.193 45.489C164.193 45.489 172.257 47.7394 175.966 55.0119C179.668 62.2845 179.937 63.3443 183.108 67.5757C186.28 71.8071 186.28 71.8071 186.28 71.8071L188.661 74.5874L188.653 74.5793Z" fill="#B7B7B9"/>
<path fill-rule="evenodd" clip-rule="evenodd" d="M176.488 76.2993C176.488 76.2993 172.786 74.5791 168.955 67.437C165.123 60.2949 165.514 57.6533 161.552 53.9518C157.581 50.2503 154.939 49.9812 154.939 49.9812C154.939 49.9812 162.872 50.5113 167.503 55.6641C172.134 60.8249 174.906 67.6979 176.896 70.0786C178.877 72.4593 182.057 74.7095 182.057 74.7095C182.057 74.7095 177.955 73.5191 175.444 69.948C172.933 66.377 167.242 58.7051 167.242 58.7051C167.242 58.7051 170.023 66.5076 172.134 70.3396C174.254 74.1715 176.496 76.2911 176.496 76.2911L176.488 76.2993Z" fill="#B7B7B9"/>
<path fill-rule="evenodd" clip-rule="evenodd" d="M159.692 71.6688C159.692 71.6688 153.08 63.3365 148.718 62.1461C144.357 60.9558 142.367 60.9558 142.367 60.9558C142.367 60.9558 148.319 62.1461 153.61 66.777C158.902 71.4079 158.502 71.6688 158.502 71.6688H159.692Z" fill="#B7B7B9"/>
<path fill-rule="evenodd" clip-rule="evenodd" d="M153.472 71.4063C153.472 71.4063 150.43 69.1562 148.311 68.8953C146.191 68.6344 143.818 69.1561 143.818 69.1561L149.64 70.216L153.472 71.4063Z" fill="#B7B7B9"/>
<path fill-rule="evenodd" clip-rule="evenodd" d="M157.777 132.587C155.584 132.587 153.807 130.81 153.807 128.617C153.807 126.424 155.788 126.301 158.103 126.301C160.256 126.301 161.74 126.424 161.74 128.617C161.74 130.81 159.962 132.587 157.769 132.587H157.777Z" fill="#333333"/>
<path fill-rule="evenodd" clip-rule="evenodd" d="M190.633 130.672C190.633 130.672 195.794 126.701 200.286 125.78C204.779 124.851 212.451 128.56 215.622 130.012C218.794 131.463 218.134 132.262 218.134 132.262C218.134 132.262 214.302 131.862 212.973 132.131C211.652 132.392 209.141 132.792 209.141 132.792L212.312 130.941C212.312 130.941 203.385 126.971 201.069 127.802C198.917 128.463 193.536 130.411 193.536 130.411L195.386 131.601L190.625 130.672H190.633Z" fill="#333333"/>
<path fill-rule="evenodd" clip-rule="evenodd" d="M203.392 133.25C205.585 133.25 207.363 131.472 207.363 129.279C207.363 127.086 205.381 126.964 203.066 126.964C200.914 126.964 199.43 127.086 199.43 129.279C199.43 131.472 201.207 133.25 203.4 133.25H203.392Z" fill="#333333"/>
<path fill-rule="evenodd" clip-rule="evenodd" d="M167.796 157.129C167.796 157.129 175.077 161.637 179.92 162.078C184.771 162.518 193.47 157.202 193.47 156.631C193.47 156.069 192.068 155.71 189.508 157.267C186.956 158.816 182.635 159.893 180.058 159.672C177.49 159.461 174.555 158.816 171.62 157.194C168.685 155.571 168.554 155.857 167.788 156.134C167.021 156.42 167.788 157.121 167.788 157.121L167.796 157.129Z" fill="#333333"/>
<path fill-rule="evenodd" clip-rule="evenodd" d="M163.613 124.322C163.613 124.322 156.12 125.423 149.067 127.184C142.015 128.945 141.795 129.605 141.795 129.605C141.795 129.605 153.258 124.094 159.65 123.653C166.042 123.213 167.363 123.873 167.363 123.873L163.613 124.314V124.322Z" fill="#333333"/>
<path fill-rule="evenodd" clip-rule="evenodd" d="M197.776 126.309C197.776 126.309 205.269 127.41 212.321 129.171C219.373 130.932 219.593 131.592 219.593 131.592C219.593 131.592 208.13 126.081 201.738 125.64C195.346 125.2 194.025 125.861 194.025 125.861L197.776 126.301V126.309Z" fill="#333333"/>
<path d="M231.644 128.544C232.443 128.226 237.767 125.674 239.308 128.34C240.849 131.006 240.091 133.99 238.851 144.19C237.612 154.389 235.761 159.819 233.438 161.719C231.114 163.618 231.791 164.091 230.861 164.792" stroke="#333333" stroke-width="4" stroke-miterlimit="100"/>
<path d="M115.463 223.526C115.463 223.526 128.508 244.724 170.357 253.424L180.687 270.814L191.286 253.424C229.337 246.632 243.482 228.785 247.542 225.972" stroke="#333333" stroke-width="4" stroke-miterlimit="100"/>
<path d="M135.706 208.893C135.706 208.893 101.26 230.213 86.5025 237.869C71.7373 245.524 60.8041 250.987 53.1483 258.643C49.4469 262.344 47.4086 266.429 38 296.905C55.1032 304.315 107.555 319.136 180.537 319.136C253.518 319.136 303.99 303.772 320.103 296.091C315.211 282.231 308.819 263.169 305.118 259.467C297.462 251.812 286.529 246.349 271.764 238.693C257.007 231.038 222.56 209.717 222.56 209.717" stroke="#333333" stroke-width="4" stroke-miterlimit="100"/>
<path fill-rule="evenodd" clip-rule="evenodd" d="M178.511 282.228C178.511 282.228 167.912 268.099 169.812 268.637C171.712 269.184 191.279 267.553 191.01 269.453C190.741 271.352 180.957 284.397 180.957 284.397L178.511 282.22V282.228Z" fill="#333333"/>
<path d="M127.553 127.729C126.754 127.411 121.43 124.859 119.889 127.525C118.348 130.191 119.107 133.175 120.346 143.374C121.585 153.574 123.436 159.004 125.759 160.904C128.083 162.803 127.406 163.276 128.336 163.977" stroke="#333333" stroke-width="4" stroke-miterlimit="100"/>
<path d="M136.115 196.077L138.398 222.966" stroke="#333333" stroke-width="4" stroke-miterlimit="100"/>
<path fill-rule="evenodd" clip-rule="evenodd" d="M231.725 156.787C231.725 156.787 231.725 192.001 223.572 200.154C216.235 207.222 200.475 217.544 194.49 220.267C188.514 223.259 179.057 222.028 179.057 222.028V190.949C179.057 190.949 185.718 189.954 188.237 189.294C190.862 188.633 190.732 191.389 188.824 193.15C186.916 194.911 183.516 196.901 183.092 198.441C182.668 199.982 181.397 205.054 185.644 205.054C189.892 205.054 195.2 197.341 198.811 195.36C202.423 193.378 206.671 189.188 206.671 183.676C206.671 178.165 203.483 173.762 198.176 171.993C192.868 170.232 190.104 167.802 188.62 168.691C187.136 169.571 179.815 171.447 179.154 170.346L179.26 163.954C184.152 163.4 187.911 160.872 191.164 162.079C194.262 163.073 198.176 165.381 203.907 167.15C209.639 168.911 212.615 170.452 212.191 174.423C211.767 178.393 211.343 182.576 216.862 181.695C222.382 180.814 222.488 176.241 225.203 169.718C227.918 163.196 230.095 121.615 231.301 154.586L231.725 156.787Z" fill="#333333"/>
<path d="M224.004 196.077L221.721 222.966" stroke="#333333" stroke-width="4" stroke-miterlimit="100"/>
</svg>
