<svg width="531" height="395" viewBox="0 0 531 395" fill="none" xmlns="http://www.w3.org/2000/svg">
<path d="M143.978 293.442C141.993 286.273 140.571 281.14 138.575 273.926C117.877 276.693 100.908 296.382 74.0882 300.845C87.0336 294.078 96.9738 288.884 106.912 283.688C106.284 282.529 105.655 281.372 105.027 280.214C83.9817 289.198 63.4895 299.239 45.3393 315.607C41.211 307.86 56.5498 300.519 52.7787 293.442C45.1291 297.927 19.5956 302.106 12.7983 306.09C6.20418 283.79 14.664 267.41 33.1411 262.14C59.0623 254.742 82.5457 242.395 105.749 229.26C107.79 228.105 109.483 226.342 111.339 224.862C110.867 224.01 110.393 223.158 109.922 222.309C100.432 226.677 90.9424 231.044 80.1476 236.012C81.1213 232.729 81.656 230.921 82.2608 228.883C68.1339 235.277 54.4202 241.483 39.1631 248.387C38.3342 241.776 37.9723 238.872 37.5333 235.38C33.4843 236.392 29.7927 237.257 26.1337 238.244C18.1455 240.396 13.6366 233.402 14.8368 229.318C17.7579 219.4 12.1889 215.461 6.31159 210.378C3.81077 208.214 2.46579 204.721 0 200.912C17.5734 189.38 34.8877 178.017 52.7787 166.28C51.5715 165.307 49.7758 163.864 47.4805 162.017C50.7986 159.894 53.9065 157.905 57.0144 155.918C56.433 154.808 55.8539 153.695 55.2725 152.585C38.2081 161.858 21.1437 171.134 4.0793 180.409C3.44184 179.983 2.80204 179.555 2.16457 179.129C6.34661 173.989 10.2625 168.6 14.7737 163.762C21.9726 156.041 32.1394 150.763 31.4062 137.413C31.2124 133.902 36.5642 128.403 40.6085 126.637C57.339 119.335 70.8869 105.357 76.631 91.2809C85.698 69.0582 104.406 66.2356 121.111 58.0586C139.455 49.0811 158.182 40.8808 176.615 32.0778C179.538 30.6816 181.486 27.226 184.421 25.8973C190.464 23.1654 196.754 20.8035 203.159 19.0885C209.427 17.4108 216.214 17.4806 222.328 15.4468C234.822 11.2931 246.782 5.38725 259.436 1.91771C265.85 0.158509 273.315 2.58555 280.271 2.29235C288.72 1.93633 297.119 0.349321 305.567 0.0119084C309.583 -0.148654 313.665 1.35458 317.716 2.10154C317.585 3.10447 317.457 4.10973 317.326 5.11266C312.665 7.75612 307.524 9.84342 303.547 13.2734C301.511 15.0303 300.719 19.2817 301.053 22.216C301.198 23.4796 305.646 24.1986 308.089 25.276C313.651 27.731 319.007 31.7008 324.772 32.4035C332.805 33.3832 341.367 32.9876 349.281 31.261C358.689 29.2086 367.553 24.8013 376.841 22.0508C381.364 20.7104 386.317 20.8198 393.651 19.9751C384.432 37.9325 402.321 47.1962 402.34 61.4118C402.34 61.8073 410.797 63.4246 414.727 62.3472C426.241 59.1918 426.124 58.7706 434.647 68.8791C431.726 71.1339 428.975 73.647 425.851 75.5528C422.928 77.3353 419.607 78.4709 416.756 81.0515C426.788 78.3662 436.819 75.6808 448.914 72.4417C446.712 77.1073 445.869 78.8944 444.735 81.3005C446.649 81.3005 447.978 81.6961 448.858 81.2377C455.046 78.0148 460.886 73.9402 467.359 71.5155C471.634 69.9122 480.629 69.4864 480.904 70.4405C482.838 77.0956 497.378 76.0764 491.022 88.0837C489.009 91.8836 492.836 98.7552 494.16 105.026C486.557 108.298 479.2 111.465 471.844 114.63C472.008 115.212 472.171 115.793 472.335 116.375C478.207 114.898 484.082 113.422 490.114 111.905C491.827 125.201 504.703 122.732 512.373 127.659C505.548 137.311 511.411 143.615 531 147.499C507.316 170.45 474.6 174.668 444.354 190.929C446.255 186.615 446.972 184.989 449.015 180.353C426.598 190.506 406.351 199.677 384.096 209.759C388.147 210.632 390.074 211.044 395.904 212.298C384.808 220.084 376.547 227.889 366.754 232.352C343.109 243.128 318.764 252.378 294.669 262.161C289.987 264.062 285.266 268.395 280.26 262.233C279.625 261.451 276.568 261.993 274.985 262.701C261.416 268.781 246.995 273.679 234.892 281.938C230.285 285.082 227.971 292.735 221.062 295.893C210.543 300.703 200.659 306.874 190.41 312.291C186.074 314.583 181.497 316.426 175.842 316.421C188.675 309.515 201.508 302.608 214.344 295.702C187.347 301.436 164.559 314.986 143.369 333.211C139.296 325.625 135.131 318.872 132.153 311.635C131.373 309.741 133.909 306.066 135.598 303.684C138.428 299.677 141.809 296.046 143.978 293.442ZM126.619 246.959C125.959 245.932 125.3 244.909 124.639 243.882C102.912 248.818 84.5444 260.136 85.5695 269.121C99.5097 261.595 113.065 254.277 126.619 246.959Z" fill="url(#paint0_linear)"/>
<path d="M14.4104 327.947C15.7234 328.556 17.1654 329.854 18.3264 329.639C21.4674 329.06 24.5684 328.03 27.5324 326.81C30.0364 325.778 32.2544 323.63 34.7894 326.813C35.1374 327.25 36.6494 326.653 37.6034 326.741C40.6584 327.022 43.6994 327.579 46.7564 327.669C48.4424 327.719 50.1444 327.015 51.8484 326.707C54.3284 326.257 56.8174 325.856 59.6264 325.379C58.1504 324.625 56.8004 323.936 55.0734 323.055C57.5944 315.15 65.9594 317.536 71.9754 313.258C71.6374 316.776 71.3904 319.343 71.0614 322.767C76.0124 321.28 80.9024 319.811 87.2004 317.92C85.7104 319.824 85.3264 320.779 84.6354 321.123C79.6284 323.625 74.6174 326.136 69.4804 328.349C67.7324 329.102 65.6274 329.133 63.6694 329.273C59.9124 329.54 59.8034 329.567 59.2904 333.382C63.4604 332.949 67.5644 332.522 73.2954 331.928C71.0444 333.291 69.8934 334.305 68.5524 334.75C58.2204 338.178 47.7344 341.179 37.5274 344.938C27.4444 348.651 17.5564 352.933 7.79043 357.416C6.52343 357.998 6.49743 361.271 5.89643 363.297C6.33943 363.476 6.78243 363.656 7.22543 363.834C5.91643 364.512 4.60743 365.189 3.03943 366C0.693428 362.872 -1.50957 359.892 1.36543 355.735C1.97043 354.86 1.80843 353.159 1.47343 351.989C0.534427 348.709 0.334427 345.728 0.989427 342.144C1.78643 337.781 2.90343 334.699 7.91143 333.337C6.89443 332.196 6.24343 331.465 4.49443 329.501C8.41043 328.943 11.4674 328.506 14.5234 328.07L14.4104 327.947Z" fill="url(#paint1_linear)"/>
<path fill-rule="evenodd" clip-rule="evenodd" d="M108.021 354.327C108.021 354.327 112.243 331.881 130.535 324.514C148.826 317.148 169.239 310.129 178.739 304.868C188.238 299.606 220.251 274.35 220.251 274.35L239.598 259.618L238.542 235.067C238.542 235.067 234.32 232.257 232.917 217.177C231.513 202.098 231.513 198.941 231.513 198.941C231.513 198.941 222.721 201.75 218.847 185.26C214.973 168.77 214.973 150.186 214.973 150.186C214.973 150.186 214.266 143.872 220.251 144.577C226.235 145.282 228.346 146.335 228.346 146.335C228.346 146.335 219.554 101.432 232.917 82.143C246.289 62.8539 298.357 49.1737 323.688 57.9395C349.02 66.7054 368.726 85.6472 369.781 102.484C370.837 119.322 368.018 144.925 368.018 144.925C368.018 144.925 378.225 141.768 377.518 152.638C376.811 163.509 372.589 188.417 372.589 188.417C372.589 188.417 371.881 194.731 367.66 197.541C363.438 200.351 360.619 201.403 360.619 201.403C360.619 201.403 361.675 219.64 356.746 227.711C351.817 235.782 351.817 242.096 351.817 242.096L351.468 261.038L397.561 296.112C397.561 296.112 421.489 311.192 437.321 315.759C453.154 320.316 466.527 326.282 473.208 335.753C479.889 345.224 482 354.695 482 354.695C482 354.695 443.654 392.579 294.472 392.579C145.301 392.579 108 354.348 108 354.348L108.021 354.327Z" fill="white"/>
<path fill-rule="evenodd" clip-rule="evenodd" d="M241.361 245.232C241.361 245.232 258.597 282.064 281.817 291.187C305.038 300.311 333.188 291.892 345.853 278.56C349.368 274.35 349.368 271.898 350.075 270.846L351.479 231.91C351.479 231.91 326.855 258.218 298.357 258.565C269.859 258.913 237.139 230.858 237.139 230.858L241.361 245.243V245.232Z" fill="#B7B7B9"/>
<path d="M225.803 146.693C225.803 146.693 239.397 141.231 261.499 142.926C283.601 144.62 292.098 151.586 292.098 151.586" stroke="#333333" stroke-width="4" stroke-miterlimit="100"/>
<path d="M231.703 146.746C231.703 146.746 230.119 176.947 241.255 182.209C252.401 187.471 271.03 185.124 277.078 179.831C283.126 174.538 286.144 163.499 287.685 158.921C289.226 154.343 291.105 153.901 291.105 153.901" stroke="#333333" stroke-width="4" stroke-miterlimit="100"/>
<path d="M366.699 146.693C366.699 146.693 353.105 141.231 331.003 142.926C308.901 144.62 300.404 151.586 300.404 151.586" stroke="#333333" stroke-width="4" stroke-miterlimit="100"/>
<path d="M360.799 146.746C360.799 146.746 362.382 176.947 351.247 182.209C340.101 187.471 321.472 185.124 315.424 179.831C309.376 174.538 306.357 163.499 304.816 158.921C303.275 154.343 301.396 153.901 301.396 153.901" stroke="#333333" stroke-width="4" stroke-miterlimit="100"/>
<path fill-rule="evenodd" clip-rule="evenodd" d="M290.113 149.797L289.828 155.638C289.828 155.638 293.512 154.975 297.945 155.259C302.388 155.543 303.138 156.017 303.138 156.017L302.758 149.808C302.758 149.808 298.789 148.682 294.821 148.871C290.852 149.061 290.103 149.808 290.103 149.808L290.113 149.797Z" fill="#333333"/>
<path fill-rule="evenodd" clip-rule="evenodd" d="M286.514 196.068C286.514 196.068 282.176 194.9 282.345 197.236C282.514 199.562 286.683 198.562 290.018 200.067C293.353 201.561 297.185 201.729 299.855 200.898C302.526 200.067 303.687 199.235 306.03 198.899C308.362 198.562 310.03 197.573 309.027 196.236C308.025 194.91 305.523 194.91 301.185 197.068C296.847 199.225 293.681 198.236 291.348 197.404C289.015 196.573 286.514 196.078 286.514 196.078V196.068Z" fill="#333333"/>
<path fill-rule="evenodd" clip-rule="evenodd" d="M227.185 157.416C227.185 157.416 229.169 187.481 228.768 204.897C228.367 222.302 230.753 229.826 245.835 248.021C260.918 266.216 266.871 273.34 275.991 276.507C285.12 279.675 297.026 279.675 297.026 279.675V231.016L285.912 232.594C285.912 232.594 294.641 240.507 290.672 243.275C286.704 246.043 276.782 247.632 267.262 234.962C257.741 222.302 260.517 215.578 254.955 212.011C249.403 208.454 236.705 203.308 233.919 193.816C231.143 184.324 231.143 145.946 231.143 145.946C231.143 145.946 226.383 143.567 226.383 148.713C226.383 153.859 227.174 157.416 227.174 157.416H227.185Z" fill="#333333"/>
<path fill-rule="evenodd" clip-rule="evenodd" d="M298.218 210.043C298.218 210.043 295.833 202.718 294.049 202.129C292.265 201.54 290.481 200.551 287.304 202.129C284.127 203.708 275.99 206.286 272.422 207.275C268.855 208.264 267.06 212.421 266.67 216.967C266.269 221.513 264.094 224.88 265.678 224.88C267.261 224.88 272.032 217.756 282.344 214.989C292.666 212.221 295.632 213.41 296.825 213.41C298.018 213.41 298.218 210.043 298.218 210.043Z" fill="#333333"/>
<path fill-rule="evenodd" clip-rule="evenodd" d="M365.285 157.416C365.285 157.416 363.3 187.481 363.701 204.897C364.103 222.302 361.717 229.826 346.634 248.021C331.551 266.216 325.599 273.34 316.479 276.507C307.349 279.675 295.443 279.675 295.443 279.675V231.016L306.558 232.594C306.558 232.594 297.829 240.507 301.797 243.275C305.766 246.043 315.688 247.632 325.208 234.962C334.728 222.302 331.953 215.578 337.515 212.011C343.067 208.454 355.764 203.308 358.551 193.816C361.327 184.324 361.327 145.946 361.327 145.946C361.327 145.946 366.087 143.567 366.087 148.713C366.087 153.859 365.295 157.416 365.295 157.416H365.285Z" fill="#333333"/>
<path fill-rule="evenodd" clip-rule="evenodd" d="M294.25 210.043C294.25 210.043 296.635 202.718 298.419 202.129C300.203 201.54 301.987 200.551 305.164 202.129C308.341 203.708 316.478 206.286 320.046 207.275C323.614 208.264 325.408 212.421 325.798 216.967C326.199 221.513 328.374 224.88 326.791 224.88C325.207 224.88 320.437 217.756 310.124 214.989C299.802 212.221 296.836 213.41 295.643 213.41C294.451 213.41 294.25 210.043 294.25 210.043Z" fill="#333333"/>
<path fill-rule="evenodd" clip-rule="evenodd" d="M278.291 222.618C278.291 222.618 290.514 220.082 294.166 221.355C297.818 222.618 298.134 220.724 303.528 221.198C308.922 221.671 316.384 223.892 316.384 224.839C316.384 225.786 316.067 226.575 313.523 226.101C310.98 225.628 304.161 223.565 300.193 224.039C296.224 224.512 294.799 224.67 292.889 224.039C290.989 223.407 285.901 224.039 282.893 224.67C279.875 225.302 277.183 226.407 276.539 225.302C275.906 224.197 276.539 223.407 276.539 223.407L278.281 222.618H278.291Z" fill="#333333"/>
<path d="M363.162 147.135C365.811 146.609 373.749 142.652 376.124 146.609C378.509 150.566 377.443 155.048 375.86 170.349C374.276 185.65 371.627 193.827 368.186 196.721C364.745 199.625 361.568 200.151 361.568 200.151" stroke="#333333" stroke-width="4" stroke-miterlimit="100"/>
<path d="M229.295 147.135C226.646 146.609 218.709 142.652 216.334 146.609C213.949 150.566 215.015 155.048 216.598 170.349C218.181 185.65 220.83 193.827 224.271 196.721C227.712 199.625 230.889 200.151 230.889 200.151" stroke="#333333" stroke-width="4" stroke-miterlimit="100"/>
<path fill-rule="evenodd" clip-rule="evenodd" d="M225.6 143.441C225.6 143.441 219.521 100.18 227.183 85.1527C234.857 70.115 265.54 48.2266 296.761 46.1114C327.982 43.9962 366.338 72.4827 371.89 90.1617C377.442 107.83 370.043 145.556 370.043 145.556L363.425 147.398C363.425 147.398 366.602 119.7 365.008 108.63C363.425 97.549 358.391 96.4967 354.686 89.8987C350.981 83.3006 339.603 70.378 325.586 71.4304C311.569 72.4827 306.271 80.3962 291.198 77.7654C276.116 75.124 272.147 68.7995 258.394 74.3348C244.641 79.87 236.44 88.3096 236.704 98.8645C236.968 109.419 231.68 116.007 230.624 128.403C229.569 140.8 231.152 147.924 231.152 147.924L226.919 146.345L225.6 143.441Z" fill="#333333"/>
<path fill-rule="evenodd" clip-rule="evenodd" d="M242.656 143.178C242.656 143.178 249.01 138.632 256.145 137.443C263.291 136.254 273.213 141.2 273.213 141.2L274.405 144.956L274.996 141.589L282.532 147.324L282.733 152.47C282.733 152.47 281.941 154.049 269.835 148.513C257.729 142.978 250.594 144.956 250.594 144.956L247.818 143.567L248.409 145.346L240.07 144.757L242.646 143.178H242.656Z" fill="#333333"/>
<path fill-rule="evenodd" clip-rule="evenodd" d="M325.998 163.351C328.848 163.351 331.149 160.962 331.149 158.016C331.149 155.069 328.848 152.68 325.998 152.68C323.149 152.68 320.848 155.069 320.848 158.016C320.848 160.962 323.149 163.351 325.998 163.351Z" fill="#333333"/>
<path fill-rule="evenodd" clip-rule="evenodd" d="M350.602 143.967C350.602 143.967 344.248 139.421 337.113 138.232C329.967 137.043 320.046 141.989 320.046 141.989L318.853 145.746L318.262 142.378L310.726 148.114L310.525 153.259C310.525 153.259 311.317 154.838 323.423 149.303C335.53 143.767 342.665 145.746 342.665 145.746L345.441 144.357L344.85 146.135L353.188 145.546L350.613 143.967H350.602Z" fill="#333333"/>
<path d="M238.299 236.288L240.684 279.012" stroke="#333333" stroke-width="4" stroke-miterlimit="100"/>
<path d="M351.784 237.34L349.398 280.064" stroke="#333333" stroke-width="4" stroke-miterlimit="100"/>
<path d="M239.882 259.491C239.882 259.491 195.436 295.891 174.009 306.972C152.583 318.053 131.157 320.421 120.043 331.502C108.928 342.583 108.137 356.032 108.137 356.032C125.69 368.354 191.404 393 294.842 393C398.279 393 461.094 368.354 481.947 356.032C481.947 356.032 481.155 342.583 470.041 331.502C458.927 320.421 437.501 318.053 416.074 306.972C394.648 295.891 350.202 259.491 350.202 259.491" stroke="#333333" stroke-width="4" stroke-miterlimit="100"/>
<path fill-rule="evenodd" clip-rule="evenodd" d="M311.928 158.331C311.928 158.331 316.646 152.238 327.581 151.681C338.505 151.133 343.044 158.542 343.044 158.542L336.046 161.941C336.046 161.941 338.537 158.321 334.727 155.985C330.917 153.648 325.565 153.522 320.203 155.553C314.831 157.584 313.617 159.983 312.097 160.183C310.577 160.383 311.928 158.331 311.928 158.331Z" fill="#333333"/>
<path fill-rule="evenodd" clip-rule="evenodd" d="M264.885 163.351C262.035 163.351 259.734 160.962 259.734 158.016C259.734 155.069 262.035 152.68 264.885 152.68C267.735 152.68 270.036 155.069 270.036 158.016C270.036 160.962 267.735 163.351 264.885 163.351Z" fill="#333333"/>
<path fill-rule="evenodd" clip-rule="evenodd" d="M278.946 158.331C278.946 158.331 274.228 152.238 263.293 151.681C252.369 151.133 247.83 158.542 247.83 158.542L254.828 161.941C254.828 161.941 252.337 158.321 256.147 155.985C259.958 153.648 265.309 153.522 270.671 155.553C276.043 157.584 277.257 159.983 278.777 160.183C280.297 160.383 278.946 158.331 278.946 158.331Z" fill="#333333"/>
<path d="M220.303 276.645C220.303 276.645 241.201 312.518 290.936 314.36C340.67 316.201 370.297 277.171 370.297 277.171" stroke="#333333" stroke-width="4" stroke-miterlimit="100"/>
<path fill-rule="evenodd" clip-rule="evenodd" d="M291.473 72.3568C291.473 72.3568 285.521 67.2109 285.922 60.0867C286.323 52.9624 288.698 51.7733 288.698 51.7733C288.698 51.7733 281.552 55.73 281.161 60.476C280.76 65.222 284.729 68.3895 284.729 68.3895L276.391 61.6652C276.391 61.6652 276.391 67.6003 283.135 71.557C289.88 75.5138 291.473 72.3463 291.473 72.3463V72.3568Z" fill="#B7B7B9"/>
<path fill-rule="evenodd" clip-rule="evenodd" d="M286.703 52.1833C286.703 52.1833 263.683 56.9293 251.777 66.8212C239.871 76.713 239.871 76.713 239.871 76.713C239.871 76.713 259.313 65.6321 269.235 61.286C279.156 56.9293 285.109 56.54 285.109 56.54L286.692 52.1833H286.703Z" fill="#B7B7B9"/>
<defs>
<linearGradient id="paint0_linear" x1="472" y1="26.9362" x2="0.65247" y2="330.234" gradientUnits="userSpaceOnUse">
<stop stop-color="#3F7DFC"/>
<stop offset="1" stop-color="#104ECF"/>
</linearGradient>
<linearGradient id="paint1_linear" x1="472" y1="26.9362" x2="0.65247" y2="330.234" gradientUnits="userSpaceOnUse">
<stop stop-color="#3F7DFC"/>
<stop offset="1" stop-color="#104ECF"/>
</linearGradient>
</defs>
</svg>
