<svg width="373" height="323" viewBox="0 0 373 323" fill="none" xmlns="http://www.w3.org/2000/svg">
<path d="M37.6809 146.332C29.727 149.676 21.7747 153.019 13.8209 156.363C13.5266 155.881 13.2323 155.399 12.938 154.917C21.6276 149.235 30.3172 143.556 39.0067 137.874C38.9482 137.682 38.8881 137.49 38.828 137.297C31.7076 140.27 24.5887 143.242 17.4697 146.214C17.1439 145.486 16.8196 144.757 16.4937 144.029C17.4697 142.829 18.4458 141.628 19.4218 140.428C19.2056 140.135 18.9893 139.842 18.7731 139.548C14.1663 142.207 9.55798 144.864 4.95117 147.523C15.6228 140.266 24.5136 132.107 23.452 120.537C26.6053 115.971 28.1774 111.819 31.1806 109.842C34.6101 107.586 39.4572 107.625 43.4319 106.026C50.8481 103.044 58.0151 99.4407 65.4358 96.4753C67.038 95.8354 69.2799 96.7983 73.1494 97.2445C88.9834 90.1661 106.872 82.1684 125.985 73.6225C122.012 73.0051 119.224 72.5724 114.968 71.91C120.395 69.1324 124.518 67.0218 128.641 64.9127C110.987 68.497 94.0843 73.5654 80.399 86.0591C77.9124 88.3289 74.5729 90.0595 71.3265 91.0028C66.7362 92.3383 65.104 89.1882 65.149 85.1473C65.3412 68.2221 74.1705 59.3907 89.6501 57.552C91.6172 57.3177 93.5872 57.0728 95.5348 56.7198C112.686 53.6072 128.553 46.7963 144.291 39.6564C154.404 35.0672 164.436 30.2992 175.088 25.339C172.226 24.2108 169.975 23.3245 167.723 22.4367C167.702 21.9245 167.681 21.4122 167.658 20.8985C172.687 20.3186 177.825 20.1894 182.708 19.0072C186.204 18.1615 189.216 15.4365 192.697 14.3805C199.822 12.2188 207.13 10.661 214.34 8.77127C225.405 5.87054 236.383 2.58374 247.549 0.157698C250.71 -0.528805 254.398 1.21074 257.844 1.83715C256.8 5.19455 255.755 8.55346 255.085 10.7091C255.872 13.3034 256.054 15.9142 257.378 17.6552C258.485 19.1094 261.065 20.5049 262.754 20.2616C268.868 19.3843 274.882 17.8055 280.933 16.4925C281.09 17.128 281.244 17.7649 281.4 18.4003C272.331 20.4914 263.261 22.5824 254.192 24.6735C254.285 25.2203 254.38 25.7656 254.473 26.3124C266.289 24.1612 278.104 22.0086 289.92 19.8575C290.155 20.6131 290.389 21.3672 290.623 22.1228C283.726 24.6179 276.83 27.1131 267.838 30.3653C286.372 27.406 302.756 24.7907 316.926 22.5284C326.402 30.5936 334.006 37.0636 341.609 43.535C341.519 44.2741 341.43 45.0132 341.34 45.7538C317.582 50.2934 293.824 54.833 270.067 59.3712C269.895 60.1568 269.723 60.9425 269.551 61.7296C270.67 62.8007 271.655 64.1136 272.965 64.8361C273.592 65.1831 274.882 64.5252 275.794 64.1376C289.851 58.1634 304.657 60.0351 318.773 62.2088C324.282 63.0575 328.683 71.3226 333.391 76.394C333.577 76.5953 331.901 79.5036 330.757 79.7845C326.959 80.7188 323.021 81.156 319.114 81.5586C304.095 83.1028 289.061 84.5119 274.052 86.1372C272.862 86.2664 271.813 87.6665 271.292 90.2097C280.331 88.7961 289.371 87.3811 298.41 85.9675C298.55 86.4827 298.689 86.9965 298.829 87.5117C296.536 88.042 294.264 88.6895 291.949 89.086C276.02 91.814 260.057 94.3512 244.157 97.2339C235.072 98.8818 226.081 101.045 217.06 103.031C215.855 103.297 214.599 103.693 213.573 104.351C190.781 118.981 162.71 119.439 139.7 133.456C139.351 132.6 139.002 131.742 138.652 130.886C141.48 129.647 144.312 128.419 147.133 127.167C150.085 125.855 153.025 124.517 155.525 121.924C146.552 125.245 137.634 128.727 128.592 131.849C114.749 136.627 103.96 146.425 91.6352 153.668C84.3841 157.929 75.7621 159.856 67.2572 161.674C75.136 157.929 83.0162 154.184 90.8949 150.439C76.5354 151.426 65.2121 159.808 52.5178 165.576C52.5178 159.063 52.5178 152.648 52.5178 144.669C37.3025 152.489 23.0481 159.814 8.79519 167.14C8.7096 166.954 8.62251 166.767 8.53692 166.581C18.2055 159.782 27.8756 152.983 37.5442 146.184C46.7503 141.798 55.9564 137.412 65.1626 133.025C64.6986 132.19 64.2346 131.356 63.7706 130.521C55.0735 135.789 46.3764 141.06 37.6809 146.332ZM240.292 60.6991C240.484 61.1663 240.678 61.6335 240.87 62.1006C257.662 57.223 274.454 52.3454 291.246 47.4663C291.051 46.8053 290.854 46.1443 290.658 45.4849C273.87 50.5563 257.081 55.6277 240.292 60.6991ZM252.292 39.2703C252.338 40.1236 252.381 40.9783 252.426 41.8316C264.439 38.8332 276.45 35.8348 288.462 32.8364C288.26 32.0177 288.058 31.1975 287.856 30.3788C276.002 33.3427 264.147 36.3065 252.292 39.2703Z" fill="#1B64FA"/>
<path d="M316.412 141.57C334.031 140.03 351.651 138.492 369.269 136.952C369.351 137.786 369.432 138.62 369.515 139.455C350.99 148.127 330.354 146.015 310.946 150.681C321.76 150.152 332.575 149.623 343.391 149.093C343.416 149.442 343.442 149.79 343.467 150.139C339.824 150.603 336.132 150.824 332.548 151.569C282.742 161.938 232.952 172.38 183.157 182.799C181.975 183.047 180.781 183.237 178.99 183.563C195.455 172.868 214.009 171.021 231.76 165.571C228.313 165.832 224.798 165.75 221.432 166.415C206.733 169.317 192.016 172.173 177.425 175.559C165.53 178.32 153.813 181.847 141.997 184.957C137.263 186.202 132.474 187.241 127.711 188.373C127.225 188.488 126.597 188.436 126.267 188.724C114.594 198.954 99.2747 196.346 85.8687 200.378C65.4203 206.528 44.4239 211.146 25.9846 223.169C18.7546 227.883 9.4839 229.468 0 232.89C2.06165 220.372 2.15325 209.327 8.67306 203.041C9.2857 199.064 8.89679 196.439 9.93738 195.609C24.4665 184.012 42.4358 181.063 59.6633 176.269C60.0432 176.164 60.5597 176.549 62.0883 177.075C52.7816 180.136 44.3338 182.917 35.8845 185.696C36.0091 186.095 36.1337 186.495 36.2584 186.894C48.6718 183.375 61.0853 179.855 73.8591 176.233C73.5198 178.17 73.2045 179.971 72.9522 181.41C98.6395 174.024 124.049 166.715 150.302 159.165C148.266 158.372 146.99 157.874 144.79 157.016C151.155 154.98 156.743 153.194 162.33 151.408C162.264 151.108 162.196 150.809 162.13 150.508C152.8 152.634 143.467 154.758 134.137 156.884C134.007 156.34 133.878 155.797 133.749 155.254C146.822 151.851 159.893 148.447 172.966 145.045C172.876 144.669 172.785 144.292 172.697 143.917C170.159 143.917 167.62 143.917 165.082 143.917C164.977 143.335 164.872 142.754 164.769 142.171C171.177 140.824 177.533 138.959 184.013 138.273C190.373 137.6 196.862 138.126 203.479 136.44C202.347 135.7 201.213 134.959 200.698 134.623C224.495 130.996 248.628 126.831 272.901 123.759C297.184 120.685 321.463 116.686 346.123 118.42C338.48 119.26 330.837 120.101 323.196 120.942C323.198 121.466 323.201 121.991 323.202 122.515C338.068 122.515 352.933 122.515 367.8 122.515C367.92 123.566 368.039 124.618 368.159 125.669C362.789 126.837 357.42 128.005 352.619 129.049C358.36 129.049 364.743 129.049 371.126 129.049C371.417 129.554 371.71 130.059 372.001 130.564C368.706 132.142 365.533 134.698 362.094 135.126C349.446 136.699 336.706 137.519 324.011 138.734C321.384 138.985 318.802 139.716 316.2 140.226C316.268 140.675 316.34 141.123 316.412 141.57ZM84.6614 191.254C73.1414 192.657 61.8871 194.94 51.4753 200.019C51.705 200.772 51.9362 201.524 52.166 202.277C62.9577 198.551 73.7495 194.826 84.5443 191.104C93.6978 188.714 102.851 186.324 112.005 183.934C111.699 183.01 111.391 182.087 111.085 181.164C102.276 184.527 93.4681 187.89 84.6614 191.254Z" fill="#1B64FA"/>
<path fill-rule="evenodd" clip-rule="evenodd" d="M71.9358 295.206C71.9358 295.206 77.0413 258.645 86.7199 249.233C96.3985 239.82 127.854 232.561 127.854 232.561L151.784 193.581C151.784 193.581 146.405 178.256 145.066 159.165C143.719 140.074 142.646 130.67 142.646 130.67C142.646 130.67 149.098 102.44 157.971 102.44C166.843 102.44 168.996 103.787 168.996 103.787C168.996 103.787 172.488 95.4557 182.974 96.2623C193.459 97.0688 198.564 100.029 198.564 100.029C198.564 100.029 217.115 100.569 227.6 112.668C238.085 124.766 240.771 157.294 238.351 175.038C235.932 192.782 228.132 204.614 230.552 216.713C232.972 228.811 255.015 235.263 255.015 235.263C255.015 235.263 286.204 239.836 295.883 251.935C305.561 264.033 310.667 298.174 310.667 298.174C310.667 298.174 269.799 322.371 177.045 320.491C84.2921 318.612 71.9277 295.222 71.9277 295.222L71.9358 295.206Z" fill="white"/>
<path fill-rule="evenodd" clip-rule="evenodd" d="M164.687 207.825C164.687 207.825 172.421 221.625 188.343 227.384C204.264 233.143 218.056 224.198 218.056 224.198V200.244C218.056 200.244 205.321 214.189 193.037 214.342C180.753 214.495 167.719 202.816 167.719 202.816L162.412 197.663L163.324 205.091L164.687 207.817V207.825Z" fill="#B7B7B9"/>
<path fill-rule="evenodd" clip-rule="evenodd" d="M201.75 149.939C201.75 149.939 204.935 144.97 213.219 143.825C221.502 142.68 225.454 148.027 225.454 148.027L220.357 151.084C220.357 151.084 222.01 148.156 218.953 146.624C215.896 145.091 211.815 145.35 207.871 147.261C203.919 149.173 203.153 151.084 202.008 151.342C200.862 151.6 201.75 149.939 201.75 149.939Z" fill="#333333"/>
<path fill-rule="evenodd" clip-rule="evenodd" d="M211.694 152.35C209.589 152.35 207.879 150.583 207.879 148.406C207.879 146.228 209.589 144.462 211.694 144.462C213.799 144.462 215.509 146.228 215.509 148.406C215.509 150.583 213.799 152.35 211.694 152.35Z" fill="#333333"/>
<path fill-rule="evenodd" clip-rule="evenodd" d="M198.694 139.614C198.694 139.614 197.161 142.034 200.226 142.421C203.283 142.8 207.614 139.235 215.131 137.453C222.648 135.67 224.31 139.622 225.576 139.493C226.85 139.364 224.431 134.904 216.276 134.775C208.122 134.646 199.71 138.727 199.71 138.727L198.694 139.622V139.614Z" fill="#333333"/>
<path fill-rule="evenodd" clip-rule="evenodd" d="M183.949 171.797C183.949 171.797 180.634 170.902 180.763 172.692C180.892 174.475 184.078 173.708 186.627 174.862C189.176 176.007 192.104 176.136 194.144 175.499C196.185 174.862 197.072 174.225 198.862 173.967C200.645 173.708 201.919 172.95 201.153 171.926C200.387 170.91 198.475 170.91 195.16 172.563C191.845 174.217 189.426 173.458 187.643 172.821C185.861 172.184 183.949 171.805 183.949 171.805V171.797Z" fill="#333333"/>
<path fill-rule="evenodd" clip-rule="evenodd" d="M180.394 149.939C180.394 149.939 177.208 144.97 168.925 143.825C160.642 142.68 156.689 148.027 156.689 148.027L161.787 151.084C161.787 151.084 160.133 148.156 163.19 146.624C166.247 145.091 170.328 145.35 174.272 147.261C178.224 149.173 178.991 151.084 180.136 151.342C181.281 151.6 180.394 149.939 180.394 149.939Z" fill="#333333"/>
<path fill-rule="evenodd" clip-rule="evenodd" d="M170.458 152.35C172.563 152.35 174.273 150.583 174.273 148.406C174.273 146.228 172.563 144.462 170.458 144.462C168.352 144.462 166.643 146.228 166.643 148.406C166.643 150.583 168.352 152.35 170.458 152.35Z" fill="#333333"/>
<path fill-rule="evenodd" clip-rule="evenodd" d="M183.448 139.614C183.448 139.614 184.981 142.034 181.916 142.421C178.859 142.8 174.528 139.235 167.011 137.453C159.494 135.67 157.832 139.622 156.566 139.493C155.292 139.364 157.711 134.904 165.866 134.775C174.02 134.646 182.432 138.727 182.432 138.727L183.448 139.622V139.614Z" fill="#333333"/>
<path fill-rule="evenodd" clip-rule="evenodd" d="M177.43 184.217C177.43 184.217 181.826 188.338 191.174 188.459C200.473 188.483 204.49 183.781 205.175 183.781C205.175 183.781 209.273 182.716 209.192 184.846C209.192 186.209 205.934 186.233 205.934 186.233C205.934 186.233 200.401 192.806 190.698 192.427C180.995 191.976 176.825 186.644 176.825 186.644C176.825 186.644 172.204 185.684 172.502 184.7C173.26 182.273 177.43 184.217 177.43 184.217Z" fill="#333333"/>
<path fill-rule="evenodd" clip-rule="evenodd" d="M186.221 196.469C186.221 196.469 188.423 197.299 192.439 197.001C196.456 196.694 196.988 196.396 196.988 196.396C196.988 196.396 194.56 198.824 191.302 198.896C188.044 198.969 186.301 197.38 186.301 197.38L186.229 196.469H186.221Z" fill="#333333"/>
<path d="M146.904 163.803C147.106 165.214 146.299 178.764 158.43 193.314C170.964 207.26 179.658 213.736 191.176 214.341C204.718 215.148 216.042 202.816 223.922 192.508C235.649 176.538 233.423 164.408 233.423 164.408" stroke="#333333" stroke-width="4" stroke-miterlimit="100"/>
<path fill-rule="evenodd" clip-rule="evenodd" d="M172.27 107.829C172.27 107.829 183.239 98.3605 197.006 104.506C210.782 110.644 202.87 134.704 212.823 142.124C222.768 149.544 220.985 159.521 218.436 162.086C215.888 164.643 213.847 164.393 213.847 164.393C213.847 164.393 220.227 166.699 223.542 155.69C226.857 144.689 214.872 141.616 213.597 133.679C212.323 125.743 217.42 111.669 206.967 100.409C196.506 89.1497 181.206 94.0132 176.867 100.151C172.528 106.289 172.278 107.829 172.278 107.829H172.27Z" fill="#333333"/>
<path fill-rule="evenodd" clip-rule="evenodd" d="M158.928 64.8474C158.928 64.8474 176.212 46.9581 193.496 55.1446C210.781 63.3311 210.176 60.605 223.823 55.7495C237.47 50.8941 256.569 63.936 255.964 75.4616C255.359 86.9872 258.392 91.2297 265.368 92.4395C272.345 93.6493 275.676 90.3183 275.676 90.3183C275.676 90.3183 270.216 99.1097 259.601 95.4721C248.987 91.8346 229.582 82.1318 221.089 79.3976C212.596 76.6715 170.147 105.175 170.147 105.175L158.928 64.8474Z" fill="#333333"/>
<path fill-rule="evenodd" clip-rule="evenodd" d="M264.926 101.488C264.926 101.488 273.709 106.634 276.08 113.901C278.444 121.168 270.676 126.612 274.395 132.669C278.113 138.726 287.235 141.146 288.59 151.131C289.945 161.116 274.733 166.568 275.411 178.973C276.088 191.386 280.815 194.709 274.056 203.186C267.297 211.663 252.094 212.268 253.779 222.253C255.465 232.238 262.901 230.73 262.901 230.73C262.901 230.73 245.665 240.11 234.519 224.672C223.364 209.235 249.053 189.257 242.963 178.667C236.882 168.077 226.058 168.303 229.688 158.422C234.93 144.308 222.316 146.106 223.832 137.008C228.986 107.295 204.104 104.811 204.104 104.811L174.705 95.7292C174.705 95.7292 188.562 76.9607 217.96 78.7755C247.359 80.5902 259.522 93.9063 259.522 93.9063L264.926 101.472V101.488Z" fill="#333333"/>
<path d="M163.56 200.178C163.777 207.566 163.221 216.406 159.842 220.431C153.47 228.012 134.669 231.65 111.932 237.409C89.1877 243.167 83.4289 251.967 79.1865 262.275C74.944 272.582 71 296.537 71 296.537C77.6967 304.444 110.693 320.257 189.105 320.257C267.516 320.257 302.731 305.255 310.537 297.754C310.537 297.754 306.593 273.799 302.351 263.492C298.108 253.184 292.349 244.384 269.605 238.626C246.868 232.867 228.067 229.229 221.696 221.648C217.994 217.236 217.671 207.065 218.058 199.339" stroke="#333333" stroke-width="4" stroke-miterlimit="100"/>
<path fill-rule="evenodd" clip-rule="evenodd" d="M158.927 63.9365C158.927 63.9365 141.643 57.5647 133.15 67.8805C124.657 78.1882 133.755 86.6812 127.69 92.7465C121.624 98.8117 110.712 93.053 106.768 103.659C102.824 114.273 112.228 118.822 108.889 124.581C105.55 130.34 92.8145 131.856 91.9111 143.688C90.9997 155.512 106.768 159.15 104.34 167.643C101.912 176.136 95.8471 186.137 105.55 192.815C115.253 199.485 118.89 201.913 119.802 207.978C120.713 214.044 112.527 219.197 119.495 228.9C126.472 238.603 143.45 233.756 147.999 242.547C152.548 251.338 144.966 256.194 144.966 256.194C144.966 256.194 154.37 253.766 155.274 245.281C156.185 236.788 153.757 235.272 153.757 235.272C153.757 235.272 161.645 232.546 162.855 221.625C164.065 210.712 163.162 198.582 163.162 198.582C163.162 198.582 154.669 191.307 151.338 183.12C147.999 174.934 147.394 171.901 147.394 171.901L146.999 166.514C152.644 163.892 151.644 157.956 150.128 151.891C148.612 145.826 142.853 141.18 151.951 133.09C156.395 129.049 152.257 126.42 152.862 117.927C153.467 109.434 160.75 106.708 164.388 106.401C168.025 106.095 170.147 107.611 170.147 107.611L172.873 100.635L158.927 63.9445V63.9365Z" fill="#333333"/>
<path fill-rule="evenodd" clip-rule="evenodd" d="M155.187 236.174C155.187 236.174 158.824 240.215 158.824 244.062C158.824 247.901 158.018 250.329 158.018 250.329C158.018 250.329 164.285 243.457 163.478 235.368C162.671 227.278 160.445 225.665 160.445 225.665L147.307 228.496L155.195 236.174H155.187Z" fill="#333333"/>
<path fill-rule="evenodd" clip-rule="evenodd" d="M218.269 200.598C218.269 200.598 215.841 225.061 219.68 229.505C223.519 233.949 226.955 235.772 232.617 237.998C238.279 240.224 251.62 243.458 256.064 242.039C260.508 240.627 263.54 236.78 263.54 236.78C263.54 236.78 256.669 239.611 248.579 231.723C240.489 223.835 242.312 215.551 247.974 197.557C253.636 179.563 251.208 173.296 245.95 168.247C240.691 163.19 233.819 163.602 233.819 163.602C233.819 163.602 234.626 173.506 227.955 185.637C221.285 197.767 218.253 200.598 218.253 200.598H218.269Z" fill="#333333"/>
<path fill-rule="evenodd" clip-rule="evenodd" d="M256.07 89.6086C256.07 89.6086 261.732 96.8837 268.2 99.1098C274.669 101.336 277.903 99.1098 277.903 99.1098C277.903 99.1098 274.266 105.377 264.361 103.554C254.457 101.731 250.416 93.0445 250.416 93.0445L251.223 86.9792L256.078 89.6086H256.07Z" fill="#333333"/>
<path fill-rule="evenodd" clip-rule="evenodd" d="M106.772 181.289C106.772 181.289 103.739 190.08 109.804 196.145C115.87 202.211 114.047 207.365 111.926 209.792C109.804 212.22 106.772 212.518 106.772 212.518C106.772 212.518 113.442 213.43 117.08 208.276C120.717 203.122 115.87 194.331 115.87 194.331L110.716 189.475L106.772 181.289Z" fill="#333333"/>
<path fill-rule="evenodd" clip-rule="evenodd" d="M285.381 154.906C285.381 154.906 275.679 171.585 279.921 177.65C284.163 183.716 286.898 185.837 287.196 190.692C287.503 195.548 281.131 195.846 281.131 195.846C281.131 195.846 285.986 193.12 282.042 188.265C278.098 183.409 273.856 182.199 272.944 174.319C272.033 166.431 277.493 158.858 277.493 158.858L285.381 154.914V154.906Z" fill="#333333"/>
<path fill-rule="evenodd" clip-rule="evenodd" d="M107.99 90.0108C107.99 90.0108 119.814 100.02 131.34 90.3173C142.865 80.6145 134.977 75.4607 134.977 75.4607L132.55 75.7672C132.55 75.7672 131.033 88.5026 121.637 90.3254C112.233 92.1482 107.99 90.0189 107.99 90.0189V90.0108Z" fill="#333333"/>
<path d="M84.0352 255.306C84.0352 255.306 123.459 278.349 195.629 277.744C267.8 277.139 298.731 256.217 298.731 256.217" stroke="#333333" stroke-width="4" stroke-miterlimit="100"/>
<path d="M190.17 285.326C190.17 285.326 170.458 274.414 159.545 255C148.633 235.594 148.326 228.311 148.326 228.311" stroke="#333333" stroke-width="4" stroke-miterlimit="100"/>
<path d="M188.949 285.326C188.949 285.326 208.661 274.414 219.574 255C230.487 235.594 230.793 228.311 230.793 228.311" stroke="#333333" stroke-width="4" stroke-miterlimit="100"/>
<path fill-rule="evenodd" clip-rule="evenodd" d="M189.863 304.425C188.185 304.425 186.83 299.811 186.83 294.117C186.83 288.423 188.185 283.809 189.863 283.809C191.54 283.809 192.895 288.423 192.895 294.117C192.895 299.811 191.54 304.425 189.863 304.425Z" fill="#333333"/>
<path fill-rule="evenodd" clip-rule="evenodd" d="M166.359 85.6169C166.359 85.6169 151.801 80.0034 143.767 87.8914C135.734 95.7795 146.042 106.692 139.065 114.427C132.088 122.162 129.814 119.734 122.539 125.493C115.264 131.252 116.925 140.503 122.386 145.205C127.846 149.907 133.153 147.479 133.153 147.479C133.153 147.479 124.055 146.874 121.934 140.204C119.813 133.534 122.087 128.533 126.789 125.799C131.492 123.073 139.678 123.073 144.38 114.427C149.083 105.781 140.896 98.2072 145.292 90.4724C149.687 82.7376 166.367 85.6169 166.367 85.6169H166.359Z" fill="#B7B7B9"/>
<path fill-rule="evenodd" clip-rule="evenodd" d="M144.372 168.852C144.372 168.852 143.461 172.49 135.879 177.039C128.298 181.588 126.475 192.807 135.274 198.267C144.066 203.727 135.879 213.124 135.879 213.124C135.879 213.124 139.823 205.236 134.968 200.993C130.112 196.751 123.442 193.718 127.08 184.62C130.717 175.522 136.178 174.917 140.42 170.369C144.662 165.82 144.662 163.997 144.662 163.997L144.356 168.852H144.372Z" fill="#B7B7B9"/>
<path fill-rule="evenodd" clip-rule="evenodd" d="M166.512 86.978C166.512 86.978 169.851 73.3312 184.401 68.7823C198.959 64.2333 209.872 74.2426 209.573 83.639C209.267 93.0433 206.541 98.8021 215.639 100.318C224.737 101.835 224.737 106.384 224.737 106.384C224.737 106.384 225.648 100.625 218.066 98.1972C210.485 95.7695 211.396 92.7368 212.308 85.7682C213.219 78.7916 212.614 66.0562 192.902 65.1448C173.19 64.2334 168.343 80.3079 168.343 80.3079L166.52 86.978H166.512Z" fill="#B7B7B9"/>
<path fill-rule="evenodd" clip-rule="evenodd" d="M162.874 73.0337C162.874 73.0337 156.204 63.6293 144.678 65.7586C133.152 67.8798 133.152 79.4055 133.152 79.4055C133.152 79.4055 136.491 69.0978 146.194 68.4928C155.897 67.8879 162.874 73.0418 162.874 73.0418V73.0337Z" fill="#B7B7B9"/>
<path fill-rule="evenodd" clip-rule="evenodd" d="M120.723 98.8113C120.723 98.8113 108.593 99.1177 109.504 107.909C110.415 116.701 113.142 118.523 113.142 118.523C113.142 118.523 110.415 109.425 113.142 105.183C115.868 100.941 120.723 98.8113 120.723 98.8113Z" fill="#B7B7B9"/>
<path fill-rule="evenodd" clip-rule="evenodd" d="M169.144 100.327C169.144 100.327 168.136 92.2376 173.588 85.1641C179.048 78.0907 185.92 78.494 185.92 78.494C185.92 78.494 181.476 80.1151 179.048 83.551C176.621 86.9869 176.621 87.9951 176.621 87.9951C176.621 87.9951 182.081 81.5266 189.154 81.325C196.228 81.1233 200.067 90.6245 200.067 90.6245C200.067 90.6245 190.162 81.7282 181.065 87.3902C171.967 93.0522 169.539 102.15 169.539 102.15L169.136 100.327H169.144Z" fill="#B7B7B9"/>
</svg>
