<svg width="348" height="311" viewBox="0 0 348 311" fill="none" xmlns="http://www.w3.org/2000/svg">
<path d="M278.935 22.5945C280.962 26.1153 282.442 28.6847 284.502 32.2644C286.25 31.5206 288.895 30.3964 291.83 29.1488C293.207 30.353 294.607 32.1941 296.459 33.0334C298.674 34.037 303.123 41.1153 302.77 30.956C302.667 27.9802 307.301 24.5205 310.268 21.8433C313.393 19.0236 317.12 16.8756 321.198 15.1449C319.617 16.6982 318.042 18.2559 316.454 19.8018C314.914 21.3023 313.362 22.7906 311.815 24.2851C312.384 24.8902 312.955 25.4949 313.524 26.0985C322.343 17.5426 331.161 8.98698 340.424 0.000488281C342.509 2.14647 346.346 4.64196 347.792 8.13115C348.664 10.2337 346.643 14.9503 344.481 16.6361C338.663 21.1723 331.77 24.3096 325.864 28.7488C318.328 34.4121 311.341 40.8096 304.941 48.3793C306.184 48.2553 307.916 48.616 308.59 47.9304C313.844 42.5908 318.658 47.2753 323.344 48.6942C327.696 50.0116 326.862 53.735 326.583 57.6355C326.433 59.7451 330.055 62.1273 332.41 64.8957C334.832 61.443 336.164 59.5449 337.495 57.6483C338.289 57.8793 339.082 58.1122 339.875 58.3433C339.031 61.2355 338.969 64.7864 337.197 66.8989C331.31 73.9206 327.066 81.3251 323.963 90.216C321.884 96.1715 314.205 100.223 308.894 104.971C301.777 111.334 294.506 117.523 287.349 123.842C285.765 125.241 284.628 127.305 282.86 128.313C274.991 132.8 267.254 137.72 258.915 141.121C251.329 144.217 243.028 145.554 234.021 147.937C236.546 143.581 238.317 140.529 240.043 137.554C235.049 136.79 231.714 135.955 228.365 135.895C226.462 135.861 224.379 136.825 222.651 137.818C216.934 141.101 211.34 144.602 204.815 148.553C203.99 144.662 203.533 142.509 202.685 138.508C196.896 144.096 191.087 148.478 186.863 154.064C180.228 162.833 173.951 171.689 163.621 176.487C161.33 177.551 158.996 178.527 157.916 179C153.127 171.423 148.903 164.737 144.724 158.125C138.84 158.56 134.83 167.682 127.71 160.127C129.977 157.495 132.343 154.751 135.876 150.651C131.064 153.883 127.735 156.121 124.038 158.605C120.453 153.397 116.855 155.225 112.617 158.083C110.444 159.547 106.642 158.556 104.427 159.99C100.624 162.455 97.4249 165.888 94.0854 169.033C87.7698 174.982 80.897 172.947 78.5449 164.591C77.7741 161.852 76.0482 159.382 74.6732 156.613C76.8779 154.56 78.9455 152.635 81.0114 150.71C80.6538 150.11 80.2965 149.513 79.9403 148.913C69.5947 154.461 59.2509 160.011 48.9052 165.56C48.9947 165.803 49.0842 166.045 49.1736 166.288C52.2667 163.233 55.3597 160.178 58.4531 157.124C58.077 156.706 57.7021 156.286 57.326 155.867C53.2664 159.455 49.1327 162.962 45.1634 166.648C38.5199 172.817 33.3088 170.276 29.0414 162.826C23.9269 153.899 28.6104 150.689 34.168 146.111C31.6032 147.51 29.0388 148.911 26.4741 150.311C26.6484 149.741 26.8227 149.171 26.9981 148.599C22.8246 147.243 18.6501 145.889 14.2251 144.451C14.2433 138.931 11.8245 137.48 0 135.912C7.72588 129.33 15.3579 122.631 23.208 116.201C29.7519 110.839 35.882 104.14 43.4268 101.068C50.9621 98 57.3075 93.9776 63.2304 88.8417C64.0925 88.0943 63.833 86.1624 64.388 84.9107C64.8814 83.7957 66.3599 81.9384 66.4263 81.9795C74.1068 86.7745 71.2034 78.3329 73.2915 76.361C79.0771 70.9031 84.5602 65.1234 90.1625 59.4716C90.6586 59.9696 91.1548 60.4676 91.6509 60.9656C87.8282 64.6548 84.0072 68.345 80.1845 72.0342C92.8204 65.5094 102.44 55.7211 110.485 44.3005C121.347 52.8528 121.347 52.8528 115.891 64.481C117.512 67.1548 119.073 69.7299 121.46 73.6657C122.406 73.1866 124.922 71.9399 127.416 70.6451C130.18 69.2095 132.922 67.7328 137.226 65.4501C134.894 68.6277 133.523 70.4941 132.154 72.3602C132.566 72.7915 132.98 73.221 133.392 73.6524C138.107 69.375 143.028 65.2989 147.479 60.763C151.842 56.3183 155.727 51.4054 159.892 46.6169C160.149 46.6453 160.772 46.5228 160.989 46.7649C167.772 54.3412 167.676 54.2387 175.89 47.321C186.029 38.7816 196.256 30.3382 206.658 22.1251C208.423 20.7325 211.264 20.708 213.608 20.0517C213.926 22.5372 214.293 25.0174 214.54 27.5094C214.669 28.803 214.585 30.1185 214.615 33.4808C217.607 29.221 219.456 26.59 221.612 23.5192C223.254 24.6762 224.685 25.6855 226.334 26.8494C227.002 26.2496 227.613 25.4544 228.418 25.0216C230.748 23.7671 233.922 21.0533 235.405 21.7629C242.716 25.2646 248.962 25.1192 254.846 19.1281C252.295 21.7478 249.743 24.3676 247.193 26.987C247.689 27.5048 248.184 28.024 248.68 28.5417C257.906 20.9033 266.885 13.0004 273.484 2.60529C284.433 11.5875 284.433 11.5875 278.935 22.5945Z" fill="#1B64FA"/>
<path d="M113.427 11.8345C112.792 13.884 112.336 15.3536 111.881 16.8221C112.27 17.1369 112.661 17.4507 113.051 17.7655C119.496 11.8673 125.942 5.96917 132.387 0.0710258C132.801 0.50257 133.214 0.933174 133.627 1.36378C127.403 7.25942 121.136 13.1106 114.968 19.0629C109.314 24.519 103.766 30.0838 98.1715 35.6013C98.503 35.9428 98.8334 36.2842 99.1649 36.6256C102.809 33.9564 106.453 31.2871 110.098 28.6178C110.464 29.0874 110.829 29.5569 111.196 30.0275C110.424 30.9573 109.787 32.0562 108.861 32.792C95.6207 43.3053 82.3141 53.7344 69.0878 64.2638C64.2927 68.0814 59.7857 72.2682 54.9295 76.0023C49.7938 79.952 44.4178 83.5907 39.1109 87.3123C35.5169 89.8323 31.7202 92.0841 28.2748 94.7883C25.3742 97.0644 27.1144 98.6863 29.6124 99.8391C24.0495 104.453 24.0495 104.453 16.3556 101.312C20.9073 95.8737 16.4923 93.9274 13.1803 92.2583C12.6781 85.7448 12.9263 79.8236 19.8552 76.8234C18.8655 76.6775 17.8758 76.5316 15.5687 76.1917C21.7244 72.326 26.9731 69.0297 32.5884 65.5026C33.4448 66.5984 34.3805 67.7945 34.8262 68.3654C42.1394 62.8841 49.4586 57.4004 57.0947 51.678C60.1139 54.7195 63.0143 51.212 65.883 48.8727C70.3482 45.2315 75.1299 42.7532 78.8316 42.9478C85.7435 38.062 91.3175 34.1217 96.9079 30.1703C94.1878 29.497 91.0639 34.612 88.7023 29.9514C89.9608 28.9548 91.3041 28.0161 92.5024 26.919C98.007 21.8758 103.392 16.6947 109.04 11.8181C109.856 11.114 111.866 11.7926 113.427 11.8345Z" fill="#1B64FA"/>
<path d="M118 210.649C140.4 207.449 143 188.982 141.5 180.149C140.833 177.815 137.5 172.248 129.5 168.648C121.5 165.048 111.5 139.815 107.5 127.648L113.5 94.1484L131 57.6485C136.167 54.3152 151.4 47.9485 171 49.1485C195.5 50.6485 213 70.6485 217 89.6485C221 108.649 218 161.649 208.5 185.649C199 209.649 229.5 212.149 247.5 217.649C279 224.649 290 234.649 298.5 245.649C305.3 254.449 310.333 278.315 312 289.149C293.167 295.982 240 309.648 178 309.648C116 309.648 56.1667 295.982 34 289.149C34.6667 283.815 38.2 268.049 47 247.649C58 222.149 105.5 215.649 118 210.649Z" fill="white"/>
<path fill-rule="evenodd" clip-rule="evenodd" d="M199.656 69.7994C199.656 69.7994 211.029 78.2098 212.515 110.842C214.001 143.474 209.057 157.323 214.496 171.668C219.935 186.012 227.355 187.488 227.355 187.488C227.355 187.488 219.439 153.866 219.935 130.13C220.43 106.394 220.925 91.5636 213.01 79.2004C205.095 66.8371 201.142 64.856 201.142 64.856L199.656 69.7994Z" fill="#333333"/>
<path fill-rule="evenodd" clip-rule="evenodd" d="M124.165 175.287C124.165 175.287 129.766 176.602 130.432 187.155C131.09 197.709 123.508 198.033 123.508 198.033C123.508 198.033 133.071 197.699 137.357 187.155C141.643 176.602 133.071 165.067 133.071 165.067L125.822 155.504L112.307 152.866L118.241 170.668L124.175 175.287H124.165Z" fill="#333333"/>
<path fill-rule="evenodd" clip-rule="evenodd" d="M121.032 51.2531C121.032 51.2531 123.756 29.4984 146.254 21.5832C168.752 13.6681 183.591 21.3356 183.591 21.3356C183.591 21.3356 213.261 20.8403 225.872 40.3758C238.483 59.9112 231.806 66.8358 238.483 74.7414C245.16 82.6566 250.351 81.666 253.313 87.3523C256.276 93.0387 254.304 99.468 254.304 99.468C254.304 99.468 253.066 88.5906 248.618 86.1141C244.169 83.6376 241.941 83.1519 241.941 83.1519C241.941 83.1519 242.188 90.8194 250.103 96.7534C258.019 102.687 260.733 104.916 263.21 114.308C265.686 123.699 261.724 129.881 261.724 129.881C261.724 129.881 266.42 135.815 263.21 144.959C260 154.103 256.533 157.074 256.533 157.074C256.533 157.074 259.495 146.445 257.276 138.282C255.047 130.119 250.103 128.395 250.103 128.395C250.103 128.395 259 147.435 256.037 159.551C253.075 171.666 246.151 177.353 250.846 187.735C255.542 198.117 268.896 193.916 268.896 193.916C268.896 193.916 267.658 197.126 260.981 197.126C254.304 197.126 250.599 194.402 250.599 194.402C250.599 194.402 247.637 205.032 239.721 209.975C231.806 214.919 230.082 214.919 230.082 214.919C230.082 214.919 213.271 213.185 209.07 203.051C204.87 192.916 205.613 177.257 206.27 177.581L218.471 153.35C219.957 149.645 219.214 141.234 219.214 126.652C219.214 112.06 219.71 104.402 212.29 87.3428C204.87 70.2838 184.353 54.7107 170.257 53.4724C156.16 52.2342 150.226 58.6635 150.226 58.6635L151.959 52.7295L145.53 57.6729L146.025 54.2154L142.073 58.4158L140.339 56.93C140.339 56.93 130.7 63.3592 127.48 75.4748C124.271 87.5905 118.822 90.8003 118.822 90.8003L123.518 88.8192C123.518 88.8192 121.537 98.706 120.794 106.126C120.051 113.546 120.299 117.251 120.299 117.251C120.299 117.251 117.822 112.06 114.365 109.583C110.907 107.107 107.44 112.06 108.926 122.194C110.412 132.329 115.355 139.749 117.584 141.234C119.813 142.72 124.509 144.692 122.775 144.444C122.775 144.444 126.976 161.751 128.462 163.98C129.947 166.209 135.138 172.39 135.138 172.39C135.138 172.39 127.471 169.914 123.27 165.713C119.07 161.513 119.07 161.513 119.07 161.513C119.07 161.513 121.546 168.19 126.242 171.152C130.938 174.114 130.938 174.114 130.938 174.114C130.938 174.114 115.365 176.838 105.469 169.914C95.5817 162.989 93.1053 156.56 93.1053 156.56C93.1053 156.56 93.6006 162.742 97.5534 167.437C101.506 172.133 104.478 173.619 104.478 173.619C104.478 173.619 89.6478 169.418 85.4378 154.826C81.2373 140.234 99.2869 110.326 98.2963 94.2483C97.3057 78.1799 100.03 65.3213 107.688 58.3968C115.355 51.4722 121.042 51.2246 121.042 51.2246L121.032 51.2531Z" fill="#333333"/>
<path fill-rule="evenodd" clip-rule="evenodd" d="M140.32 180.564C140.32 180.564 158.122 213.196 179.877 211.225C201.632 209.243 206.575 196.394 206.575 196.394L205.584 176.611C205.584 176.611 189.764 199.357 173.933 196.394C158.112 193.432 140.311 180.574 140.311 180.574L140.32 180.564Z" fill="#B7B7B9"/>
<path fill-rule="evenodd" clip-rule="evenodd" d="M196.636 120.442C194.054 120.442 191.959 118.28 191.959 115.604C191.959 112.937 194.054 110.765 196.636 110.765C199.217 110.765 201.312 112.927 201.312 115.604C201.312 118.27 199.217 120.442 196.636 120.442Z" fill="#333333"/>
<path fill-rule="evenodd" clip-rule="evenodd" d="M166.788 150.418C166.788 150.418 163.559 149.409 163.683 151.428C163.807 153.457 167.636 152.371 169.617 154.219C171.97 156.447 174.437 156.076 176.418 155.333C178.399 154.59 179.609 153.161 181.342 152.876C183.085 152.59 184.324 151.714 183.581 150.561C182.838 149.399 181.237 149.647 178.39 151.876C175.18 154.352 173.322 154.104 170.846 152.495C169.484 151.628 167.884 150.761 166.788 150.418Z" fill="#333333"/>
<path d="M122.838 143.141C126.629 163.086 141.049 179.326 145.107 181.936C161.08 192.422 166.186 197.204 173.443 197.204L178.092 197.242C186.445 196.061 194.855 188.06 201.913 181.536C217.953 166.048 222.735 140.664 223.068 123.196" stroke="#333333" stroke-width="4" stroke-miterlimit="100"/>
<path d="M141.774 179.02C142.031 187.44 141.383 197.508 137.44 202.099C130.03 210.738 107.179 214.395 81.6624 221.444C68.118 224.958 51.3067 238.284 46.3633 250.228C41.4199 261.715 34 288.813 34 288.813C52.7037 295.542 107.624 309 177.674 309C247.724 309 297.011 295.827 312.898 289.241C312.898 289.241 305.469 261.219 300.526 249.732C295.573 237.788 281.238 226.758 265.236 221.872C239.205 213.899 216.869 211.166 209.459 202.527C205.144 197.497 204.772 185.915 205.134 179.21" stroke="#333333" stroke-width="4" stroke-miterlimit="100"/>
<path d="M81.9121 221.711C81.9121 221.711 120.173 245.561 175.484 246.495C219.041 247.428 265.961 222.235 265.961 222.235" stroke="#333333" stroke-width="4" stroke-miterlimit="100"/>
<path fill-rule="evenodd" clip-rule="evenodd" d="M184.656 120.729C184.656 120.729 184.99 112.319 194.876 110.176C201.306 108.366 205.259 111.985 207.402 112.814C213.174 115.452 216.965 112.157 216.631 113.309C215.479 115.452 211.031 117.262 207.068 115.786C204.106 114.633 202.287 112.157 195.696 112.49C188.933 112.824 185.637 120.405 184.656 120.729Z" fill="#333333"/>
<path fill-rule="evenodd" clip-rule="evenodd" d="M154.594 165.276C154.594 165.276 158.185 168.514 162.09 168.676C165.995 168.838 167.348 167.991 170.062 168.895C172.767 169.8 173.853 170.162 173.853 170.162L174.225 166.6C174.225 166.6 168.929 164.924 165.586 166.066C162.242 167.209 158.547 166.324 156.661 165.628C154.775 164.933 153.213 163.771 153.213 163.771L154.594 165.285V165.276Z" fill="#333333"/>
<path fill-rule="evenodd" clip-rule="evenodd" d="M193.437 165.276C193.437 165.276 189.846 168.514 185.941 168.676C182.036 168.838 180.684 167.991 177.969 168.895C175.264 169.8 174.178 170.162 174.178 170.162L173.807 166.6C173.807 166.6 179.102 164.924 182.446 166.066C185.789 167.209 189.485 166.324 191.37 165.628C193.256 164.933 194.818 163.771 194.818 163.771L193.437 165.285V165.276Z" fill="#333333"/>
<path fill-rule="evenodd" clip-rule="evenodd" d="M163.558 172.029C163.558 172.029 167.206 174.258 174.017 174.63C180.836 175.001 185.742 172.277 185.742 172.277C185.742 172.277 181.941 176.601 173.855 176.23C165.768 175.858 163.549 172.029 163.549 172.029H163.558Z" fill="#333333"/>
<path d="M115.772 109.641C115.772 109.641 105.19 99.9543 106.905 113.746C108.619 127.538 109.191 136.644 112.915 141.045C116.63 145.445 120.068 145.15 120.068 145.15" stroke="#333333" stroke-width="4" stroke-miterlimit="100"/>
<path fill-rule="evenodd" clip-rule="evenodd" d="M212.134 111.214C212.134 111.214 209.534 113.442 206.448 112.699C203.362 111.957 202 110.842 202 110.842C202 110.842 204.848 111.585 208.429 111.337C212.011 111.09 213.373 109.852 213.373 109.852L212.134 111.214Z" fill="#333333"/>
<path fill-rule="evenodd" clip-rule="evenodd" d="M180.367 108.269C180.367 108.269 182.577 102.964 187.511 102.097C192.444 101.231 195.492 100.45 202.617 99.459C209.142 98.6684 212.113 100.65 215.476 102.231C218.838 104.012 219.924 106.022 219.924 106.022C219.924 106.022 210.532 102.04 203.008 103.221C195.692 104.012 191.54 105.793 186.987 107.174C183.034 108.365 182.205 108.127 181.319 108.555C180.434 108.993 180.357 108.269 180.357 108.269H180.367Z" fill="#333333"/>
<path fill-rule="evenodd" clip-rule="evenodd" d="M150.251 120.442C152.832 120.442 154.928 118.28 154.928 115.604C154.928 112.937 152.832 110.765 150.251 110.765C147.67 110.765 145.574 112.927 145.574 115.604C145.574 118.27 147.67 120.442 150.251 120.442Z" fill="#333333"/>
<path fill-rule="evenodd" clip-rule="evenodd" d="M162.234 120.729C162.234 120.729 161.9 112.319 152.013 110.176C145.584 108.366 141.631 111.985 139.488 112.814C133.716 115.452 129.925 112.157 130.259 113.309C131.411 115.452 135.859 117.262 139.822 115.786C142.784 114.633 144.603 112.157 151.194 112.49C157.957 112.824 161.253 120.405 162.234 120.729Z" fill="#333333"/>
<path fill-rule="evenodd" clip-rule="evenodd" d="M134.752 111.214C134.752 111.214 137.352 113.442 140.438 112.699C143.524 111.957 144.886 110.842 144.886 110.842C144.886 110.842 142.038 111.585 138.457 111.337C134.876 111.09 133.514 109.852 133.514 109.852L134.752 111.214Z" fill="#212123"/>
<path fill-rule="evenodd" clip-rule="evenodd" d="M166.518 108.269C166.518 108.269 164.308 102.964 159.374 102.097C154.44 101.231 151.392 100.45 144.268 99.459C137.743 98.6684 134.771 100.65 131.409 102.231C128.047 104.012 126.961 106.022 126.961 106.022C126.961 106.022 136.352 102.04 143.877 103.221C151.192 104.012 155.345 105.793 159.898 107.174C163.851 108.365 164.679 108.127 165.565 108.555C166.451 108.993 166.527 108.269 166.527 108.269H166.518Z" fill="#333333"/>
<path fill-rule="evenodd" clip-rule="evenodd" d="M184.816 120.566C184.816 120.566 184.978 122.213 186.464 121.718C187.95 121.223 189.922 121.223 191.408 121.223C192.893 121.223 192.893 121.223 192.893 121.223C192.893 121.223 189.103 119.737 187.95 119.737C186.798 119.737 186.14 119.737 186.798 118.251C187.455 116.765 187.455 115.946 187.455 115.946L184.816 120.566Z" fill="#333333"/>
<path fill-rule="evenodd" clip-rule="evenodd" d="M162.235 120.566C162.235 120.566 162.073 122.213 160.587 121.718C159.102 121.223 157.13 121.223 155.644 121.223C154.158 121.223 154.158 121.223 154.158 121.223C154.158 121.223 157.949 119.737 159.102 119.737C160.254 119.737 160.911 119.737 160.254 118.251C159.597 116.765 159.597 115.946 159.597 115.946L162.235 120.566Z" fill="#333333"/>
<path fill-rule="evenodd" clip-rule="evenodd" d="M141.545 52.7298C141.545 52.7298 137.592 38.1377 150.937 28.9938C164.29 19.85 172.939 22.0693 172.939 22.0693C172.939 22.0693 159.09 25.0315 152.908 29.9844C146.727 34.9278 146.974 39.3759 146.974 39.3759C146.974 39.3759 151.67 33.1943 161.805 29.2415C171.939 25.2887 174.911 26.2793 174.911 26.2793C174.911 26.2793 162.547 33.4515 156.118 40.1284C149.689 46.8053 150.184 51.9964 150.184 51.9964C150.184 51.9964 147.708 49.5199 150.679 42.8525C153.642 36.1756 155.128 35.4326 155.128 35.4326C155.128 35.4326 146.965 41.3666 144.25 46.8053C141.526 52.244 141.526 52.7393 141.526 52.7393L141.545 52.7298Z" fill="#B7B7B9"/>
<path fill-rule="evenodd" clip-rule="evenodd" d="M131.163 58.6647C131.163 58.6647 125.972 56.4358 115.838 57.6741C105.703 58.9123 104.713 71.2756 104.713 71.2756C104.713 71.2756 107.923 63.8557 116.333 61.3888C124.744 58.9123 127.211 61.1411 127.211 61.1411C127.211 61.1411 118.314 61.884 113.609 66.5798C108.913 71.2756 109.409 72.0185 109.409 72.0185C109.409 72.0185 114.352 67.5704 118.553 66.3322C122.753 65.0939 124.734 65.0939 124.734 65.0939C124.734 65.0939 123.001 67.3227 115.838 72.2661C108.666 77.2095 107.18 80.9242 105.951 86.8582C104.713 92.7922 104.961 94.7734 104.961 94.7734C104.961 94.7734 107.437 81.4195 114.352 76.9714C121.277 72.5233 125.229 68.561 128.449 63.6176C131.659 58.6742 131.173 58.6742 131.173 58.6742L131.163 58.6647Z" fill="#B7B7B9"/>
<path fill-rule="evenodd" clip-rule="evenodd" d="M159.595 46.7964C159.595 46.7964 171.959 21.3269 198.162 29.4897C224.374 37.6525 227.832 55.2068 227.832 55.2068C227.832 55.2068 214.23 33.2044 196.18 30.9756C178.131 28.7468 172.692 34.6808 166.511 39.6337C160.329 44.5771 159.586 46.8059 159.586 46.8059L159.595 46.7964Z" fill="#B7B7B9"/>
<path fill-rule="evenodd" clip-rule="evenodd" d="M174.932 50.7596C174.932 50.7596 191.743 39.6346 212.021 55.9507C232.3 72.2667 229.328 85.8682 238.481 94.5168C247.625 103.175 252.083 99.4602 257.522 110.09C262.96 120.72 258.017 128.14 258.017 128.14C258.017 128.14 261.722 114.043 251.835 106.632C241.949 99.2126 238.977 102.184 234.281 92.5356C229.585 82.8965 220.68 62.8657 205.354 54.2076C190.029 45.5495 174.941 50.7501 174.941 50.7501L174.932 50.7596Z" fill="#B7B7B9"/>
<path fill-rule="evenodd" clip-rule="evenodd" d="M207.562 72.7607C207.562 72.7607 224.869 93.7726 230.803 108.365C236.737 122.957 247.367 120.728 254.291 126.414C261.216 132.101 261.463 141.492 261.463 141.492C261.463 141.492 262.949 128.138 251.824 122.452C240.699 116.766 235.26 114.784 231.793 105.145C228.336 95.5061 220.668 81.6569 212.506 74.4847C204.343 67.3125 202.371 66.5696 202.371 66.5696L207.562 72.7512V72.7607Z" fill="#B7B7B9"/>
<path fill-rule="evenodd" clip-rule="evenodd" d="M215.479 93.7729C215.479 93.7729 226.356 122.948 234.271 130.615C242.186 138.283 250.339 146.931 250.587 154.599C250.835 162.266 242.843 176.934 242.843 177.258L239.881 174.953C242.186 172.153 249.606 157.809 246.882 150.389C244.158 142.969 236.995 139.511 228.832 127.891C220.67 116.271 215.479 93.7729 215.479 93.7729Z" fill="#B7B7B9"/>
<path fill-rule="evenodd" clip-rule="evenodd" d="M225.612 160.037C232.784 172.4 243.662 177.344 244.157 189.459C244.652 201.575 223.145 208.004 223.145 208.004C223.145 208.004 246.138 206.271 246.386 188.469C246.633 170.667 230.317 170.419 224.879 151.379L221.174 132.586C221.174 135.311 220.783 151.684 225.622 160.028L225.612 160.037Z" fill="#B7B7B9"/>
<path fill-rule="evenodd" clip-rule="evenodd" d="M132.155 188.717C132.155 188.717 135.118 180.059 127.46 173.887C119.792 167.705 107.181 168.448 99.028 150.646C90.8652 132.844 102.486 112.566 102.486 112.566C102.486 112.566 94.818 141.493 104.467 154.599C114.106 167.705 132.155 171.41 133.641 178.335C135.127 185.26 132.155 188.717 132.155 188.717Z" fill="#B7B7B9"/>
<path fill-rule="evenodd" clip-rule="evenodd" d="M119.296 116.281C119.296 116.281 120.039 117.767 115.095 121.224C110.152 124.682 106.932 134.578 109.409 141.989C111.885 149.408 115.095 152.123 115.095 152.123C115.095 152.123 104.713 148.665 103.97 135.807C103.227 122.948 105.951 108.613 105.951 108.613L109.409 103.422L115.095 104.661L117.572 108.366L119.305 116.281H119.296Z" fill="#333333"/>
<path fill-rule="evenodd" clip-rule="evenodd" d="M121.849 191.109C121.849 191.109 126.792 184.184 121.515 177.259C116.239 170.335 110.305 170.011 110.305 170.011C110.305 170.011 128.44 171.325 127.449 180.565C126.459 189.794 121.849 191.118 121.849 191.118V191.109Z" fill="#333333"/>
<path fill-rule="evenodd" clip-rule="evenodd" d="M123.743 88.0859C123.743 88.0859 119.543 97.9727 116.323 109.098C113.113 120.223 105.693 122.699 103.217 131.595C100.74 140.492 104.703 149.397 104.703 149.397C104.703 149.397 95.559 136.291 101.979 126.404C108.408 116.518 111.618 116.27 113.351 107.86C115.085 99.4491 122.248 90.3052 122.248 90.3052L123.733 88.0764L123.743 88.0859Z" fill="#B7B7B9"/>
<path fill-rule="evenodd" clip-rule="evenodd" d="M231.07 190.936C231.07 190.936 217.344 182.392 217.125 155.161C216.906 139.264 218.554 108.956 216.763 99.0116C214.973 89.0771 214.973 89.0771 214.973 89.0771C214.973 89.0771 222.478 101.498 220.764 126.738C218.906 152.179 220.335 166.086 223.555 175.534C226.774 185.373 232.775 192.927 231.06 190.936H231.07Z" fill="#B7B7B9"/>
</svg>
