<svg width="348" height="321" viewBox="0 0 348 321" fill="none" xmlns="http://www.w3.org/2000/svg">
<path d="M69.0647 170.406C67.0381 166.885 65.5579 164.316 63.4978 160.736C61.7502 161.48 59.1054 162.604 56.1702 163.852C54.7927 162.647 53.3932 160.806 51.541 159.967C49.3257 158.964 44.8768 151.885 45.2302 162.044C45.3335 165.02 40.6994 168.48 37.7321 171.157C34.6071 173.977 30.8802 176.125 26.8016 177.856C28.3827 176.302 29.958 174.745 31.5455 173.199C33.0864 171.698 34.638 170.21 36.1849 168.715C35.6155 168.11 35.0448 167.506 34.4758 166.902C25.6565 175.458 16.8387 184.014 7.57566 193C5.49056 190.854 1.65377 188.359 0.207733 184.869C-0.664374 182.767 1.35728 178.05 3.51921 176.364C9.33725 171.828 16.2296 168.691 22.1362 164.252C29.6716 158.588 36.6591 152.191 43.0586 144.621C41.816 144.745 40.0839 144.384 39.4099 145.07C34.1564 150.41 29.3421 145.725 24.6563 144.306C20.3037 142.989 21.1375 139.265 21.4171 135.365C21.5674 133.255 17.9452 130.873 15.5896 128.105C13.1675 131.558 11.8365 133.456 10.5051 135.352C9.71127 135.121 8.9185 134.888 8.1247 134.657C8.96864 131.765 9.03082 128.214 10.8025 126.102C16.69 119.08 20.9341 111.675 24.0373 102.784C26.1157 96.829 33.7946 92.7776 39.1062 88.0292C46.2231 81.6667 53.4937 75.4773 60.6506 69.1584C62.2347 67.7594 63.372 65.6958 65.1402 64.6877C73.0092 60.2006 80.7462 55.2802 89.0846 51.8793C96.6714 48.784 104.972 47.4463 113.979 45.0636C111.454 49.4196 109.683 52.4711 107.957 55.4462C112.951 56.2101 116.286 57.0454 119.635 57.105C121.538 57.139 123.621 56.1755 125.349 55.1823C131.066 51.8997 136.66 48.3985 143.185 44.4476C144.01 48.3389 144.467 50.491 145.315 54.4922C151.104 48.904 156.913 44.5222 161.137 38.9369C167.772 30.167 174.049 21.3111 184.379 16.5132C186.67 15.4495 189.004 14.4738 190.084 14C194.873 21.577 199.097 28.2633 203.276 34.8756C209.16 34.4405 213.17 25.3188 220.29 32.8737C218.023 35.5057 215.657 38.2494 212.124 42.3496C216.936 39.117 220.265 36.88 223.962 34.3952C227.547 39.6036 231.145 37.7757 235.383 34.9174C237.556 33.4532 241.358 34.4448 243.573 33.01C247.376 30.5454 250.575 27.1129 253.915 23.967C260.23 18.0182 267.103 20.0538 269.455 28.4094C270.226 31.1484 271.952 33.6182 273.327 36.3871C271.122 38.441 269.054 40.3653 266.989 42.2907C267.346 42.89 267.703 43.488 268.06 44.0877C278.405 38.539 288.749 32.9893 299.095 27.4407C299.005 27.1979 298.916 26.9551 298.826 26.7123C295.733 29.7674 292.64 32.8225 289.547 35.8763C289.923 36.2946 290.298 36.7148 290.674 37.1331C294.734 33.5453 298.867 30.0388 302.837 26.353C309.48 20.1835 314.691 22.7248 318.959 30.1749C324.073 39.1018 319.39 42.3112 313.832 46.8899C316.397 45.4904 318.961 44.0895 321.526 42.69C321.352 43.2599 321.177 43.8299 321.002 44.4016C325.175 45.7573 329.35 47.1113 333.775 48.5495C333.757 54.0698 336.176 55.5209 348 57.0881C340.274 63.6704 332.642 70.3693 324.792 76.7993C318.248 82.1612 312.118 88.8603 304.573 91.9324C297.038 95.0005 290.693 99.0229 284.77 104.159C283.908 104.906 284.167 106.838 283.612 108.09C283.119 109.205 281.64 111.062 281.574 111.021C273.893 106.226 276.797 114.668 274.708 116.639C268.923 122.097 263.44 127.877 257.837 133.529C257.341 133.031 256.845 132.533 256.349 132.035C260.172 128.346 263.993 124.655 267.815 120.966C255.18 127.491 245.56 137.279 237.515 148.7C226.653 140.148 226.653 140.148 232.109 128.52C230.488 125.846 228.927 123.271 226.54 119.335C225.594 119.814 223.078 121.061 220.585 122.355C217.82 123.791 215.078 125.268 210.774 127.55C213.106 124.373 214.477 122.506 215.846 120.64C215.434 120.209 215.02 119.779 214.608 119.348C209.893 123.626 204.972 127.702 200.521 132.237C196.158 136.682 192.273 141.595 188.108 146.384C187.851 146.355 187.228 146.478 187.011 146.236C180.228 138.659 180.324 138.762 172.11 145.68C161.971 154.219 151.744 162.662 141.342 170.875C139.577 172.268 136.736 172.292 134.392 172.949C134.074 170.463 133.707 167.983 133.46 165.491C133.331 164.197 133.415 162.882 133.385 159.52C130.393 163.779 128.544 166.411 126.388 169.481C124.746 168.324 123.315 167.315 121.666 166.151C120.998 166.751 120.387 167.546 119.582 167.979C117.252 169.233 114.078 171.947 112.595 171.238C105.284 167.736 99.0381 167.881 93.1542 173.872C95.7055 171.253 98.2568 168.633 100.807 166.013C100.311 165.496 99.8157 164.977 99.3204 164.459C90.0943 172.097 81.1151 180 74.5165 190.395C63.5674 181.413 63.5674 181.413 69.0647 170.406Z" fill="#1B64FA"/>
<path d="M118.501 121.5L125.001 127.5L131 85L148.5 74.5L186.5 71L207 74.5L219 92L222.5 126L228.5 122L232 123.5C232.167 126.333 231.9 134.7 229.5 145.5C227.1 156.3 222.833 155.667 221 154C218.333 160.667 211.2 176.9 204 188.5C203 212.5 218 220.5 252 227C279.2 232.2 291 243.167 293.5 248L298 260.5L306.5 293C287.167 301.833 233.8 319.5 175 319.5C116.2 319.5 62.8333 301.833 43.5 293C46.1667 281.5 53 255.6 59 244C65 232.4 99.1671 223.5 115.501 220.5C119.167 219.833 128.4 217.3 136 212.5C145.499 210.5 145.5 194 146.5 188.5C140.5 184 132.5 166 131 162.5C129.5 159 129.5 159 126.501 157C116.901 153.8 115.167 133.333 115.501 123.5L118.501 121.5Z" fill="white"/>
<path fill-rule="evenodd" clip-rule="evenodd" d="M145.895 190.285C145.895 190.285 161.776 219.4 181.186 217.636C200.596 215.871 205.007 204.402 205.007 204.402L204.125 186.756C204.125 186.756 190.009 207.048 175.892 204.402C161.776 201.755 145.895 190.285 145.895 190.285Z" fill="#B7B7B9"/>
<path fill-rule="evenodd" clip-rule="evenodd" d="M139.72 38.3564C139.72 38.3564 137.25 38.5328 133.368 32.8862C129.486 27.2396 133.368 18.9462 133.368 18.9462C133.368 18.9462 133.015 23.1812 133.897 25.6516C134.78 28.122 135.662 28.1219 135.662 28.1219C135.662 28.1219 133.015 19.2991 137.603 11.535C142.191 3.77096 150.661 3.94744 150.661 3.94744C150.661 3.94744 144.838 6.59429 142.897 10.1234C140.956 13.6525 141.308 15.0642 141.308 15.0642C141.308 15.0642 145.896 6.94711 157.366 2.5357C168.836 -1.87571 184.187 5.53548 184.187 5.53548C184.187 5.53548 182.246 0.947659 188.069 0.0653772C193.892 -0.816905 201.48 7.47657 203.421 10.1234C205.362 12.7703 205.539 12.7703 205.539 12.7703L202.539 4.82972C202.539 4.82972 214.538 5.88842 217.714 18.2404C220.89 30.5923 212.42 35.1801 212.42 35.1801C212.42 35.1801 216.479 35.5331 218.773 30.2394C221.067 24.9457 219.832 22.4754 219.832 22.4754C219.832 22.4754 223.184 31.4746 219.302 36.4154C215.42 41.3561 209.774 44.7088 209.774 44.7088L141.838 44.8852L139.72 38.3564Z" fill="#333333"/>
<path fill-rule="evenodd" clip-rule="evenodd" d="M196.142 130.475C193.839 130.475 191.969 128.543 191.969 126.161C191.969 123.778 193.839 121.846 196.142 121.846C198.445 121.846 200.315 123.778 200.315 126.161C200.315 128.543 198.445 130.475 196.142 130.475Z" fill="#333333"/>
<path fill-rule="evenodd" clip-rule="evenodd" d="M169.516 160.747C169.516 160.747 166.631 159.847 166.746 161.646C166.86 163.455 169.631 162.679 171.845 163.843C174.06 165.008 176.618 165.131 178.392 164.487C180.165 163.843 180.941 163.199 182.494 162.935C184.047 162.679 185.159 161.902 184.488 160.87C183.826 159.838 182.159 159.838 179.274 161.514C176.389 163.19 174.28 162.414 172.727 161.77C171.175 161.126 169.507 160.738 169.507 160.738L169.516 160.747Z" fill="#333333"/>
<path d="M126.705 139.554C126.926 141.398 126.043 159.088 139.331 178.101C153.068 196.32 162.596 204.764 175.222 205.558C190.071 206.617 202.475 190.506 211.113 177.051C223.968 156.194 221.524 140.357 221.524 140.357" stroke="#333333" stroke-width="4" stroke-miterlimit="100"/>
<path d="M145.251 186.323C145.489 194.405 144.88 204.075 141.183 208.478C134.213 216.771 113.647 220.75 88.7758 227.05C63.8955 233.349 57.596 242.975 52.9552 254.25C48.3144 265.526 44 291.73 44 291.73C60.2998 300.653 109.735 318.5 177.076 318.5C244.418 318.5 291.103 301.542 306.029 293.063C306.029 293.063 301.714 266.859 297.074 255.583C292.433 244.308 286.133 234.682 261.253 228.383C236.381 222.083 215.815 218.104 208.845 209.811C204.796 204.985 204.443 193.859 204.866 185.407" stroke="#333333" stroke-width="4" stroke-miterlimit="100"/>
<path d="M58.2578 246.629C58.2578 246.629 107.074 291.749 177.657 293.513C233.241 295.278 293.104 247.617 293.104 247.617" stroke="#333333" stroke-width="4" stroke-miterlimit="100"/>
<path d="M174.357 248.332C174.357 248.332 152.794 242.359 140.857 231.745C128.919 221.131 128.584 217.152 128.584 217.152" stroke="#333333" stroke-width="2" stroke-miterlimit="100"/>
<path d="M173.025 248.332C173.025 248.332 194.588 242.359 206.526 231.745C218.463 221.131 218.798 217.152 218.798 217.152" stroke="#333333" stroke-width="2" stroke-miterlimit="100"/>
<path fill-rule="evenodd" clip-rule="evenodd" d="M183.434 113.42L182.508 117.082C182.508 117.082 188.816 113.879 201.115 114.946C213.414 116.014 216.035 117.84 216.035 117.84C216.035 117.84 213.732 114.029 210.803 112.811C207.882 111.594 193.73 110.985 188.807 111.135C183.884 111.285 183.425 113.42 183.425 113.42H183.434Z" fill="#333333"/>
<path fill-rule="evenodd" clip-rule="evenodd" d="M182.511 129.178C182.511 129.178 185.775 122.702 194.73 121.908C209.244 120.232 207.276 126.575 209.685 127.44C212.094 128.305 212.579 128.305 212.579 128.305L210.488 128.825L213.382 129.866C213.382 129.866 207.594 130.731 205.177 130.731C202.768 130.731 202.768 130.731 202.768 130.731C202.768 130.731 206.306 129.866 204.7 127.44C203.094 125.014 198.912 124.149 192.957 124.502C187.01 124.846 182.502 129.169 182.502 129.169L182.511 129.178Z" fill="#333333"/>
<path fill-rule="evenodd" clip-rule="evenodd" d="M153.88 130.475C156.183 130.475 158.053 128.543 158.053 126.161C158.053 123.778 156.183 121.846 153.88 121.846C151.577 121.846 149.707 123.778 149.707 126.161C149.707 128.543 151.577 130.475 153.88 130.475Z" fill="#333333"/>
<path fill-rule="evenodd" clip-rule="evenodd" d="M166.585 113.42L167.511 117.082C167.511 117.082 161.203 113.879 148.904 114.946C136.605 116.014 133.984 117.84 133.984 117.84C133.984 117.84 136.287 114.029 139.216 112.811C142.137 111.594 156.288 110.985 161.212 111.135C166.135 111.285 166.594 113.42 166.594 113.42H166.585Z" fill="#333333"/>
<path fill-rule="evenodd" clip-rule="evenodd" d="M167.512 129.178C167.512 129.178 164.247 122.702 155.292 121.908C140.779 120.232 142.746 126.575 140.337 127.44C137.929 128.305 137.444 128.305 137.444 128.305L139.535 128.825L136.641 129.866C136.641 129.866 142.428 130.731 144.846 130.731C147.254 130.731 147.254 130.731 147.254 130.731C147.254 130.731 143.717 129.866 145.322 127.44C146.928 125.014 151.11 124.149 157.065 124.502C163.012 124.846 167.521 129.169 167.521 129.169L167.512 129.178Z" fill="#333333"/>
<path fill-rule="evenodd" clip-rule="evenodd" d="M160.119 174.846C160.119 174.846 163.207 177.387 166.295 177.167C169.383 176.946 170.371 176.064 172.586 176.611C174.791 177.167 175.674 177.387 175.674 177.387V174.184C175.674 174.184 171.368 173.187 168.836 174.52C166.295 175.843 163.322 175.402 161.778 174.961C160.234 174.52 158.91 173.637 158.91 173.637L160.119 174.855V174.846Z" fill="#333333"/>
<path fill-rule="evenodd" clip-rule="evenodd" d="M190.998 174.846C190.998 174.846 187.91 177.387 184.822 177.167C181.734 176.946 180.746 176.064 178.531 176.611C176.326 177.167 175.443 177.387 175.443 177.387V174.184C175.443 174.184 179.749 173.187 182.281 174.52C184.822 175.843 187.795 175.402 189.339 174.961C190.883 174.52 192.207 173.637 192.207 173.637L190.989 174.855L190.998 174.846Z" fill="#333333"/>
<path fill-rule="evenodd" clip-rule="evenodd" d="M167.731 181.788C167.731 181.788 170.272 183.773 175.01 184.1C179.757 184.435 183.171 182.009 183.171 182.009C183.171 182.009 180.525 185.873 174.896 185.538C169.267 185.203 167.723 181.788 167.723 181.788H167.731Z" fill="#333333"/>
<path d="M123.997 124.369C123.997 124.369 114.557 115.732 116.083 128.031C117.618 140.339 118.121 148.456 121.438 152.382C124.756 156.308 127.817 156.043 127.817 156.043" stroke="#333333" stroke-width="4" stroke-miterlimit="100"/>
<path d="M223.377 124.369C223.377 124.369 232.817 115.732 231.291 128.031C229.756 140.339 229.253 148.456 225.936 152.382C222.618 156.308 219.557 156.043 219.557 156.043" stroke="#333333" stroke-width="4" stroke-miterlimit="100"/>
<path fill-rule="evenodd" clip-rule="evenodd" d="M118.985 121.652C118.985 121.652 115.164 112.256 111.335 98.9425C107.515 85.6289 113.25 73.824 116.779 70.2948C120.749 66.7657 120.749 50.4435 129.131 45.1498C137.513 39.8561 138.395 36.8123 151.629 38.8944C164.863 40.9855 174.568 33.1507 179.862 34.9771C185.156 36.8034 204.275 31.3245 213.68 39.6797C223.094 48.0349 231.034 58.2164 231.034 63.6954C231.034 69.1744 239.857 80.1411 238.684 91.8931C237.51 103.645 232.508 111.471 228.688 116.429C224.867 121.388 221.779 136.166 222.07 130.29C220.015 129.999 221.779 121.908 220.015 113.968C219.132 109.115 220.606 93.2342 210.018 81.7645C199.722 71.1771 186.197 72.9417 176.492 74.4151C166.787 75.8885 158.846 70.886 147.376 77.3531C135.024 83.5291 129.44 97.6455 128.557 109.406C127.675 121.167 127.675 139.113 122.231 126.611L118.993 121.652H118.985Z" fill="#333333"/>
<path fill-rule="evenodd" clip-rule="evenodd" d="M185.068 41.5325C185.068 41.5325 195.303 48.9436 194.421 57.2371C193.538 65.5305 195.126 66.7658 194.068 68.3539C193.009 69.942 192.127 72.0594 192.127 72.0594C192.127 72.0594 200.949 67.2952 199.891 60.4134C198.832 53.5316 200.067 49.473 197.597 46.1203C195.126 42.7677 192.127 41.1796 192.127 41.1796C192.127 41.1796 195.479 44.7087 196.714 49.826C197.95 54.9432 197.42 58.8252 197.42 58.8252C197.42 58.8252 198.479 51.9434 192.127 46.4733C185.774 41.0031 185.068 41.5325 185.068 41.5325Z" fill="#B7B7B9"/>
<path fill-rule="evenodd" clip-rule="evenodd" d="M202.715 70.6481C202.715 70.6481 211.008 64.2956 209.243 51.5908C207.479 38.8859 199.715 37.1213 199.715 37.1213C199.715 37.1213 208.008 44.3561 207.479 55.1199C206.95 65.8838 202.715 70.6481 202.715 70.6481Z" fill="#B7B7B9"/>
<path fill-rule="evenodd" clip-rule="evenodd" d="M206.951 72.4124C206.951 72.4124 208.539 64.6483 212.421 61.1192C216.303 57.59 211.363 44.7087 211.363 44.7087C211.363 44.7087 219.656 54.4139 218.774 61.2957C217.891 68.1775 215.068 66.4129 216.127 70.8243C217.186 75.2357 211.715 77.7061 211.715 77.7061C211.715 77.7061 215.068 73.824 214.539 70.8243C214.009 67.8245 217.891 61.4721 217.009 57.7666C216.127 54.061 215.068 51.9434 215.068 51.9434C215.068 51.9434 217.539 60.2369 214.009 63.766C210.48 67.2951 208.539 70.6479 208.539 70.6479L206.951 72.4124Z" fill="#B7B7B9"/>
<path fill-rule="evenodd" clip-rule="evenodd" d="M219.299 88.9994C220.358 88.9994 230.769 82.8234 229.71 77.3533C228.651 71.8831 231.298 68.8834 229.004 64.1191C226.71 59.3547 226.005 58.296 226.005 58.296C226.005 58.296 229.887 65.5307 228.651 70.648C227.416 75.7652 228.651 80.1766 224.946 83.7057C221.24 87.2348 218.241 88.9994 219.299 88.9994Z" fill="#B7B7B9"/>
<path fill-rule="evenodd" clip-rule="evenodd" d="M230.418 85.8241C230.418 85.8241 229.006 88.8238 225.654 90.7648C222.301 92.7059 220.713 93.2353 220.713 93.2353C220.713 93.2353 225.301 94.8234 227.948 94.9998C230.594 95.1763 235.712 90.0591 235.712 90.0591C235.712 90.0591 230.418 93.5882 228.124 93.2353C225.83 92.8824 225.83 92.8823 225.83 92.8823C225.83 92.8823 232.888 89.1767 232.888 85.4711C232.888 81.7656 232.183 79.2952 232.183 79.2952L230.418 85.8241Z" fill="#B7B7B9"/>
<path fill-rule="evenodd" clip-rule="evenodd" d="M179.244 38.71C179.244 38.71 185.95 44.7095 186.479 52.6501C187.008 60.5906 188.773 62.7081 188.067 65.3549C187.361 68.0018 183.126 70.4722 180.127 70.6486C177.127 70.8251 173.068 71.3544 173.068 71.3544C173.068 71.3544 183.832 68.8841 184.714 64.4727C185.597 60.0613 182.597 55.8263 183.126 52.1207C183.656 48.4151 182.95 45.9447 181.009 42.945C179.068 39.9452 179.244 38.71 179.244 38.71Z" fill="#B7B7B9"/>
<path fill-rule="evenodd" clip-rule="evenodd" d="M159.833 68.5306C159.833 68.5306 158.775 61.1194 150.481 57.5903C142.188 54.0611 140.953 58.2961 134.777 54.9434C128.601 51.5907 128.248 47.7087 128.248 47.7087C128.248 47.7087 128.601 55.8257 134.247 58.4725C139.894 61.1194 144.658 57.2373 150.481 60.2371C156.304 63.2369 156.834 68.5306 156.834 68.5306C156.834 68.5306 146.07 71.001 139.012 67.4719C131.953 63.9428 125.248 57.9432 125.248 57.9432C125.248 57.9432 128.954 63.4133 133.894 67.2954C138.835 71.1774 145.893 72.4126 151.893 71.1774C157.892 69.9422 159.833 68.5306 159.833 68.5306Z" fill="#B7B7B9"/>
<path fill-rule="evenodd" clip-rule="evenodd" d="M169.366 70.2958C169.366 70.2958 172.542 67.4726 164.955 57.4145C157.367 47.3565 145.897 51.9443 143.074 51.062C140.251 50.1798 139.016 49.2975 139.016 49.2975C139.016 49.2975 140.78 51.9443 144.309 52.8266C147.838 53.7089 156.485 50.7092 162.308 57.9439C168.131 65.1786 169.366 70.2958 169.366 70.2958Z" fill="#B7B7B9"/>
<path fill-rule="evenodd" clip-rule="evenodd" d="M137.073 80.8834C137.073 80.8834 136.191 78.2365 129.839 80.5304C123.486 82.8244 121.545 83.7067 118.898 81.2363C116.251 78.7659 115.369 77.5306 115.369 77.5306C115.369 77.5306 116.251 82.295 119.428 84.2361C122.604 86.1771 125.78 84.5889 130.897 82.8243C136.015 81.0598 137.073 80.8834 137.073 80.8834Z" fill="#B7B7B9"/>
<path fill-rule="evenodd" clip-rule="evenodd" d="M195.835 32.5326C195.835 32.5326 196.188 23.8863 184.718 22.2982C173.248 20.7101 163.543 23.5334 158.073 17.181C152.603 10.8286 160.014 3.77026 160.014 3.77026C160.014 3.77026 151.721 8.35811 154.72 16.6516C157.72 24.945 165.308 24.0627 175.189 23.7098C185.071 23.3569 188.953 24.7686 191.953 27.9448C194.952 31.121 195.835 32.5326 195.835 32.5326Z" fill="#B7B7B9"/>
<path fill-rule="evenodd" clip-rule="evenodd" d="M198.304 33.0613C198.304 33.0613 199.009 29.5322 194.951 19.4742C190.892 9.41614 178.187 4.12244 168.482 7.1222C158.777 10.122 165.13 16.1214 169.894 16.6508C174.658 17.1802 177.835 16.4744 177.835 16.4744C177.835 16.4744 165.13 14.7098 166.541 10.6513C167.953 6.59283 182.246 7.12222 188.775 14.5334C195.304 21.9446 198.127 30.238 198.127 30.238L198.304 33.0613Z" fill="#B7B7B9"/>
<path fill-rule="evenodd" clip-rule="evenodd" d="M189.656 6.77039C189.656 6.77039 201.126 8.35849 203.773 16.4755C206.42 24.5925 200.244 31.6507 200.244 31.6507C200.244 31.6507 205.008 21.7692 200.95 16.1226C196.891 10.4759 189.656 6.77039 189.656 6.77039Z" fill="#B7B7B9"/>
<path fill-rule="evenodd" clip-rule="evenodd" d="M207.479 33.5915C207.479 33.5915 215.596 29.7095 215.419 22.4748C215.243 15.2401 213.655 13.299 210.126 10.8286C206.596 8.35822 205.361 8.18176 205.361 8.18176C205.361 8.18176 208.185 13.1226 207.832 18.5927C207.479 24.0629 205.361 26.0039 205.361 26.0039C205.361 26.0039 208.89 22.8277 209.243 18.2398C209.596 13.6519 208.714 11.8874 208.714 11.8874C208.714 11.8874 215.066 15.593 214.008 22.6512C212.949 29.7095 207.479 33.5915 207.479 33.5915Z" fill="#B7B7B9"/>
<path fill-rule="evenodd" clip-rule="evenodd" d="M188.951 31.827C188.951 31.827 188.775 27.7685 183.128 26.1804C177.481 24.5923 170.6 25.651 170.6 25.651C170.6 25.651 178.011 25.8275 181.716 27.9449C185.422 30.0624 188.951 31.827 188.951 31.827Z" fill="#B7B7B9"/>
<path fill-rule="evenodd" clip-rule="evenodd" d="M174.657 31.651C174.657 31.651 171.834 29.8865 161.599 28.2984C151.365 26.7103 149.248 23.887 147.836 18.064C146.424 12.2409 151.894 7.12366 151.894 7.12366C151.894 7.12366 143.248 11.3585 144.66 20.1814C146.071 29.0042 154.894 30.2394 162.482 30.5923C170.069 30.9453 174.657 31.651 174.657 31.651Z" fill="#B7B7B9"/>
<path fill-rule="evenodd" clip-rule="evenodd" d="M161.423 35.5319C161.423 35.5319 158.599 37.2964 149.953 33.7673C141.307 30.2382 140.424 21.4153 140.424 20.1801C140.424 18.9449 141.307 15.4159 141.307 15.4159C141.307 15.4159 138.307 20.0037 137.777 26.5326C137.248 33.0615 142.012 36.0612 142.012 36.0612C142.012 36.0612 140.071 33.0615 140.071 29.5324C140.071 26.0033 140.071 26.0033 140.071 26.0033C140.071 26.0033 139.013 31.297 147.306 34.8261C155.6 38.3552 161.423 35.5319 161.423 35.5319Z" fill="#B7B7B9"/>
<path fill-rule="evenodd" clip-rule="evenodd" d="M216.035 82.6466C216.035 82.6466 223.093 98.5277 219.123 109.997C215.153 121.467 212.065 126.32 217.358 134.701C222.652 143.083 225.299 151.465 224.417 158.964C223.534 166.463 219.123 172.198 219.123 172.198C219.123 172.198 230.593 164.258 225.299 146.612C220.005 128.966 217.358 134.26 217.358 122.79C217.358 111.321 225.74 108.674 223.534 96.7631C221.329 84.8523 216.035 82.6466 216.035 82.6466Z" fill="#333333"/>
<path fill-rule="evenodd" clip-rule="evenodd" d="M130.896 92.7928C130.896 92.7928 124.058 115.953 128.911 123.673C133.763 131.393 117.882 139.554 120.75 146.171C123.617 152.788 132.881 154.111 134.866 161.17C136.851 168.228 128.249 175.727 128.249 175.727C128.249 175.727 139.057 168.669 136.851 160.949C134.645 153.229 123.396 149.038 123.396 144.847C123.396 140.657 136.851 134.26 133.322 126.099C129.793 117.938 130.013 111.1 129.793 104.263C129.572 97.4248 130.896 92.7928 130.896 92.7928Z" fill="#333333"/>
<path fill-rule="evenodd" clip-rule="evenodd" d="M174.127 256.447C171.692 256.447 169.725 254.48 169.725 252.045C169.725 249.61 171.692 247.642 174.127 247.642C176.562 247.642 178.53 249.61 178.53 252.045C178.53 254.48 176.562 256.447 174.127 256.447Z" fill="#333333"/>
</svg>
