<svg width="372" height="313" viewBox="0 0 372 313" fill="none" xmlns="http://www.w3.org/2000/svg">
<path d="M31.4067 122.123C23.7744 124.913 16.1435 127.704 8.51122 130.495C8.22881 130.092 7.9464 129.69 7.66399 129.287C16.0023 124.546 24.3406 119.806 32.6789 115.064C32.6228 114.904 32.5651 114.743 32.5075 114.583C25.6749 117.064 18.8437 119.544 12.0125 122.025C11.6999 121.417 11.3886 120.809 11.076 120.201C12.0125 119.199 12.9491 118.197 13.8857 117.196C13.6782 116.951 13.4707 116.707 13.2632 116.461C8.84262 118.68 4.42059 120.899 0 123.118C10.2403 117.061 18.7717 110.253 17.753 100.597C20.7788 96.7856 22.2874 93.3205 25.1691 91.6706C28.4601 89.7876 33.1112 89.8202 36.9252 88.4863C44.0416 85.9977 50.9189 82.9901 58.0397 80.5153C59.5771 79.9813 61.7283 80.7849 65.4415 81.1572C80.6354 75.2499 97.8005 68.5752 116.141 61.443C112.329 60.9278 109.653 60.5667 105.57 60.0138C110.777 57.6958 114.734 55.9344 118.69 54.1742C101.75 57.1655 85.5301 61.3954 72.398 71.8223C70.0119 73.7166 66.8074 75.1609 63.6922 75.9482C59.2875 77.0627 57.7213 74.4337 57.7645 71.0613C57.9489 56.936 66.4213 49.5656 81.2752 48.0311C83.1627 47.8355 85.0531 47.6312 86.922 47.3366C103.38 44.7389 118.605 39.0547 133.707 33.096C143.411 29.266 153.038 25.2868 163.259 21.1471C160.513 20.2056 158.353 19.4659 156.192 18.725C156.172 18.2975 156.151 17.87 156.13 17.4412C160.955 16.9573 165.886 16.8495 170.572 15.8628C173.926 15.157 176.816 12.8828 180.156 12.0015C186.993 10.1974 194.006 8.89737 200.925 7.32024C211.543 4.89937 222.077 2.15631 232.791 0.13161C235.824 -0.441324 239.363 1.01044 242.67 1.53323C241.669 4.33521 240.666 7.13845 240.023 8.93749C240.778 11.1026 240.952 13.2815 242.223 14.7345C243.285 15.9481 245.761 17.1128 247.382 16.9097C253.249 16.1775 259.02 14.8599 264.826 13.7642C264.976 14.2945 265.125 14.826 265.274 15.3564C256.572 17.1015 247.869 18.8466 239.166 20.5917C239.255 21.0481 239.346 21.5032 239.435 21.9595C250.773 20.1642 262.112 18.3677 273.45 16.5724C273.675 17.203 273.899 17.8324 274.124 18.463C267.506 20.5453 260.888 22.6277 252.26 25.3419C270.045 22.8722 285.766 20.6895 299.364 18.8015C308.457 25.5325 315.754 30.9321 323.049 36.333C322.962 36.9498 322.878 37.5666 322.791 38.1847C299.994 41.9733 277.196 45.762 254.399 49.5493C254.234 50.205 254.069 50.8607 253.904 51.5176C254.978 52.4115 255.923 53.5072 257.18 54.1102C257.782 54.3998 259.02 53.8507 259.894 53.5273C273.384 48.5414 287.591 50.1035 301.136 51.9175C306.423 52.6259 310.646 59.5236 315.163 63.7561C315.342 63.9241 313.734 66.3512 312.636 66.5856C308.992 67.3654 305.212 67.7303 301.463 68.0662C287.052 69.355 272.626 70.531 258.223 71.8875C257.082 71.9953 256.074 73.1637 255.574 75.2862C264.248 74.1065 272.922 72.9255 281.597 71.7458C281.731 72.1758 281.865 72.6046 281.999 73.0346C279.798 73.4771 277.618 74.0175 275.396 74.3485C260.112 76.6252 244.794 78.7426 229.536 81.1484C220.819 82.5237 212.191 84.329 203.534 85.9864C202.379 86.2083 201.173 86.5393 200.189 87.0884C178.318 99.298 151.382 99.6804 129.302 111.379C128.967 110.664 128.632 109.948 128.297 109.233C131.01 108.199 133.727 107.175 136.435 106.129C139.267 105.035 142.089 103.918 144.488 101.754C135.877 104.526 127.32 107.432 118.643 110.037C105.359 114.025 95.0067 122.202 83.18 128.247C76.2221 131.802 67.9486 133.411 59.7875 134.928C67.3477 131.802 74.9094 128.677 82.4697 125.551C68.6906 126.375 57.825 133.371 45.6439 138.185C45.6439 132.749 45.6439 127.396 45.6439 120.736C31.0436 127.263 17.3654 133.376 3.68863 139.49C3.6065 139.334 3.52293 139.179 3.4408 139.024C12.7186 133.349 21.9978 127.675 31.2755 122.001C40.1095 118.34 48.9435 114.679 57.7775 111.019C57.3322 110.322 56.887 109.626 56.4418 108.929C48.0963 113.324 39.7507 117.723 31.4067 122.123ZM225.828 50.6563C226.012 51.0462 226.198 51.4361 226.382 51.826C242.496 47.7553 258.609 43.6846 274.722 39.6126C274.535 39.061 274.346 38.5094 274.157 37.959C258.048 42.1915 241.938 46.4239 225.828 50.6563ZM237.343 32.7725C237.386 33.4846 237.428 34.198 237.471 34.9101C248.998 32.4077 260.524 29.9054 272.051 27.403C271.856 26.7197 271.663 26.0352 271.469 25.352C260.094 27.8255 248.719 30.299 237.343 32.7725Z" fill="#1B64FA"/>
<path d="M318.834 92.534C335.768 90.389 352.702 88.2454 369.634 86.1005C369.749 86.793 369.863 87.4856 369.978 88.1794C352.471 96.3275 332.473 95.5684 313.946 100.412C324.357 99.4435 334.768 98.4749 345.18 97.5048C345.22 97.7948 345.259 98.0847 345.298 98.3746C341.804 98.9399 338.251 99.3043 334.824 100.101C287.21 111.192 239.614 122.342 192.013 133.473C190.883 133.738 189.74 133.954 188.025 134.314C203.458 124.577 221.282 122.129 238.177 116.711C234.863 117.097 231.468 117.199 228.248 117.919C214.19 121.06 200.112 124.163 186.178 127.703C174.818 130.589 163.663 134.107 152.394 137.281C147.879 138.552 143.303 139.654 138.756 140.831C138.291 140.951 137.683 140.938 137.377 141.195C126.547 150.311 111.657 148.879 98.8935 152.9C79.425 159.035 59.363 163.916 42.0808 174.86C35.3015 179.151 26.4257 180.927 17.4203 184.248C18.8808 173.689 18.5029 164.456 24.5277 158.887C24.9509 155.534 24.4649 153.36 25.4337 152.615C38.9616 142.218 56.1735 138.879 72.5919 134.035C72.9539 133.928 73.4685 134.224 74.9655 134.589C66.1158 137.601 58.0829 140.335 50.0485 143.069C50.1856 143.397 50.3227 143.724 50.4598 144.052C62.2875 140.507 74.1151 136.961 86.2862 133.313C86.0405 134.947 85.8123 136.467 85.6297 137.682C110.101 130.259 134.307 122.915 159.317 115.329C157.319 114.766 156.066 114.411 153.908 113.802C159.963 111.791 165.278 110.027 170.593 108.262C170.517 108.014 170.439 107.768 170.362 107.52C161.45 109.751 152.536 111.98 143.624 114.211C143.476 113.763 143.329 113.316 143.181 112.868C155.65 109.388 168.117 105.907 180.586 102.428C180.483 102.118 180.38 101.808 180.279 101.498C177.83 101.622 175.381 101.745 172.932 101.869C172.806 101.389 172.68 100.908 172.556 100.426C178.682 98.988 184.735 97.1207 190.958 96.2315C197.066 95.3593 203.348 95.4824 209.661 93.7518C208.537 93.1882 207.412 92.6247 206.901 92.3687C229.707 88.1795 252.814 83.5233 276.103 79.774C299.401 76.023 322.656 71.499 346.521 71.7458C339.182 72.8198 331.844 73.895 324.507 74.9702C324.531 75.4081 324.556 75.846 324.579 76.284C338.921 75.5596 353.263 74.8353 367.607 74.111C367.767 74.9837 367.926 75.8564 368.086 76.7291C362.955 77.9659 357.824 79.204 353.236 80.3102C358.775 80.0305 364.933 79.7194 371.091 79.4084C371.394 79.8159 371.698 80.2234 372 80.6309C368.887 82.1105 365.934 84.4 362.634 84.9252C350.498 86.8555 338.241 88.1616 326.045 89.7955C323.52 90.1331 321.061 90.8701 318.572 91.4223C318.657 91.793 318.746 92.1635 318.834 92.534ZM97.3436 145.336C86.2885 147.069 75.527 149.525 65.6963 154.276C65.9497 154.894 66.2046 155.511 66.458 156.129C76.7124 152.49 86.9668 148.852 97.2242 145.216C105.955 142.773 114.685 140.33 123.415 137.888C123.081 137.131 122.745 136.375 122.41 135.618C114.054 138.857 105.698 142.097 97.3436 145.336Z" fill="#1B64FA"/>
<path d="M86.5 239L150 203C150.667 199.833 151.4 192.9 149 190.5C144 187.5 139 167 139 164C139 161 139 161 136.5 161C130 161 126 133 125.5 127.5C125.1 123.1 130 121.667 132.5 121.5V114L139 84L158.5 65L218.5 69L239.5 89L243.5 116.5L247 122.5L250.5 127.5C249.667 133 247.5 145.6 245.5 152C243.5 158.4 238.333 160.667 236 161C235.5 161.5 234.5 163.4 234.5 167C232.9 176.6 225.5 189 222.5 193.5V203C237.833 212 272 231.8 286 239C300 246.2 306.833 254 308.5 257L322.5 292C309.667 298.167 264.7 310.5 187.5 310.5C110.3 310.5 64.3333 298.167 51 292C52.6667 286.167 57 271.9 61 261.5C65 251.1 79.6667 242.167 86.5 239Z" fill="white"/>
<path fill-rule="evenodd" clip-rule="evenodd" d="M152.139 197.472C152.139 197.472 153.239 212.111 178.481 224.913C203.731 237.723 224.582 217.593 224.582 212.292C224.582 206.983 223.852 193.812 223.852 193.812C223.852 193.812 205.191 213.933 200.982 215.033C196.772 216.133 179.572 217.413 172.621 213.753C165.671 210.093 151.031 190.702 151.031 190.702L152.131 197.472H152.139Z" fill="#B7B7B9"/>
<path d="M128.727 116.789C128.727 116.789 143.547 111.414 161.477 112.103C179.407 112.801 184.897 118.176 184.897 118.176L180.326 135.523C180.326 135.523 179.046 141.596 170.996 143.672C162.946 145.756 145.016 145.576 140.806 142.975C136.596 140.373 128.735 123.551 128.735 123.551V116.789" stroke="#333333" stroke-width="4" stroke-miterlimit="100"/>
<path fill-rule="evenodd" clip-rule="evenodd" d="M132.745 128.419C132.745 128.419 131.284 124.086 132.564 120.442C133.844 116.799 136.224 114.723 136.224 114.723L129.085 116.627L128.904 124.258L132.745 130.848V128.419Z" fill="#333333"/>
<path d="M248.379 116.789C248.379 116.789 233.559 111.414 215.629 112.103C197.699 112.801 192.209 118.176 192.209 118.176L196.78 135.523C196.78 135.523 198.06 141.596 206.11 143.672C214.16 145.756 232.09 145.576 236.3 142.975C240.51 140.373 248.371 123.551 248.371 123.551V116.789" stroke="#333333" stroke-width="4" stroke-miterlimit="100"/>
<path fill-rule="evenodd" clip-rule="evenodd" d="M244.35 128.419C244.35 128.419 245.811 124.086 244.531 120.442C243.251 116.799 240.871 114.723 240.871 114.723L248.01 116.627L248.191 124.258L244.35 130.848V128.419Z" fill="#333333"/>
<path d="M243.317 115.509C239.329 147.315 235.792 172.114 231.747 180.443C225.305 193.622 211.551 208.196 202.779 214.26C200.49 215.819 193.277 215.647 190.232 215.647L185.579 215.524C181.829 215.737 174.879 215.688 171.055 212.873C165.581 208.885 146.953 187.894 144.057 180.262C141.094 172.631 133.307 115.5 133.307 116.969" stroke="#333333" stroke-width="4" stroke-miterlimit="100"/>
<path fill-rule="evenodd" clip-rule="evenodd" d="M181.049 112.801C181.049 112.801 178.669 108.116 168.239 105.514C157.809 102.913 153.6 104.472 153.6 104.472L156.16 105.514C156.16 105.514 149.94 107.599 149.021 107.944C148.11 108.288 152.311 105.515 148.11 108.288C143.9 111.062 141.34 113.491 141.34 113.491C141.34 113.491 153.961 107.591 165.86 108.977C177.75 110.364 181.23 115.05 181.23 115.05L181.049 112.793V112.801Z" fill="#333333"/>
<path fill-rule="evenodd" clip-rule="evenodd" d="M175.377 125.66C175.377 125.66 172.801 118.652 164.463 118.505C156.126 118.357 152.688 124.052 152.688 124.052C152.688 124.052 154.895 126.095 158.202 126.391C161.509 126.686 161.509 126.686 161.509 126.686C161.509 126.686 158.317 125.078 156.848 124.2C155.379 123.322 155.748 123.617 155.748 123.617C155.748 123.617 159.343 119.12 165.932 120.786C172.661 122.312 175.369 125.66 175.369 125.66H175.377Z" fill="#333333"/>
<path fill-rule="evenodd" clip-rule="evenodd" d="M176.18 159.627C176.18 159.627 182.54 165.551 186.783 166.274C191.025 166.996 198.616 159.742 198.616 158.773C198.616 157.805 197.385 157.198 195.153 159.865C192.921 162.523 189.146 164.361 186.897 163.992C184.649 163.623 182.089 162.523 179.52 159.742C176.952 156.96 176.845 157.444 176.172 157.928C175.499 158.412 176.172 159.619 176.172 159.619L176.18 159.627Z" fill="#333333"/>
<path fill-rule="evenodd" clip-rule="evenodd" d="M188.325 178.777C188.325 178.777 186.126 179.474 181.735 177.948C177.345 176.422 175.589 176.143 172.364 176.84C169.147 177.538 166.653 176.561 166.653 176.561C166.653 176.561 163.871 178.088 167.235 179.475C170.6 180.861 174.407 177.809 176.894 178.367C179.38 178.925 184.944 181.14 188.161 181.419C191.377 181.698 194.012 178.925 196.941 178.785C199.871 178.646 203.235 179.483 205.287 179.343C207.338 179.204 209.529 177.398 209.242 176.43C208.947 175.462 207.921 174.764 205.582 176.43C203.243 178.096 201.487 177.259 198.115 176.709C194.75 176.151 191.673 178.235 191.673 178.235L188.308 178.793L188.325 178.777Z" fill="#333333"/>
<path fill-rule="evenodd" clip-rule="evenodd" d="M175.304 185.302C175.304 185.302 179.111 187.796 186.283 188.075C193.455 188.354 196.385 187.107 198.576 185.581C200.775 184.054 200.775 184.055 200.775 184.055C200.775 184.055 197.993 189.192 190.969 190.578C183.945 191.965 179.407 189.331 176.92 187.526C174.434 185.72 172.965 183.644 172.965 183.644L175.304 185.31V185.302Z" fill="#333333"/>
<path fill-rule="evenodd" clip-rule="evenodd" d="M132.813 113.155C132.813 113.155 131.837 93.0335 133.544 87.716C135.25 82.3985 138.18 80.0843 138.18 80.0843C138.18 80.0843 138.426 71.2956 141.84 65.5186C145.254 59.7333 152.327 55.1134 154.773 55.5729C157.21 56.0325 158.433 54.6455 158.433 54.6455C158.433 54.6455 163.799 48.4008 176.24 45.8569C188.68 43.313 191.856 47.2436 191.856 47.2436C191.856 47.2436 205.273 43.5428 219.912 51.4042C234.552 59.2656 237.966 64.8128 243.086 74.5288C248.207 84.2448 245.77 83.0879 245.77 83.0879H242.84C242.84 83.0879 246.746 85.8614 247.961 98.1212C249.183 110.381 246.254 117.775 246.254 117.775L239.18 113.844C239.18 113.844 240.403 107.829 238.45 103.209C236.497 98.5809 235.036 96.037 236.743 95.8073C238.45 95.5775 240.157 94.1906 233.813 86.0912C227.47 78 221.619 72.4445 213.569 71.2874C205.035 70.3602 198.199 75.2182 183.806 71.747C172.826 68.7436 159.409 70.3601 149.652 83.539C139.895 96.718 144.769 102.273 142.332 105.507C139.895 108.748 138.672 114.525 138.672 114.525L132.575 116.609L132.821 113.138L132.813 113.155Z" fill="#333333"/>
<path fill-rule="evenodd" clip-rule="evenodd" d="M165.243 125.826C163.322 125.826 161.771 124.292 161.771 122.404C161.771 120.517 163.322 118.982 165.243 118.982C167.163 118.982 168.714 120.517 168.714 122.404C168.714 124.292 167.163 125.826 165.243 125.826Z" fill="#333333"/>
<path fill-rule="evenodd" clip-rule="evenodd" d="M196.05 112.801C196.05 112.801 198.429 108.116 208.859 105.514C219.289 102.913 223.499 104.472 223.499 104.472L220.939 105.514C220.939 105.514 227.159 107.599 228.078 107.944C228.989 108.288 224.787 105.515 228.989 108.288C233.198 111.062 235.759 113.491 235.759 113.491C235.759 113.491 223.138 107.591 211.239 108.977C199.348 110.364 195.869 115.05 195.869 115.05L196.05 112.793V112.801Z" fill="#333333"/>
<path fill-rule="evenodd" clip-rule="evenodd" d="M201.717 125.66C201.717 125.66 204.293 118.652 212.631 118.505C220.968 118.357 224.407 124.052 224.407 124.052C224.407 124.052 222.199 126.095 218.892 126.391C215.585 126.686 215.585 126.686 215.585 126.686C215.585 126.686 218.777 125.078 220.246 124.2C221.715 123.322 221.346 123.617 221.346 123.617C221.346 123.617 217.751 119.12 211.162 120.786C204.433 122.312 201.725 125.66 201.725 125.66H201.717Z" fill="#333333"/>
<path fill-rule="evenodd" clip-rule="evenodd" d="M211.856 125.826C213.776 125.826 215.327 124.292 215.327 122.404C215.327 120.517 213.776 118.982 211.856 118.982C209.936 118.982 208.385 120.517 208.385 122.404C208.385 124.292 209.936 125.826 211.856 125.826Z" fill="#333333"/>
<path d="M131.264 123.7C129.269 123.389 127.243 123.446 126.488 125.005C125.084 127.894 126.086 130.93 128.112 141.434C130.139 151.937 132.462 157.444 135.014 159.241C137.566 161.046 139.79 161.218 139.79 161.218" stroke="#333333" stroke-width="4" stroke-miterlimit="100"/>
<path d="M245.565 123.7C247.559 123.389 249.586 123.446 250.341 125.005C251.744 127.894 250.743 130.93 248.716 141.434C246.689 151.937 244.367 157.444 241.815 159.241C239.263 161.046 237.039 161.218 237.039 161.218" stroke="#333333" stroke-width="4" stroke-miterlimit="100"/>
<path d="M150.34 189.866L151.407 209.036" stroke="#333333" stroke-width="4" stroke-miterlimit="100"/>
<path d="M224.629 191.524L223.562 210.694" stroke="#333333" stroke-width="4" stroke-miterlimit="100"/>
<path d="M150.341 203.075C150.341 203.075 115.671 224.534 100.818 232.24C85.9567 239.945 74.9524 245.443 67.2469 253.149C63.5213 256.874 61.4698 260.986 52 291.66C59.7113 297.917 97.0502 310.431 184.715 310.431C272.381 310.431 313.305 297.917 322.809 291.66C317.885 277.71 311.452 258.524 307.726 254.798C300.021 247.093 289.016 241.595 274.155 233.889C259.302 226.184 224.631 204.725 224.631 204.725" stroke="#333333" stroke-width="4" stroke-miterlimit="100"/>
<path d="M139.746 209.436C146.188 216.855 177.207 254.561 187.448 256.022C192.568 256.752 225.573 218.471 233.935 210.544" stroke="#333333" stroke-width="4" stroke-miterlimit="100"/>
<path fill-rule="evenodd" clip-rule="evenodd" d="M191.11 49.6492C191.11 49.6492 184.668 47.015 174.427 50.9703C164.177 54.9256 159.057 68.3835 159.057 68.3835C159.057 68.3835 168.28 57.2561 176.618 53.6044C184.963 49.9445 191.11 49.6492 191.11 49.6492Z" fill="#B7B7B9"/>
<path fill-rule="evenodd" clip-rule="evenodd" d="M186.431 53.743C186.431 53.743 181.311 53.7429 174.426 57.9854C167.549 62.228 166.523 65.5925 166.523 65.5925C166.523 65.5925 174.278 60.1765 181.45 56.812C188.622 53.4475 189.935 53.2998 189.935 53.2998L186.423 53.743H186.431Z" fill="#B7B7B9"/>
<path fill-rule="evenodd" clip-rule="evenodd" d="M174.131 65.3055C174.131 65.3055 185.111 55.7946 200.62 53.5954C216.138 51.3962 221.989 54.769 221.989 54.769C221.989 54.769 206.036 52.5697 193.596 57.6985C181.156 62.819 181.008 63.9926 181.008 63.9926C181.008 63.9926 183.494 66.1918 195.787 66.7744C208.08 67.357 213.348 65.7486 213.348 65.7486C213.348 65.7486 204.863 69.5563 190.371 68.2351C175.879 66.9139 174.123 65.3055 174.123 65.3055H174.131Z" fill="#B7B7B9"/>
<path fill-rule="evenodd" clip-rule="evenodd" d="M185.261 116.978L182.881 125.94C182.881 125.94 185.08 123.929 188.001 123.929C190.931 123.929 193.491 125.759 193.491 125.759L191.842 117.528C191.842 117.528 190.562 117.159 188.551 116.978C186.541 116.798 184.711 115.698 185.261 116.978C185.261 116.978 185.81 118.259 185.261 116.978Z" fill="#333333"/>
</svg>
