<svg width="343" height="303" viewBox="0 0 343 303" fill="none" xmlns="http://www.w3.org/2000/svg">
<path d="M244.165 2.84326C242.513 3.70838 240.862 4.57351 239.209 5.43863C239.249 5.83126 239.291 6.2239 239.33 6.61819C245.119 6.0542 250.908 5.4902 258.642 4.73655C256.045 6.23055 255.105 6.77292 254.162 7.31528C264.473 6.9293 275.156 5.04766 283.31 14.0449C263.754 18.8464 264.572 17.1477 262.143 30.7202C270.074 31.7949 279.573 28.8968 283.534 39.9521C283.997 41.2431 288.393 41.1582 290.98 41.6324C297.552 42.8336 304.133 43.9898 310.71 45.1644C310.659 46.1127 310.605 47.0594 310.554 48.0077C286.826 54.8205 263.095 61.6317 239.367 68.4445C239.383 68.7107 239.402 68.9769 239.418 69.2431C241.617 68.9986 243.815 68.7523 246.576 68.4445C245.577 70.1898 244.955 71.2778 243.132 74.4621C253.266 71.4359 261.6 68.7091 270.062 66.4747C283.554 62.9128 297.026 59.1445 310.705 56.4892C320.043 54.6774 329.72 54.6126 339.414 55.5709C338.557 56.065 337.699 56.5591 336.403 57.3044C338.167 57.7586 339.587 58.1263 343 59.0064C318.001 70.9917 292.716 75.2125 267.711 78.6829C275.885 81.5844 284.056 84.4859 291.86 87.256C288.803 89.289 284.43 92.1972 280.056 95.1053C280.152 95.681 280.248 96.2566 280.345 96.8322C284.031 96.3165 287.718 95.7991 292.595 95.117C290.924 96.4097 289.986 97.7456 289.18 97.6691C278.936 96.7124 271.556 103.622 263.835 108.061C242.909 120.087 218.852 121.455 196.869 129.657C190.69 131.963 183.418 131.326 177.242 133.638C165.206 138.145 153.735 144.151 141.752 148.819C134.065 151.814 125.881 153.526 117.272 156C116.648 148.801 116.946 143.016 124.72 139.055C131.095 135.806 136.46 130.564 142.258 126.218C135.437 128.04 128.032 129.8 120.766 132.021C114.006 134.087 107.459 136.861 100.684 138.876C98.2089 139.613 95.1028 139.797 92.7168 138.974C84.663 136.194 80.1914 142.431 74.5451 145.638C70.1548 148.134 65.952 150.959 61.2664 153.889C60.0435 149.086 59.199 145.768 57.996 141.038C53.03 143.815 49.096 146.014 46.1409 147.667C41.8485 146.712 38.0141 145.86 35.4937 145.299C32.2566 142.135 29.8142 139.187 26.8359 136.964C22.1652 133.479 16.2103 122.669 18.4652 119.638C22.2648 114.529 26.889 110.035 30.5791 105.934C26.1307 102.898 21.1465 99.4958 14.8132 95.1719C11.3272 97.6092 6.32133 101.111 1.09148 104.768C-1.65619 94.1054 0.631875 89.7432 9.68955 85.3028C21.3256 79.598 32.7577 73.4739 44.2776 67.5295C43.9856 66.8241 43.6919 66.117 43.3999 65.4116C41.9879 65.5713 40.5776 65.7311 39.1656 65.8908C38.9631 65.5813 38.7591 65.2719 38.5566 64.9624C40.9841 63.5782 43.4132 62.194 45.8389 60.8082C49.3747 58.7884 53.0582 58.0531 52.8442 51.7177C52.738 48.5683 59.3997 44.4707 63.7087 42.0999C67.6477 39.9338 72.5291 39.4663 77.019 38.3433C81.7693 37.1554 86.5047 35.8144 91.3248 35.0308C95.6138 34.3337 100.296 35.1722 104.31 33.8363C120.539 28.4409 136.66 22.6829 152.633 16.5704C157.101 14.8602 160.69 10.8656 165.147 9.08712C167.655 8.08557 171.115 9.76924 174.138 9.71933C180.876 9.61119 187.705 9.79086 194.326 8.75105C210.812 6.16234 227.2 2.95806 243.628 0C243.809 0.948308 243.988 1.89662 244.165 2.84326Z" fill="#1B64FA"/>
<path d="M115.5 152.544C105.1 148.544 101.167 127.211 100.5 117.044C99.3875 108.645 108.036 109.878 112.5 111.544V95.0443L127.5 91.0443L171 95.0443L213 107.044V119.544C213 113.544 226.9 103.544 226.5 119.544C226.1 135.544 218.667 146.544 215 150.044C213.667 150.211 211 151.344 211 154.544C209.8 163.344 205.5 173.878 203.5 178.044V203.544C231.333 220.378 287.7 254.544 290.5 256.544C293.3 258.544 299 273.044 301.5 280.044C290.5 286.878 248.3 300.544 167.5 300.544C86.7 300.544 39.8333 286.878 26.5 280.044L41 252.044L124.5 203.544C124.5 197.544 124 184.044 122 178.044C119.5 170.544 117.5 157.044 115.5 152.544Z" fill="white"/>
<path fill-rule="evenodd" clip-rule="evenodd" d="M126.443 187.812C135.065 201.045 147.897 219.491 165.541 221.095C183.185 222.699 192.007 210.468 195.616 206.258C199.626 201.646 206.042 176.183 199.426 186.007C199.426 186.007 181.581 209.867 173.561 209.065C165.541 208.263 155.115 210.669 151.105 207.461C147.095 204.253 147.095 204.253 147.095 204.253L126.844 181.797L126.443 187.812Z" fill="#B7B7B9"/>
<path fill-rule="evenodd" clip-rule="evenodd" d="M155.918 157.77C155.918 157.77 151.86 156.76 152.02 158.781C152.173 160.802 156.078 159.936 159.198 161.235C162.318 162.534 165.911 162.678 168.405 161.957C170.899 161.235 171.99 160.513 174.18 160.224C176.361 159.936 177.925 159.069 176.987 157.915C176.048 156.76 173.706 156.76 169.656 158.636C165.598 160.513 162.631 159.647 160.449 158.925C158.268 158.203 155.926 157.77 155.926 157.77H155.918Z" fill="#333333"/>
<path fill-rule="evenodd" clip-rule="evenodd" d="M189.006 130.237C187.089 130.237 185.533 128.625 185.533 126.628C185.533 124.639 187.089 123.019 189.006 123.019C190.923 123.019 192.478 124.631 192.478 126.628C192.478 128.617 190.923 130.237 189.006 130.237Z" fill="#333333"/>
<path fill-rule="evenodd" clip-rule="evenodd" d="M200.735 128.336C200.735 128.336 196.589 121.623 187.678 122.361C178.776 123.091 176.33 129.683 176.33 129.683C176.33 129.683 179.257 128.954 181.335 129.315C183.412 129.683 184.992 129.924 184.992 129.924L181.575 127.726C181.575 127.726 181.944 125.288 187.55 124.31C193.164 123.331 195.482 125.529 196.452 126.387C197.431 127.237 197.792 128.336 197.792 128.336H200.719H200.735Z" fill="#333333"/>
<path fill-rule="evenodd" clip-rule="evenodd" d="M164.618 178.109C164.618 178.109 171.203 177.869 176.697 176.401C182.182 174.933 185.238 171.765 186.698 172.375C188.165 172.984 188.895 174.813 188.037 175.061C187.187 175.302 187.307 175.062 182.303 176.401C177.298 177.74 175.229 178.959 169.863 179.448C164.498 179.938 164.498 179.938 164.498 179.938L164.618 178.109Z" fill="#333333"/>
<path d="M213.676 104.428C213.676 104.428 212.328 124.005 212.713 132.242C213.098 140.478 210.019 156.759 208.864 165.91C207.709 175.061 194.019 194.092 187.619 199.209C181.211 204.334 176.335 208.905 171.907 209.09C167.48 209.274 163.631 209.459 163.631 209.459" stroke="#333333" stroke-width="4" stroke-miterlimit="100"/>
<path d="M213.845 115.296C215.169 114.374 221.601 106.996 225.723 113.452C229.845 119.908 222.427 140.207 220.109 144.818C217.799 149.43 214.006 150.905 214.006 150.905L211.367 151.643" stroke="#333333" stroke-width="4" stroke-miterlimit="100"/>
<path fill-rule="evenodd" clip-rule="evenodd" d="M140.477 130.237C142.393 130.237 143.949 128.625 143.949 126.628C143.949 124.639 142.393 123.019 140.477 123.019C138.56 123.019 137.004 124.631 137.004 126.628C137.004 128.617 138.56 130.237 140.477 130.237Z" fill="#333333"/>
<path fill-rule="evenodd" clip-rule="evenodd" d="M128.762 128.336C128.762 128.336 132.908 121.623 141.818 122.361C150.721 123.091 153.167 129.683 153.167 129.683C153.167 129.683 150.239 128.954 148.162 129.315C146.085 129.683 144.505 129.924 144.505 129.924L147.922 127.726C147.922 127.726 147.553 125.288 141.947 124.31C136.333 123.331 134.015 125.529 133.044 126.387C132.066 127.237 131.705 128.336 131.705 128.336H128.778H128.762Z" fill="#333333"/>
<path fill-rule="evenodd" clip-rule="evenodd" d="M153.831 118.591C153.831 118.591 149.789 115.247 146.444 113.811C144.912 113.178 136.275 110.628 135.296 111.582C134.318 112.536 128.608 114.132 129.586 113.33C130.565 112.536 133.211 111.734 132.369 111.261C131.535 110.78 129.161 110.307 128.046 111.101C126.932 111.895 121.919 116.835 121.494 117.789C121.077 118.744 123.162 119.538 124.141 119.065C125.119 118.583 136.956 116.675 144.343 117.789C151.729 118.904 153.815 118.583 153.815 118.583L153.831 118.591Z" fill="#333333"/>
<path fill-rule="evenodd" clip-rule="evenodd" d="M164.867 178.109C164.867 178.109 158.283 177.869 152.789 176.401C147.303 174.933 144.248 171.765 142.788 172.375C141.32 172.984 140.591 174.813 141.449 175.061C142.299 175.302 142.179 175.062 147.183 176.401C152.188 177.74 154.257 178.959 159.622 179.448C164.988 179.938 164.988 179.938 164.988 179.938L164.867 178.109Z" fill="#333333"/>
<path d="M113.578 104.428C113.578 104.428 114.926 124.005 114.541 132.242C114.156 140.478 117.235 156.759 118.39 165.91C119.545 175.061 134.005 194.453 140.405 199.578C146.629 204.703 150.919 208.913 155.347 209.09C159.774 209.274 163.623 209.459 163.623 209.459" stroke="#333333" stroke-width="4" stroke-miterlimit="100"/>
<path d="M113.411 115.296C112.087 114.374 105.655 106.996 101.533 113.452C97.4106 119.908 104.829 140.207 107.147 144.818C109.457 149.43 113.25 150.905 113.25 150.905L115.889 151.643" stroke="#333333" stroke-width="4" stroke-miterlimit="100"/>
<path fill-rule="evenodd" clip-rule="evenodd" d="M155.932 184.468C155.932 184.468 160.793 185.84 166.238 185.687C171.684 185.535 174.884 184.163 174.884 184.163C174.884 184.163 170.737 187.821 164.578 187.516C158.419 187.211 154.393 184.388 154.393 184.388L155.932 184.468Z" fill="#333333"/>
<path fill-rule="evenodd" clip-rule="evenodd" d="M107.788 71.8265C109.183 64.5523 120.034 53.0035 130.108 49.226C140.181 45.4486 143.75 42.0882 150.262 40.412C156.766 38.7358 162.019 36.8431 162.019 36.8431C162.019 36.8431 161.602 34.1163 164.329 33.4827C167.056 32.8491 171.675 32.4321 172.935 34.9504C174.194 37.4687 174.194 37.4687 174.194 37.4687C174.194 37.4687 189.729 42.7138 196.233 46.2827C202.737 49.8517 215.128 55.5218 217.013 59.9248C218.905 64.3358 222.891 75.2511 222.258 79.237C221.624 83.223 220.156 104.003 220.365 106.104C220.574 108.205 221.207 109.673 221.207 109.673L213.861 113.451L213.227 116.177C213.227 116.177 211.334 108.622 206.723 106.938C202.103 105.262 187.411 103.369 183.425 102.952C179.439 102.535 166.214 97.9157 166.214 97.9157C166.214 97.9157 167.89 101.485 172.092 103.377C176.287 105.27 179.23 105.27 179.23 105.27C179.23 105.27 171.884 106.321 166.005 104.011C160.127 101.701 157.608 98.5493 154.881 97.9237C152.155 97.2901 150.053 96.456 150.053 96.456C150.053 96.456 154.039 98.7658 156.558 101.918C159.076 105.07 159.284 106.746 159.284 106.746C159.284 106.746 151.73 101.284 146.902 98.9823C142.073 96.6726 139.138 95.4134 139.764 97.0896C140.397 98.7658 142.49 100.867 145.851 102.126C149.211 103.385 149.211 103.385 149.211 103.385C149.211 103.385 143.333 104.853 135.569 101.284C127.806 97.7152 123.603 94.9884 120.877 94.9884C118.15 94.9884 115.206 96.2475 115.206 96.2475L114.509 115.207L108.349 110.451C107.507 108.775 107.218 75.7002 107.788 71.8265Z" fill="#333333"/>
<path fill-rule="evenodd" clip-rule="evenodd" d="M228.562 118.288C228.562 118.288 231.714 121.44 238.635 125.843C245.564 130.254 248.708 131.93 248.925 133.398C249.133 134.865 249.133 137.592 243.679 138.226C238.218 138.859 224.367 134.657 224.367 134.657C224.367 134.657 226.885 127.102 226.885 123.533C226.885 119.964 228.562 118.288 228.562 118.288Z" fill="#333333"/>
<path fill-rule="evenodd" clip-rule="evenodd" d="M133.941 88.2688C133.941 88.2688 133.949 81.4999 138.81 78.7089C143.67 75.926 158.274 75.1481 168.195 76.1827C178.124 77.2173 177.707 78.6448 177.707 78.6448L178.276 80.1766C178.276 80.1766 169.759 76.6638 155.948 77.53C142.138 78.4042 138.737 79.928 137.615 81.0909C136.484 82.2538 134.695 85.7024 135.866 85.9912C137.037 86.2799 138.104 85.109 152.027 84.5877C165.949 84.0664 171.676 85.6623 171.676 85.6623C171.676 85.6623 158.972 84.6197 149.059 85.55C139.146 86.4884 133.949 88.2688 133.949 88.2688H133.941Z" fill="#B7B7B9"/>
<path fill-rule="evenodd" clip-rule="evenodd" d="M147.568 87.2171C147.568 87.2171 159.727 85.2843 166.8 86.359C173.882 87.4337 176.4 87.3776 177.459 86.1505C178.526 84.9234 179.344 82.3008 178.983 80.6086C178.622 78.9164 178.189 78.3711 178.189 78.3711C178.189 78.3711 180.098 79.6703 180.13 81.3545C180.162 83.0307 179.264 86.9846 177.491 87.8909C175.719 88.7971 174.163 88.2036 166.528 87.562C158.893 86.9204 153.912 87.2733 153.912 87.2733L147.568 87.2171Z" fill="#B7B7B9"/>
<path fill-rule="evenodd" clip-rule="evenodd" d="M181.348 78.7485C181.348 78.7485 188.951 79.9114 190.651 83.5124C192.351 87.1214 190.883 90.6984 189.031 90.6743C187.178 90.6503 181.452 89.1105 181.452 89.1105L179.238 88.549C179.238 88.549 182.35 88.4608 185.029 89.0462C187.708 89.6317 189.319 89.1264 189.873 86.552C190.426 83.9696 189.079 82.1731 186.376 80.8337C183.681 79.4944 181.34 78.7485 181.34 78.7485H181.348Z" fill="#B7B7B9"/>
<path fill-rule="evenodd" clip-rule="evenodd" d="M137.213 76.7267C137.213 76.7267 137.301 68.6264 139.803 64.456C142.306 60.2856 147.077 59.0024 147.077 59.0024C147.077 59.0024 140.974 62.6035 139.466 66.7578C137.959 70.9122 139.531 75.6199 139.531 75.6199L137.213 76.7267Z" fill="#B7B7B9"/>
<path fill-rule="evenodd" clip-rule="evenodd" d="M186.314 78.6354L188.928 79.1005C188.928 79.1005 191.671 71.9307 186.658 65.0495C181.646 58.1603 175.174 56.9412 175.174 56.9412C175.174 56.9412 185.512 62.1622 186.811 68.0088C188.118 73.8554 186.755 77.7853 186.755 77.7853L186.306 78.6354H186.314Z" fill="#B7B7B9"/>
<path fill-rule="evenodd" clip-rule="evenodd" d="M139.139 70.8482C139.139 70.8482 145.226 70.4312 150.688 72.7409C156.149 75.0507 163.279 76.5184 163.279 76.5184L169.366 76.1013C169.366 76.1013 162.862 75.6843 157.609 72.5324C152.364 69.3805 146.694 68.755 143.125 68.9635C139.556 69.1721 139.139 70.8563 139.139 70.8563V70.8482Z" fill="#B7B7B9"/>
<path fill-rule="evenodd" clip-rule="evenodd" d="M139.764 68.7471C139.764 68.7471 149.837 63.077 161.386 66.8544C172.935 70.6319 173.56 73.9922 179.439 76.719C185.318 79.4458 187.836 79.2373 187.836 79.2373L188.253 77.7697C188.253 77.7697 183.008 76.5105 174.186 70.2148C165.372 63.919 157.809 62.6599 150.888 64.3361C143.958 66.0123 141.649 65.8037 141.649 65.8037L139.756 68.7391L139.764 68.7471Z" fill="#B7B7B9"/>
<path fill-rule="evenodd" clip-rule="evenodd" d="M178.389 87.6409C178.389 87.6409 181.54 79.0355 171.251 76.9342C160.961 74.833 138.713 76.3006 135.987 81.1287C133.26 85.9567 134.727 87.8495 136.404 87.4244C138.08 87.0073 143.959 84.2726 156.133 84.4891C168.307 84.6976 175.028 87.0074 175.028 87.0074L178.389 87.6409Z" fill="#B7B7B9"/>
<path fill-rule="evenodd" clip-rule="evenodd" d="M190.979 85.5414C190.979 85.5414 188.877 83.2317 185.517 82.3896C182.157 81.5475 190.553 85.1164 188.452 86.167C186.351 87.2176 181.106 83.6487 183.416 86.5841C185.725 89.5194 189.711 88.8938 189.711 88.8938L190.971 85.5334L190.979 85.5414Z" fill="#B7B7B9"/>
<path fill-rule="evenodd" clip-rule="evenodd" d="M217.013 101.702C217.013 101.702 216.596 89.7358 217.855 84.9077C219.114 80.0797 218.272 75.0431 216.596 71.6827C214.92 68.3223 213.235 62.6602 213.235 62.6602C213.235 62.6602 212.602 70.0065 214.286 74.6261C215.962 79.2456 215.337 83.8652 215.337 83.8652C215.337 83.8652 212.818 82.606 210.925 79.2456C209.033 75.8852 207.99 74.0005 207.99 74.0005C207.99 74.0005 210.091 82.189 212.818 86.592C215.545 91.003 215.128 97.0902 215.128 97.0902L217.021 101.71L217.013 101.702Z" fill="#B7B7B9"/>
<path fill-rule="evenodd" clip-rule="evenodd" d="M113.524 90.5779C113.524 90.5779 111.848 77.3528 112.474 74.2009C113.107 71.0491 116.043 66.8546 117.302 64.9618C118.561 63.0691 120.871 59.7168 120.871 59.7168C120.871 59.7168 116.043 71.6826 115.834 74.2009C115.626 76.7192 115.626 80.9217 115.626 80.9217L118.561 77.3528C118.561 77.3528 116.885 84.0736 116.251 86.5919C115.618 89.1102 115.834 89.5272 115.834 89.5272L113.524 90.5779L116.251 90.7864L113.524 90.5779Z" fill="#B7B7B9"/>
<path fill-rule="evenodd" clip-rule="evenodd" d="M153.617 43.9806C153.617 43.9806 160.755 40.8287 168.518 41.2538C176.282 41.6708 180.276 44.1891 180.276 44.1891L169.569 43.347L153.617 43.9806Z" fill="#B7B7B9"/>
<path fill-rule="evenodd" clip-rule="evenodd" d="M165.371 44.3982L164.954 54.0542C164.954 54.0542 160.968 54.0542 152.363 56.5725C143.757 59.0908 142.498 62.4512 142.498 62.4512C142.498 62.4512 152.788 56.5725 160.134 56.364C167.48 56.1555 167.48 56.1554 167.48 56.1554L167.897 42.0884L165.379 44.3982H165.371Z" fill="#B7B7B9"/>
<path fill-rule="evenodd" clip-rule="evenodd" d="M111.639 96.8815C111.639 96.8815 109.963 92.2619 117.935 90.1607C125.915 88.0594 127.799 88.4845 127.799 88.4845C127.799 88.4845 118.143 87.0168 114.157 89.5351C110.171 92.0534 111.639 96.8815 111.639 96.8815Z" fill="#B7B7B9"/>
<path fill-rule="evenodd" clip-rule="evenodd" d="M217.638 108.006C217.638 108.006 214.703 101.285 207.14 98.35C199.585 95.4147 195.383 94.9896 195.383 94.9896C195.383 94.9896 209.867 94.3561 214.695 99.4007C219.523 104.437 217.63 106.121 217.63 106.121V108.014L217.638 108.006Z" fill="#B7B7B9"/>
<path d="M122.762 177.483L124.614 208.881" stroke="#333333" stroke-width="4" stroke-miterlimit="100"/>
<path d="M203.998 179.167L204.15 210.709" stroke="#333333" stroke-width="4" stroke-miterlimit="100"/>
<path d="M124.887 202.705C124.887 202.705 88.3879 225.298 72.7488 233.406C57.1097 241.514 45.5207 247.313 37.4125 255.421C33.4907 259.343 27.5 272.544 26 279.641C38.8788 286.565 83.7767 300.414 160.338 300.414C236.899 300.414 286.066 286.566 301.079 279.643C299.475 272.425 295.297 261.084 291.375 257.163C283.267 249.054 271.678 243.256 256.039 235.148C240.4 227.039 203.901 204.447 203.901 204.447" stroke="#333333" stroke-width="4" stroke-miterlimit="100"/>
<path d="M114.533 209.403C121.31 217.215 136.412 230.343 161.803 231.29C186.842 232.22 204.895 218.915 213.693 210.574" stroke="#333333" stroke-width="4" stroke-miterlimit="100"/>
<path fill-rule="evenodd" clip-rule="evenodd" d="M172.301 118.591C172.301 118.591 176.343 115.247 179.687 113.811C181.219 113.178 189.857 110.628 190.835 111.582C191.814 112.536 197.524 114.132 196.545 113.33C195.567 112.536 192.92 111.734 193.762 111.261C194.596 110.78 196.97 110.307 198.085 111.101C199.2 111.895 204.212 116.835 204.638 117.789C205.055 118.744 202.969 119.538 201.991 119.065C201.012 118.583 189.175 116.675 181.788 117.789C174.402 118.904 172.317 118.583 172.317 118.583L172.301 118.591Z" fill="#333333"/>
</svg>
