<svg width="380" height="293" viewBox="0 0 380 293" fill="none" xmlns="http://www.w3.org/2000/svg">
<path d="M177.225 196.002C178.046 194.124 178.865 192.246 180.411 188.709C172.107 192.901 164.858 196.147 158.262 200.284C157.137 200.991 158.797 205.509 159.314 209.333C152.655 215.206 145.583 214.076 138.906 205.568C144.182 200.476 144.253 195.503 137.053 190.914C133.75 188.809 136.725 173.115 140.553 170.694C143.005 169.142 145.623 167.815 149.502 165.636C146.292 165.636 144.576 165.636 141.459 165.636C144.679 162.047 147.056 159.395 150.568 155.479C124.652 161.183 98.6972 161.945 79.9811 182.215C73.8977 169.685 63.1678 174.794 55.9273 176.933C47.5663 179.405 5.2502 187.248 3.49937 182.215C-5.36219 156.723 2.63531 161.351 45.09 144.351C49.846 142.446 54.6507 139.753 59.6114 139.373C69.2572 138.635 71.3849 133.091 73.1864 125.832C73.9869 122.607 77.2109 119.504 80.1432 117.247C82.7492 115.241 86.4697 114.48 89.6978 113.169C89.3776 112.236 89.0595 111.3 88.7393 110.367C76.0653 113.79 37.4296 115.917 47.6291 129.919C47.1245 133.048 31.9972 133.549 29.0325 130.392C27.4236 128.679 26.2847 126.589 24.7487 124.406C34.7075 117.374 35.4092 114.923 39.6875 107.644C43.9658 100.364 46.5085 89.0836 46.5085 85.0436C39.2761 83.8942 34.0297 83.0584 28.7853 82.2245C3.00025 74.9222 41.6455 46.8051 54.9729 40.9273C71.3181 33.717 87.0634 26.3339 105.767 24.5778C121.985 23.0546 137.765 17.8145 153.881 14.8921C158.601 14.0356 165.572 8.43304 168.354 17.8164C168.473 18.2202 169.462 18.7404 169.945 18.6616C177.55 17.437 185.139 16.1223 194.16 14.5841C197.654 19.4654 204.449 17.9835 211.367 15.8499C210.818 14.5315 210.268 13.2111 209.551 11.4851C228.468 17.2285 248.092 16.8773 270.626 11.748C265.886 9.65762 263.683 8.68659 260.757 7.39629C262.68 4.75746 264.605 -0.0205931 266.461 6.67795e-05C270.751 0.0507774 278.602 2.22945 278.711 3.89539C279.534 16.5205 290.543 14.3305 298.226 15.9589C303.966 17.174 310.165 16.0697 310.465 24.0895C310.514 25.4098 312.708 27.504 314.228 27.7876C320.514 28.9614 324.598 31.7055 326.061 37.8358C327.052 41.9884 329.011 45.9439 330.995 51.2009C330.097 51.2009 331.828 51.2009 335.285 51.2009C330.012 58.5839 325.232 65.0411 320.778 71.6842C319.746 73.2205 320.496 76.3496 319.264 77.0933C316.299 78.8851 312.648 79.6965 309.853 80.6957C309.853 83.4566 309.853 87.0476 309.853 92.1844C317.481 87.2185 324.472 82.6677 331.463 78.1169C331.85 78.594 332.237 79.0692 332.624 79.5443C327.08 85.1976 321.536 90.8509 314.06 98.4725C329.402 94.442 342.181 91.0838 354.96 87.7256C355.31 88.3755 355.655 89.0178 355.999 89.662C347.063 93.6719 337.804 97.1691 329.266 101.812C315.88 109.094 302.905 117.036 289.901 124.906C277.801 132.231 265.416 139.257 254.017 147.444C239.747 157.693 226.354 168.994 211.723 180.519C201.083 176.011 195.749 177.711 187.206 189.584C185.1 192.511 182.018 194.834 179.384 197.433C178.666 196.958 177.947 196.481 177.225 196.002ZM122 61L125.5 62.5C125.5 62.5 136.089 68.2453 144.499 66.5568C153.857 64.6767 163.703 64.8927 175.177 64.0607C184.089 61.6698 195.188 58.6948 207.729 55.331C197.476 54.1646 188.819 52.371 180.164 52.3841C166.718 52.4029 153.218 53.1729 139.858 54.5759C133.284 55.2652 126.97 58.0862 120.548 59.9456C110.181 59.7205 76.2301 79.7622 76.2301 79.7622C76.2301 79.7622 103.873 71.7537 117.752 68.4312C125.357 66.6075 126.511 65.2259 122 61ZM215.829 74.9222C215.499 74.0901 215.168 73.26 214.838 72.4279C196.357 78.1564 177.023 81.8395 159.778 90.5222C160.457 91.7975 161.136 93.0709 161.814 94.3462C164.54 92.5619 167.264 90.7758 169.847 89.0836C174.666 95.5332 177.552 96.3896 185.084 92.3196C195.453 86.7133 205.591 80.737 215.829 74.9222ZM207.989 123.604C231.204 118.315 243.399 110.951 247.646 97.5973C240.041 101.955 232.438 106.31 225.189 110.463C224.478 109.886 222.158 107.343 221.59 107.644C215.142 111.054 205.928 112.647 207.989 123.604ZM121.703 101.829C121.865 102.939 122.027 104.049 122.19 105.159C133.477 102.054 144.764 98.9515 156.051 95.8469C155.788 94.919 155.522 93.9893 155.259 93.0615C144.073 95.984 132.889 98.9064 121.703 101.829Z" fill="#1B64FA"/>
<path d="M249.645 127.83C249.074 127.797 248.502 127.764 247.931 127.731C247.802 127.284 247.674 126.839 247.546 126.392C252.692 124.545 257.845 122.718 262.975 120.819C263.502 120.625 263.831 119.895 264.354 119.594C265.106 119.162 265.935 118.785 266.764 118.593C267.566 118.408 268.547 118.758 269.213 118.409C277.381 114.124 285.499 109.743 293.656 105.437C294.09 105.208 294.762 105.517 295.31 105.423C297.62 105.023 300.283 105.151 302.166 104.018C307.964 100.533 314.085 98.9779 320.514 97.8992C322.941 97.4924 325.26 95.7564 327.64 94.6529C330.729 93.221 333.829 91.8155 337.397 90.1829C336.438 89.7856 335.593 89.4343 334.6 89.0232C342.802 82.6476 363.036 73.9979 365.708 75.5761C364.885 76.4473 364.055 77.3254 363.226 78.2042C363.384 78.4716 363.543 78.7386 363.701 79.0061C368.832 76.8128 373.962 74.6202 379.094 72.4279C379.224 72.6936 379.354 72.9587 379.484 73.2244C370.053 78.1528 360.622 83.0807 351.19 88.0091C351.241 88.2222 351.293 88.4361 351.344 88.6491C352.735 88.3466 354.127 88.0449 355.517 87.7429C355.668 88.0367 355.82 88.3312 355.972 88.625C354.669 89.3738 353.405 90.2138 352.055 90.8584C335.873 98.579 319.51 105.928 303.537 114.07C288.73 121.618 274.341 130.014 259.75 138.004C258.745 138.554 257.612 138.912 256.511 139.236C253.526 140.116 252.449 141.633 254.147 144.038C250.495 146.428 247.034 149.361 242.963 145.671C246.418 141.881 244.439 140.24 240.2 140.246C240.338 134.037 244.14 130.572 249.645 127.83Z" fill="#1B64FA"/>
<path d="M152.999 148.5C151.499 145.5 139.999 100.5 137.999 88L140 52L163 25.5L191 21.5L216.5 34.5L234 78L236.5 164.5C254.333 178.833 291.4 208.9 297 214.5C302.6 220.1 307.667 241.5 309.5 251.5C295.333 259.667 251.8 278 191 278C130.2 278 82.9995 261.667 66.9992 253.5C66.3325 252.833 65.9992 247.3 69.9992 230.5C73.9992 213.7 82.9992 208.167 86.9992 207.5L142.499 189.5L152.999 182C153.666 177.5 154.999 167.7 154.999 164.5C154.999 160.5 154.499 151.5 152.999 148.5Z" fill="white"/>
<path fill-rule="evenodd" clip-rule="evenodd" d="M161.168 153.587C161.168 153.587 172.577 175.59 188.876 182.11C205.175 188.63 219.029 169.071 219.029 169.071V147.883C219.029 147.883 201.915 165.811 188.061 164.996C174.207 164.181 161.168 153.587 161.168 153.587Z" fill="#B7B7B9"/>
<path fill-rule="evenodd" clip-rule="evenodd" d="M198.947 92.9245C198.947 92.9245 201.082 85.6552 208.604 84.5224C216.126 83.3978 217.887 87.2769 219.891 89.0372C221.896 90.7893 224.031 90.6671 224.031 90.6671C224.031 90.6671 219.891 91.7917 217.137 89.4121C214.382 87.0324 212.875 86.405 208.612 86.2746C204.35 86.1523 202.346 88.9068 201.343 90.0396C200.341 91.1642 198.964 92.9245 198.964 92.9245H198.947Z" fill="#333333"/>
<path fill-rule="evenodd" clip-rule="evenodd" d="M218.88 91.0429C218.88 91.0429 215.621 92.795 211.481 93.178C207.341 93.5529 206.086 93.178 206.086 93.178C206.086 93.178 212.483 94.5553 215.987 93.4307C219.5 92.3061 221.252 90.6762 221.252 90.6762L219.247 89.4211L218.872 91.051L218.88 91.0429Z" fill="#333333"/>
<path fill-rule="evenodd" clip-rule="evenodd" d="M222.263 88.6613C222.263 88.6613 220.259 89.6637 218.498 88.1561C216.746 86.6484 216.746 86.6484 216.746 86.6484C216.746 86.6484 219.631 88.4006 220.886 88.4006C222.141 88.4006 222.263 88.6532 222.263 88.6532V88.6613Z" fill="#333333"/>
<path fill-rule="evenodd" clip-rule="evenodd" d="M181.949 119.076C181.949 119.076 178.983 118.399 179.097 119.752C179.211 121.105 182.063 120.526 184.345 121.398C186.627 122.27 189.251 122.368 191.077 121.879C192.902 121.398 193.701 120.909 195.298 120.714C196.895 120.518 198.036 119.94 197.352 119.165C196.667 118.391 194.956 118.391 191.989 119.646C189.023 120.901 186.855 120.323 185.258 119.842C183.661 119.361 181.949 119.068 181.949 119.068V119.076Z" fill="#333333"/>
<path d="M139.57 74.654C140.32 91.4254 142.423 114.472 148.673 132.156C150.165 137.282 153.221 144.193 160.522 151.772C169.503 160.858 180.725 164.582 187.961 164.582C196.192 164.118 210.666 157.827 217.65 150.606C222.507 144.967 225.139 136.875 227.836 129.573C234.511 109.167 235.749 71.6794 236.548 71.6794" stroke="#333333" stroke-width="4" stroke-miterlimit="100"/>
<path fill-rule="evenodd" clip-rule="evenodd" d="M209.507 93.2187C207.38 93.2187 205.652 91.3036 205.652 88.9403C205.652 86.577 207.38 84.6619 209.507 84.6619C211.634 84.6619 213.362 86.577 213.362 88.9403C213.362 91.3036 211.634 93.2187 209.507 93.2187Z" fill="#333333"/>
<path fill-rule="evenodd" clip-rule="evenodd" d="M178.162 92.9245C178.162 92.9245 176.027 85.6552 168.505 84.5224C160.983 83.3978 159.223 87.2769 157.218 89.0372C155.213 90.7893 153.078 90.6671 153.078 90.6671C153.078 90.6671 157.218 91.7917 159.973 89.4121C162.727 87.0324 164.235 86.405 168.497 86.2746C172.759 86.1523 174.764 88.9068 175.766 90.0396C176.768 91.1642 178.146 92.9245 178.146 92.9245H178.162Z" fill="#333333"/>
<path fill-rule="evenodd" clip-rule="evenodd" d="M158.231 91.0429C158.231 91.0429 161.491 92.795 165.63 93.178C169.77 93.5529 171.025 93.178 171.025 93.178C171.025 93.178 164.628 94.5553 161.124 93.4307C157.611 92.3061 155.859 90.6762 155.859 90.6762L157.864 89.4211L158.239 91.051L158.231 91.0429Z" fill="#333333"/>
<path fill-rule="evenodd" clip-rule="evenodd" d="M154.842 88.6613C154.842 88.6613 156.847 89.6637 158.607 88.1561C160.359 86.6484 160.359 86.6484 160.359 86.6484C160.359 86.6484 157.474 88.4006 156.219 88.4006C154.964 88.4006 154.842 88.6532 154.842 88.6532V88.6613Z" fill="#333333"/>
<path fill-rule="evenodd" clip-rule="evenodd" d="M167.605 93.2187C169.732 93.2187 171.459 91.3036 171.459 88.9403C171.459 86.577 169.732 84.6619 167.605 84.6619C165.478 84.6619 163.75 86.577 163.75 88.9403C163.75 91.3036 165.478 93.2187 167.605 93.2187Z" fill="#333333"/>
<path d="M157.703 148.698C158.371 169.708 157.825 177.906 154.484 181.647C148.217 188.679 130.932 196.641 108.692 201.8C86.4608 207.358 79.2404 210.919 75.0598 220.486C70.8791 230.054 67 252.285 67 252.285C83.8726 261.089 131.923 278.695 189.143 278.695C246.363 278.695 293.588 261.089 310.048 252.285C310.048 252.285 306.169 230.054 301.988 220.486C297.807 210.919 290.587 207.358 268.355 201.8C246.116 196.641 228.831 188.679 222.564 181.647C219.231 177.906 218.685 169.708 219.027 148.698" stroke="#333333" stroke-width="4" stroke-miterlimit="100"/>
<path fill-rule="evenodd" clip-rule="evenodd" d="M153.809 85.1575C153.809 85.1575 157.142 81.8243 160.956 80.553C164.77 79.2817 166.831 79.5995 166.831 79.5995C166.831 79.5995 159.839 81.5065 156.987 83.5683C154.126 85.6301 153.809 85.1575 153.809 85.1575Z" fill="#333333"/>
<path fill-rule="evenodd" clip-rule="evenodd" d="M223.204 85.957C223.204 85.957 219.871 82.6239 216.057 81.3526C212.243 80.0813 210.182 80.3991 210.182 80.3991C210.182 80.3991 217.174 82.3061 220.026 84.3679C222.887 86.4297 223.204 85.957 223.204 85.957Z" fill="#333333"/>
<path d="M146.823 64.0024C145.625 73.9365 140.466 91.8 140.466 91.8L140.474 91.8244C140.474 91.8244 139.374 104.717 144.264 121.016C148.746 137.722 158.118 150.353 158.118 150.353C158.933 144.649 157.947 157.337 157.947 164.085C157.947 170.833 153.179 182.348 153.179 182.348L151.191 164.876C151.191 164.876 150.4 168.054 150.4 175.201C150.4 182.348 149.61 188.696 156.357 206.169C163.105 223.633 156.357 249.841 156.357 249.841C155.771 254.507 154.949 267.031 156.357 273.193C147.327 258.338 150.4 252.836 146.777 249.442C146.777 255.037 141.825 275.944 123.119 293C128.07 278.145 129.171 269.892 129.171 258.338C129.171 258.338 130.54 247.062 126.571 231.978C122.603 216.893 117.436 218.873 110.688 182.348C103.941 145.822 119.025 119.215 126.571 99.7619C134.118 80.3093 125.781 59.2594 132.529 41.396C139.276 23.5244 155.159 23.9237 155.159 23.9237C155.159 23.9237 153.97 17.9666 175.011 10.8195C196.053 3.67253 223.052 9.62973 240.524 34.249C257.997 58.8684 267.531 106.118 271.101 117.234C274.678 128.35 284.604 136.687 284.604 136.687L274.279 130.73C274.279 130.73 274.279 130.73 280.636 136.288C286.984 141.845 294.53 144.624 294.53 144.624C294.53 144.624 291.751 145.415 285.395 143.035C279.038 140.656 268.322 131.52 268.322 131.52L275.469 139.458C282.616 147.395 290.953 153.752 302.069 173.204C313.184 192.665 306.437 202.192 306.437 202.192C306.437 202.192 308.026 193.855 303.658 183.929C299.866 175.312 288.594 165.8 285.686 163.439C286.984 164.583 290.166 167.822 295.712 175.991C303.25 187.107 306.428 206.959 299.281 220.063C292.134 233.159 291.352 261 291.352 261L274 267.5C274 267.5 271.492 245.074 269.503 233.159C267.523 221.245 259.977 207.35 259.977 207.35C259.977 207.35 260.767 210.52 260.767 225.214C260.767 239.899 258.388 270 258.388 270L220.045 279C220.045 279 225.255 260 229 227C231.388 205.958 219.474 168.437 219.474 168.437L220.045 150.337C219.026 148.3 222.693 142.799 227.583 132.205C232.473 120.592 235.358 87.8313 235.358 87.8313C235.358 87.8313 236.547 87.0326 229.8 69.1692C223.052 51.3057 206.77 33.8334 206.77 33.8334C206.77 33.8334 182.55 25.4965 175.802 29.4653C169.054 33.434 163.097 31.0463 156.349 37.4029C149.602 43.7512 148.012 54.0764 146.823 64.0024Z" fill="#333333"/>
<path fill-rule="evenodd" clip-rule="evenodd" d="M159.79 31.9746C159.79 31.9746 156.612 21.9182 167.467 18.471C178.322 15.032 192.876 18.7319 207.439 31.9746C221.994 45.2092 225.971 57.1236 237.087 79.6241C248.203 102.125 252.97 111.92 259.058 119.067C265.145 126.214 269.383 128.064 269.383 128.064C269.383 128.064 252.709 106.362 244.234 87.5616C235.767 68.7691 223.852 42.8296 208.499 29.0652C193.145 15.3009 175.412 13.1821 165.356 17.1508C155.3 21.1196 159.798 31.9746 159.798 31.9746H159.79Z" fill="#B7B7B9"/>
<path fill-rule="evenodd" clip-rule="evenodd" d="M200.291 19.0017C200.291 19.0017 217.763 30.9162 233.117 53.6774C248.47 76.4387 258.796 97.6189 258.796 97.6189C258.796 97.6189 246.351 62.9432 226.768 41.2333C207.177 19.5314 200.299 19.0017 200.299 19.0017H200.291Z" fill="#B7B7B9"/>
<path fill-rule="evenodd" clip-rule="evenodd" d="M166.007 31.0446C166.007 31.0446 163.097 28.1352 163.627 24.2968C164.157 20.4585 166.805 17.9404 166.805 17.9404L170.904 16.7505C170.904 16.7505 165.876 20.32 165.607 24.957C165.346 29.5858 166.007 31.0446 166.007 31.0446Z" fill="#B7B7B9"/>
<path fill-rule="evenodd" clip-rule="evenodd" d="M169.715 29.7265C169.715 29.7265 168.256 26.0186 169.315 22.3187C170.375 18.6108 174.083 16.6304 174.083 16.6304H176.862C176.862 16.6304 170.905 19.6783 170.505 23.7774C170.106 27.8765 169.715 29.7347 169.715 29.7347V29.7265Z" fill="#B7B7B9"/>
<path fill-rule="evenodd" clip-rule="evenodd" d="M175.8 26.6794C175.8 26.6794 174.081 24.691 174.741 21.3823C175.401 18.0737 181.757 17.2831 184.406 17.6743C187.054 18.0736 189.703 19.5242 189.703 19.5242C189.703 19.5242 181.497 18.7338 178.188 20.983C174.879 23.2322 175.808 26.6713 175.808 26.6713L175.8 26.6794Z" fill="#B7B7B9"/>
<path fill-rule="evenodd" clip-rule="evenodd" d="M140.196 95.6379C140.196 95.6379 139.935 103.714 132.12 113.901C124.313 124.096 116.367 135.081 113.857 147.647C111.339 160.222 112.138 165.78 112.138 165.78C112.138 165.78 113.857 147.778 121.404 136.002C128.95 124.226 137.686 115.62 139.267 107.153C140.856 98.6858 140.196 95.6379 140.196 95.6379Z" fill="#B7B7B9"/>
<path fill-rule="evenodd" clip-rule="evenodd" d="M136.099 131.504C136.099 131.504 131.731 150.166 125.383 170.417C119.026 190.669 131.34 208.932 136.898 224.016C142.456 239.101 141.266 244.267 141.266 244.267C141.266 244.267 143.254 235.531 136.107 217.268C128.96 199.006 124.592 185.502 127.371 174.386C130.15 163.27 132.53 159.302 134.918 147.387C137.297 135.473 136.107 131.504 136.107 131.504H136.099Z" fill="#B7B7B9"/>
<path fill-rule="evenodd" clip-rule="evenodd" d="M134.91 125.145C134.91 125.145 135.309 133.881 127.363 149.365C119.426 164.849 117.437 174.775 117.437 174.775C117.437 174.775 116.647 160.082 122.596 151.345C128.553 142.609 134.901 125.137 134.901 125.137L134.91 125.145Z" fill="#B7B7B9"/>
<path fill-rule="evenodd" clip-rule="evenodd" d="M277.05 244.667C277.05 244.667 278.24 220.447 267.524 203.374C256.807 186.301 252.439 184.712 246.873 165.259C241.315 145.806 238.536 99.3467 238.536 99.3467C238.536 99.3467 236.548 162.48 248.862 181.142C261.167 199.804 269.903 213.699 273.082 224.024C276.26 234.35 277.05 244.675 277.05 244.675V244.667Z" fill="#B7B7B9"/>
<path fill-rule="evenodd" clip-rule="evenodd" d="M244.891 106.095C244.891 106.095 252.038 139.051 269.901 149.767C287.765 160.484 291.342 164.852 291.342 164.852C291.342 164.852 275.459 153.337 266.723 150.558C257.987 147.779 251.638 136.264 248.46 124.749C245.282 113.233 244.891 106.086 244.891 106.086V106.095Z" fill="#B7B7B9"/>
<path fill-rule="evenodd" clip-rule="evenodd" d="M264.344 153.734C264.344 153.734 292.932 172.796 297.3 189.07C301.668 205.352 299.288 209.72 299.288 209.72C299.288 209.72 300.079 190.659 287.773 177.954C275.468 165.249 264.344 153.734 264.344 153.734Z" fill="#B7B7B9"/>
<path fill-rule="evenodd" clip-rule="evenodd" d="M151.182 248.634C151.182 248.634 155.151 239.897 150.783 224.813C146.415 209.728 139.268 190.667 139.268 190.667C139.268 190.667 137.279 200.194 145.624 219.255C153.961 238.316 151.182 248.634 151.182 248.634Z" fill="#B7B7B9"/>
<path fill-rule="evenodd" clip-rule="evenodd" d="M182.998 76.6991C182.998 76.6991 179.412 71.4264 176.69 71.5079C173.968 71.5894 169.339 70.8559 163.105 70.6196C156.871 70.3832 153.163 71.8746 150.408 74.0424C147.654 76.2101 146.814 78.1497 146.814 78.1497C146.814 78.1497 149.765 74.0342 158.256 73.529C166.903 73.0318 173.365 76.6257 177.098 77.0902C180.626 77.7503 182.998 76.6991 182.998 76.6991Z" fill="#333333"/>
<path fill-rule="evenodd" clip-rule="evenodd" d="M235.357 100.527C235.357 100.527 232.179 85.4428 229.799 73.5284C227.42 61.614 227.42 61.614 227.42 61.614L238.136 86.2333L235.357 100.527Z" fill="#333333"/>
<path fill-rule="evenodd" clip-rule="evenodd" d="M155.022 35.1536C153.702 35.1536 147.615 35.4144 144.168 34.0942C140.728 32.774 136.76 38.0629 136.76 38.0629C136.76 38.0629 140.997 34.6239 146.026 36.4738C151.054 38.3237 152.113 38.3238 152.113 38.3238C152.113 38.3238 145.757 40.9723 141.527 42.0317C137.289 43.0911 134.91 43.8816 134.91 43.8816C134.91 43.8816 140.737 44.941 143.646 44.1423C146.555 43.3518 147.354 43.3519 147.354 43.3519C147.354 43.3519 143.646 50.7596 138.618 53.4082C133.59 56.0567 132.791 60.0255 132.791 60.0255C132.791 60.0255 136.499 56.0568 140.199 54.9974C143.907 53.938 148.405 46.7909 149.725 43.083C151.046 39.375 156.343 35.1455 155.022 35.1455V35.1536Z" fill="#B7B7B9"/>
<path fill-rule="evenodd" clip-rule="evenodd" d="M143.904 59.5029C143.904 59.5029 142.844 72.4768 137.816 79.8846C132.788 87.2924 131.729 90.7395 131.729 90.7395C131.729 90.7395 132.788 83.3317 137.555 76.1847C142.323 69.0377 143.912 59.5111 143.912 59.5111L143.904 59.5029Z" fill="#B7B7B9"/>
<path fill-rule="evenodd" clip-rule="evenodd" d="M171.965 30.915C171.965 30.915 179.112 24.5585 190.497 30.1245C201.881 35.6824 213.258 47.3279 224.382 69.0378C235.497 90.7397 237.087 99.7448 237.087 99.7448C237.087 99.7448 230.2 65.8595 213.796 45.4779C197.383 25.0963 185.468 24.5667 182.298 24.5667C179.12 24.5667 179.12 24.5667 179.12 24.5667L171.973 30.9231L171.965 30.915Z" fill="#333333"/>
<path fill-rule="evenodd" clip-rule="evenodd" d="M142.448 73.5298C142.448 73.5298 135.301 90.2035 122.995 104.106C110.69 118.001 109.492 137.853 109.492 137.853C109.492 137.853 107.503 116.013 117.828 104.497C128.154 92.9824 142.448 73.5298 142.448 73.5298Z" fill="#333333"/>
<path d="M149.592 187.49C154.913 196.951 180.543 245.041 189.01 246.907C193.24 247.844 220.516 199.013 227.418 188.899" stroke="#333333" stroke-width="4" stroke-miterlimit="100"/>
<path fill-rule="evenodd" clip-rule="evenodd" d="M143.498 76.8375C143.498 76.8375 159.299 74.3519 171.442 78.9889C183.584 83.6259 183.087 87.9369 183.087 87.9369C183.087 87.9369 183.087 96.0538 176.935 101.848C170.782 107.642 156.643 108.139 150.327 100.691C144.003 93.2341 143.506 86.4456 143.172 82.4687C142.838 78.4918 143.506 76.8375 143.506 76.8375L146.831 79.9832C146.831 79.9832 161.801 77.4977 171.776 81.8087C181.751 86.1116 181.588 88.1 181.588 88.1C181.588 88.1 180.757 103.005 167.115 103.999C153.481 104.994 149.153 96.5427 147.654 89.9173C146.154 83.2918 146.823 79.9751 146.823 79.9751L143.498 76.8294V76.8375Z" fill="#333333"/>
<path fill-rule="evenodd" clip-rule="evenodd" d="M233.434 76.8375C233.434 76.8375 217.633 74.3519 205.49 78.9889C193.348 83.6259 193.845 87.9369 193.845 87.9369C193.845 87.9369 193.845 96.0538 199.997 101.848C206.15 107.642 220.289 108.139 226.605 100.691C232.929 93.2341 233.426 86.4456 233.76 82.4687C234.094 78.4918 233.426 76.8375 233.426 76.8375L230.101 79.9832C230.101 79.9832 215.131 77.4977 205.156 81.8087C195.181 86.1116 195.344 88.1 195.344 88.1C195.344 88.1 196.175 103.005 209.817 103.999C223.451 104.994 227.779 96.5427 229.278 89.9173C230.778 83.2918 230.109 79.9751 230.109 79.9751L233.434 76.8294V76.8375Z" fill="#333333"/>
<path fill-rule="evenodd" clip-rule="evenodd" d="M193.371 76.6991C193.371 76.6991 196.957 71.4264 199.679 71.5079C202.401 71.5894 207.03 70.8559 213.264 70.6196C219.498 70.3832 223.206 71.8746 225.96 74.0424C228.715 76.2101 229.554 78.1497 229.554 78.1497C229.554 78.1497 226.604 74.0342 218.113 73.529C209.466 73.0318 203.004 76.6257 199.271 77.0902C195.743 77.7503 193.371 76.6991 193.371 76.6991Z" fill="#333333"/>
<path fill-rule="evenodd" clip-rule="evenodd" d="M183.374 86.7628C183.374 86.7628 186.838 85.7442 190.301 86.1516C193.765 86.5591 194.58 87.374 194.58 87.374V89.4114C194.58 89.4114 191.524 87.9852 188.06 87.9852C184.597 87.9852 182.355 89.6151 182.355 89.6151L183.374 86.7628Z" fill="#333333"/>
<path fill-rule="evenodd" clip-rule="evenodd" d="M183.332 148.196C183.332 148.196 185.655 146.932 188.499 147.242C191.351 147.56 192.297 148.505 192.297 148.505C192.297 148.505 187.44 147.975 185.647 148.187C183.854 148.399 183.324 148.187 183.324 148.187L183.332 148.196Z" fill="#333333"/>
<path fill-rule="evenodd" clip-rule="evenodd" d="M170.535 135.253C170.535 135.253 174.056 137.6 177.576 137.396C181.097 137.192 182.23 136.378 184.74 136.883C187.25 137.396 188.26 137.6 188.26 137.6V134.642C188.26 134.642 183.362 133.721 180.469 134.951C177.576 136.174 174.186 135.766 172.426 135.359C170.666 134.951 169.158 134.136 169.158 134.136L170.544 135.261L170.535 135.253Z" fill="#333333"/>
<path fill-rule="evenodd" clip-rule="evenodd" d="M204.823 135.253C204.823 135.253 201.302 137.6 197.782 137.396C194.261 137.192 193.128 136.378 190.618 136.883C188.108 137.396 187.098 137.6 187.098 137.6V134.642C187.098 134.642 191.995 133.721 194.889 134.951C197.782 136.174 201.172 135.766 202.932 135.359C204.692 134.951 206.2 134.136 206.2 134.136L204.815 135.261L204.823 135.253Z" fill="#333333"/>
<path fill-rule="evenodd" clip-rule="evenodd" d="M178.027 140.956C178.027 140.956 181.32 142.545 187.489 142.806C193.65 143.067 198.091 141.136 198.091 141.136C198.091 141.136 194.652 144.216 187.342 143.955C180.032 143.695 178.027 140.956 178.027 140.956Z" fill="#333333"/>
</svg>
