<svg width="159" height="164" viewBox="0 0 159 164" fill="none" xmlns="http://www.w3.org/2000/svg">
<path d="M63.6151 163.495C64.5456 163.678 65.4209 163.85 66.2192 164C67.3067 163.611 68.3257 163.191 69.3039 162.788C71.315 161.959 73.1536 161.202 75.0602 160.929C85.5746 159.429 95.576 155.536 103.127 148.707C113.504 139.324 121.294 127.548 123.338 112.84C123.609 110.89 124.629 109.046 125.703 107.105C126.215 106.179 126.739 105.231 127.2 104.239C127.085 104.066 126.853 103.813 126.578 103.514C125.779 102.643 124.611 101.37 124.841 100.454C126.404 94.2404 124.841 88.6305 121.894 83.5062C120.488 81.0607 117.661 78.4721 115.098 77.9888C113.179 77.6268 110.029 80.0887 108.615 82.1282C107.661 83.5034 108.373 86.4722 109.058 88.4809C109.797 90.6489 110.837 92.7127 111.899 94.82C112.355 95.7251 112.815 96.6382 113.258 97.571C113.198 97.5731 113.138 97.5752 113.078 97.5773C115.031 102.166 114.26 107.651 111.945 113.308C111.787 113.861 111.634 114.405 111.483 114.94C110.309 119.115 109.286 122.75 107.281 125.709C98.9747 137.965 89.3253 148.967 75.6097 151.344C69.9447 152.729 62.7007 153.253 56.5903 152.291C44.2298 152.191 26.2765 139.363 18.7475 124.909C14.3665 117.912 12.7571 112.558 12.0855 108.402C12.0339 108.301 12.0038 108.206 11.9996 108.12C11.9931 107.983 11.9868 107.847 11.9806 107.71C11.8954 107.111 11.8288 106.538 11.7745 105.989C11.7563 105.804 11.7965 105.541 11.8906 105.206C11.4427 88.2694 14.4087 72.3036 27.9116 60.2347C30.9831 57.4891 34.5351 55.2972 38.0928 53.1017C40.2346 51.78 42.3785 50.457 44.4209 49.0112C45.6989 48.1058 46.7771 46.9153 48.0937 45.4615C48.7725 44.7118 49.5148 43.8922 50.3805 43.0056C50.3879 43.0413 50.3952 43.0771 50.4025 43.1128C53.7184 39.6628 58.3507 38.3141 60.578 38.0706C60.6377 38.1321 60.6976 38.194 60.7579 38.2562C63.1087 38.5041 65.438 38.7498 67.7515 38.9939C74.0905 39.6626 80.3112 40.3188 86.5323 40.9746C86.5845 40.6831 86.6368 40.3914 86.6891 40.0998C86.7415 39.8081 86.7938 39.5164 86.846 39.225C86.5155 39.0509 86.1895 38.8414 85.8635 38.6319C85.1616 38.1808 84.4596 37.7297 83.7126 37.6317C81.6872 37.3665 79.6731 37.0385 77.661 36.7109C70.5895 35.5595 63.5422 34.412 56.1141 36.0035C47.6376 37.8197 39.6401 39.804 31.7662 43.9658C23.7128 48.2231 18.8193 54.8741 13.8445 61.6355C13.5239 62.0713 13.2029 62.5075 12.8808 62.9436C9.93497 66.9308 7.38308 71.4538 5.73242 76.1218C1.78885 87.2719 0.931071 98.7544 2.61993 110.613C2.99364 113.235 1.9273 116.065 0.991107 118.55C0.599766 119.589 0.231166 120.567 0 121.445C0.612392 121.717 1.42453 121.953 2.2991 122.207C4.43069 122.827 6.93317 123.554 7.81843 125.176C13.5822 135.741 20.5992 144.507 30.7168 151.546C38.7331 157.124 46.8693 160.649 56.2224 162.139C58.8034 162.551 61.3699 163.055 63.6151 163.495Z" fill="#E7401B"/>
<path fill-rule="evenodd" clip-rule="evenodd" d="M60.7778 95.481L59.8656 94.1556C59.7111 94.8517 59.5702 95.5519 59.4293 96.2519C59.1165 97.8058 58.8038 99.3592 58.3442 100.867C57.6886 103.018 56.9208 105.134 56.153 107.25L56.1525 107.251C55.8261 108.151 55.4995 109.051 55.1817 109.953C54.644 109.901 54.1066 109.849 53.5692 109.798C53.0318 109.746 52.4944 109.694 51.9566 109.642C50.6182 105.119 49.2795 100.596 47.9407 96.073L47.8878 95.8943C46.6863 91.8349 45.4848 87.7756 44.2835 83.7163C45.6029 86.7339 46.9334 89.7787 48.3464 93.0121C49.0055 94.5203 49.6826 96.0696 50.3848 97.6764C50.438 96.6265 50.575 95.6328 50.7027 94.7062C50.9575 92.8576 51.1754 91.2764 50.6184 90.0507C49.9423 88.563 49.7682 86.8036 49.5938 85.0413C49.2266 81.33 48.8581 77.6058 43.7969 76.3791C43.7956 70.8079 43.7956 65.2354 43.7956 59.6629C44.1502 59.5557 44.5062 59.4485 44.8622 59.3414L44.8641 59.3408L44.8797 59.3361C49.9153 70.9861 54.9524 82.636 60.0023 94.3003C53.6835 71.4101 47.3508 48.5059 40.9661 25.4136L40.6845 24.3948C36.7941 27.6208 34.0696 22.9302 34.0696 22.9302L24.123 41.1052C24.123 41.1052 27.5105 49.1537 28.8296 53.3198C33.7314 68.8063 38.4437 84.3544 43.1474 99.9024C44.2479 103.537 45.2407 107.205 46.2335 110.873C46.689 112.556 47.1445 114.239 47.6105 115.919C47.0492 116.136 46.4865 116.351 45.9238 116.566L45.8997 116.51C42.9134 109.683 39.9271 102.855 36.9408 96.0258C40.3497 113.069 45.9552 129.126 56.5251 143.087C53.8498 136.942 51.176 130.798 48.5022 124.653C49.2956 124.241 50.089 123.827 50.8824 123.414L50.8854 123.412L50.8868 123.412L54.2052 129.62C56.4932 133.9 58.7809 138.18 61.0693 142.459C61.5864 142.213 62.1049 141.966 62.6234 141.72C61.159 136.452 59.6946 131.185 58.2302 125.918C62.0237 129.386 64.1875 129.163 68.6221 126.587C72.3332 124.432 73.6672 121.237 74.9775 118.098C75.746 116.257 76.5063 114.436 77.7333 112.855C82.4712 106.752 87.3046 100.72 92.1376 94.6893L92.1382 94.6885C100.272 84.5383 108.405 74.3894 116.081 63.8992C126.27 49.9757 135.947 35.6723 145.623 21.3699C149.144 16.165 152.665 10.9603 156.211 5.7741C157.024 4.58442 157.599 3.22909 158.174 1.87364C158.441 1.24358 158.708 0.613491 158.999 0C155.777 1.62088 153.77 3.92966 151.775 6.2456C148.888 9.59955 146.003 12.9554 143.119 16.3111C141.709 17.951 140.299 19.5909 138.889 21.2305L137.629 22.9014C135.884 25.2159 134.14 27.5298 132.395 29.8436C130.615 32.4933 128.835 35.1433 127.055 37.7934C125.27 40.4509 123.485 43.1085 121.699 45.7658L121.699 45.7438C121.699 44.0764 121.699 42.4104 121.701 40.743L119.759 40.4635C119.037 41.7817 118.364 43.1384 117.691 44.4952C116.184 47.5341 114.676 50.5731 112.625 53.1769C110.507 55.866 108.091 58.3166 105.674 60.7678C103.394 63.0807 101.113 65.3943 99.0807 67.9095C98.1449 69.0673 98.0568 70.9186 97.9688 72.7695C97.9286 73.6151 97.8883 74.4607 97.7673 75.24L102.181 71.3107C99.6488 75.1026 97.1167 78.8945 94.5846 82.6863C92.0598 86.4674 89.5349 90.2484 87.0097 94.0295C86.1619 93.4261 85.314 92.8213 84.4662 92.2166L84.4541 92.2079L96.6451 76.3532C93.1341 78.7801 89.6232 81.2076 86.1572 83.6041L79.8173 87.9874C82.9766 82.499 86.3536 76.63 89.7328 70.7572L89.8345 70.5805C89.7503 70.5234 89.6661 70.4663 89.582 70.4091L89.2994 70.2168C89.1208 70.0953 88.9422 69.9737 88.7633 69.8525C85.4094 73.9637 82.0554 78.0748 78.6921 82.1973L78.4346 82.5129C73.6562 88.3699 68.8587 94.2503 64.0166 100.186C62.6595 98.2153 61.6713 96.7793 60.7778 95.481ZM43.6691 76.3489C42.271 71.9932 40.8715 67.6376 39.472 63.2819L39.4705 63.2773L39.4608 63.2471L38.8813 63.4549C38.1475 63.7181 37.4143 63.9811 36.6801 64.2432C37.8689 67.2241 39.058 70.2054 40.2471 73.1866C41.3752 76.0149 42.5033 78.8432 43.6311 81.6712C43.631 80.8747 43.6307 80.0784 43.6304 79.2821C43.6301 78.3015 43.6297 77.3208 43.6297 76.3399C43.6429 76.3428 43.656 76.3459 43.6691 76.3489Z" fill="#E7401B"/>
<path d="M154.646 21.0197C149.272 28.5728 143.898 36.126 138.524 43.6791L138.008 44.4039C132.746 51.8004 127.483 59.1969 122.22 66.5934C121.912 66.3777 121.604 66.1621 121.295 65.9464C120.985 65.7293 120.674 65.5121 120.364 65.295C125.679 57.5916 130.994 49.8879 136.309 42.1842L136.385 42.0747C141.626 34.4782 146.867 26.8817 152.108 19.2856C152.954 19.8632 153.8 20.4407 154.646 21.0197Z" fill="#E7401B"/>
<path d="M108.892 41.8489C109.158 42.0865 109.423 42.3246 109.688 42.5626L109.696 42.5692C109.959 42.8055 110.223 43.0418 110.486 43.2777C117.404 40.1162 120.007 33.923 122.611 27.7297C124.598 23.0018 126.585 18.2739 130.492 14.8945L128.945 13.7938L108.892 41.8489Z" fill="#E7401B"/>
<path d="M138.887 21.2313C137.149 23.5351 135.412 25.8389 133.675 28.1434L132.393 29.8445C131.119 30.5023 129.845 31.1601 128.572 31.8165C128.456 31.4878 128.283 31.0911 128.11 30.6941C127.735 29.8361 127.36 28.977 127.563 28.8026C130.438 26.3457 133.426 24.024 136.415 21.7023C137.207 21.0866 138 20.4709 138.79 19.8527C138.823 20.3127 138.856 20.7727 138.887 21.2313Z" fill="#E7401B"/>
</svg>
