<svg width="136" height="126" viewBox="0 0 136 126" fill="none" xmlns="http://www.w3.org/2000/svg">
<path d="M126.196 70.6759C128.86 73.9884 132.676 76.3695 136 79.1498C135.787 79.7333 135.575 80.3185 135.362 80.902C131.449 81.8279 127.453 82.5099 123.667 83.8085C122.306 84.276 121.016 86.0527 120.427 87.5253C110.664 111.923 85.3003 127.536 59.5615 124.594C49.7433 123.471 63.0254 130.93 41.125 119.743C22.1023 110.023 9.8723 95.229 5.39791 74.0115C4.63245 70.3835 1.59166 67.2402 0 64.545C1.43687 62.7077 4.89289 60.2878 5.34317 57.3995C9.85392 28.4943 26.9933 9.47849 55.1725 2.71626C57.443 2.17107 59.4821 0.174357 61.7056 0.0278207C64.9167 -0.183086 68.1862 0.868515 71.4494 1.05069C79.0316 1.47359 86.4046 2.34443 92.3933 7.35279C92.2704 7.92977 89.2715 7.71793 89.1477 8.29404C81.1162 6.87614 75.4346 8.16619 68.5184 6.94526C66.1343 6.4395 60.2467 6.31879 55.7692 9.88211C35.7371 8.91211 10.6779 34.7928 10.8807 59.7732C10.6678 63.4585 10.9604 70.6648 11.1333 73.8074C8.83881 84.3872 24.5318 108.937 45.9492 115.613C50.2854 117.333 55.5893 118.28 57.6992 118.539C75.2353 123.406 103.797 115.686 117.512 81.487C121.501 73.3453 117.824 69.4483 115.487 68.5175C120.389 69.5191 123.905 68.3512 122.787 63.6855C122.591 62.867 121.946 62.1568 121.509 61.3976C123.938 64.6925 124.292 68.3091 126.196 70.6759Z" fill="#1B64FA"/>
<path d="M114.079 36.0984C107.874 44.7656 101.624 53.4015 95.4773 62.1116C91.2047 68.1662 87.0075 74.2773 82.9001 80.4479C79.0858 86.1787 75.5986 92.1383 71.6418 97.7625C69.81 100.366 67.2041 102.411 64.88 104.779C65.4053 106.564 65.9337 108.36 66.4611 110.156C66.2588 110.272 66.0565 110.387 65.8553 110.503C65.1896 109.558 64.4724 108.647 63.8697 107.664C62.5239 105.47 62.881 101.353 58.2741 102.885C57.7065 103.074 56.1925 102.021 55.951 101.269C54.1429 95.6461 52.5453 89.9539 51.4256 83.9797C53.3266 88.1843 55.2265 92.3879 57.1275 96.5925C57.5031 96.4379 57.8788 96.2833 58.2555 96.1287C56.2689 91.0811 54.2358 86.0523 52.3069 80.9837C48.0777 69.8721 43.93 58.728 39.6688 47.6289C39.1353 46.2396 37.8432 45.1323 37.387 43.7335C36.387 40.6634 33.3684 37.3247 38.6348 34.8406C40.4893 33.9663 41.7081 31.712 43.8929 29.3595C47.3161 40.2748 50.5215 50.4975 53.727 60.7201C52.4174 59.2305 51.1077 57.7419 49.6681 56.1039C49.3368 57.205 49.0994 57.9947 48.7681 59.0947C47.8631 58.2862 47.1097 57.6124 46.3563 56.9386C46.766 60.0077 47.6505 62.8094 49.1221 65.2475C49.9323 66.5878 52.02 67.0829 53.0293 68.3647C56.2162 72.4137 53.2419 78.9196 58.3061 82.3825C58.6157 82.5946 58.273 83.915 58.1058 84.6911C57.0666 89.5131 58.465 90.7886 63.1318 89.557C62.1978 85.7013 61.2669 81.8612 60.336 78.0212C61.9336 81.1854 63.5312 84.3485 65.557 88.3598C71.1206 80.6975 76.2302 73.6609 81.7308 66.0843C81.4026 68.207 81.1704 69.7091 80.7184 72.6351C85.2056 68.9507 88.6722 66.1031 92.1398 63.2565C91.9788 63.0058 91.8167 62.7561 91.6557 62.5054C91.0097 62.7739 90.3647 63.0413 89.7186 63.3098C91.8456 58.094 94.2771 53.0724 98.7374 49.4215C99.2442 49.0068 100.517 48.8877 100.524 48.6077C100.704 41.6631 107.615 39.8151 110.488 34.9555C110.889 34.2755 110.952 33.3782 111.118 32.5696C111.483 30.7917 111.22 28.4517 112.257 27.3162C117.96 21.0683 123.976 15.116 130.002 8.94336C126.195 15.1108 122.304 21.2887 118.55 27.5512C116.857 30.378 115.439 33.374 113.896 36.2927L114.079 36.0984Z" fill="#1B64FA"/>
<path d="M113.897 36.2929C116.893 32.4978 119.89 28.7016 122.886 24.9065C123.143 25.0747 123.4 25.2439 123.658 25.4121C119.02 32.5239 114.381 39.6357 109.743 46.7465C109.45 46.571 109.157 46.3955 108.863 46.2189C110.602 42.8458 112.342 39.4728 114.08 36.0986L113.897 36.2929Z" fill="#1B64FA"/>
</svg>
