<svg width="29" height="24" viewBox="0 0 29 24" fill="none" xmlns="http://www.w3.org/2000/svg">
<path d="M13.1452 23.4388C14.2537 21.3002 16.005 19.2312 18.0216 17.9186C19.2879 17.0942 19.5818 16.0542 20.8574 15.2441C21.298 14.9642 21.6752 14.5829 22.155 14.1873C18.7565 13.1634 16.1281 13.599 12.7891 13.6307C11.2748 13.6453 11.2379 13.5419 9.81721 13.9247C9.36837 14.0457 8.87103 14.0501 8.40466 14.0112C7.5666 13.9416 5.25502 14.0607 4.45461 14.1864C2.03883 14.1175 0.674751 12.753 0 11.6085C1.50005 11.626 3.00007 11.6476 4.50034 11.6593C5.61504 11.668 5.72365 11.712 6.83027 11.609C7.73565 11.5248 8.61549 11.1384 9.52159 11.0281C14.0757 10.4737 17.1718 10.226 21.7284 9.69686C21.799 9.68867 21.8631 9.61325 22.1127 9.4493C19.5407 6.3432 17.1762 4.35585 14.6185 1.26728C14.6396 1.21193 14.4675 0.0553484 14.4885 0C14.9132 0.208224 15.3605 0.381152 15.7587 0.630932C17.7849 1.90186 19.7638 3.19427 21.3392 5.07808C22.1986 6.10553 23.5015 6.75591 24.5888 7.59625C25.6529 8.41827 26.7484 9.21097 27.7288 10.1254C28.231 10.5936 28.5114 11.2992 29 12.0673C25.2171 15.64 21.3927 19.2518 17.5684 22.8635C17.6479 23.0228 16.0911 22.8017 14.9272 23.8124C14.3425 24.3199 13.6931 23.6613 13.1452 23.4388Z" fill="white"/>
</svg>
