<svg width="189" height="14" viewBox="0 0 189 14" fill="none" xmlns="http://www.w3.org/2000/svg">
<path d="M188.939 2.57531C183.183 2.71511 170.372 2.8819 168.989 3.05987C167.621 3.23586 165.546 3.71311 163.737 3.77941C155.805 4.07085 147.857 4.36984 139.522 4.54073C134.038 4.6532 131.73 3.96484 122.156 4.57898C107.069 5.18614 92.5795 5.94304 77.8564 6.64097C72.3171 6.90368 63.8894 6.09282 59.0319 6.47945C57.5257 6.59935 57.7058 8.39635 54.7126 8.67437C43.5826 9.70839 32.1463 10.6937 20.398 11.6194C12.1931 12.2655 9.97358 12.7635 1.53844 13.3293C-0.512207 13.3212 -0.324556 12.2505 2.74125 11.72C8.47185 10.7287 14.5622 9.78105 20.4935 8.8139C21.2887 8.68433 21.732 8.44983 22.84 8.43058C29.3577 9.29021 31.3846 7.56866 35.2231 7.04994C41.7606 6.16652 49.6992 5.45051 57.9574 4.835C68.1576 4.07477 79.7016 3.56787 89.9184 2.8107C108.193 1.45637 129.051 0.737962 150.008 0.0287925C150.839 0.000683252 165.409 1.2384 170.597 0.851135C176.614 0.402108 183.376 0.409554 186.68 1.26585C187.851 1.56926 188.596 1.71361 188.939 2.57531Z" fill="#1B64FA"/>
</svg>
