<svg width="138" height="20" viewBox="0 0 138 20" fill="none" xmlns="http://www.w3.org/2000/svg">
<path d="M1.25473e-07 2.02266C4.25484 2.39085 13.7643 3.08067 14.7477 3.29887C15.7204 3.51464 17.1383 4.03086 18.4692 4.16665C24.3062 4.76282 30.1528 5.36644 36.3229 5.87128C40.3829 6.2035 42.2917 5.68239 49.2653 6.63765C60.3526 7.81903 70.9541 9.10977 81.7457 10.3574C85.8057 10.8269 92.312 10.4536 95.8298 11.0057C96.9207 11.1769 96.2979 12.7837 98.4548 13.1597C106.475 14.5577 114.737 15.9249 123.248 17.2518C129.192 18.1781 130.712 18.719 136.85 19.5828C138.381 19.6621 138.532 18.6923 136.39 18.0864C132.385 16.9543 128.1 15.8463 123.939 14.7274C123.381 14.5775 123.114 14.3481 122.293 14.2841C117.198 14.7817 116.155 13.1496 113.433 12.5218C108.797 11.4526 103.07 10.4747 97.0782 9.57369C89.677 8.46077 81.2047 7.5188 73.7903 6.40792C60.5281 4.42093 45.1667 2.89636 29.7284 1.37589C29.1165 1.31562 17.9128 1.8134 14.1485 1.2468C9.78304 0.589804 4.73729 0.311453 2.0406 0.941481C1.08481 1.1647 0.490006 1.26298 1.25473e-07 2.02266Z" fill="#98A5B1"/>
</svg>
