<svg width="44" height="11" viewBox="0 0 44 11" fill="none" xmlns="http://www.w3.org/2000/svg">
<path d="M33.7393 8.81532C33.934 8.73397 34.1212 8.65572 34.2981 8.59388C34.43 9.16632 34.5704 9.77765 34.7105 10.3884C34.8307 10.1516 34.9509 9.91448 35.0793 9.66106C35.1398 9.54164 35.2022 9.4186 35.2673 9.29025C37.0507 11.1148 39.6667 10.868 39.5988 8.60055C41.198 9.30192 42.2699 7.75135 42.992 4.81695C41.909 2.86568 43.7845 2.05354 43 0.777701C43 0.499724 41.3306 0.167603 39.4538 0.786037C38.4981 1.1006 37.5243 1.23398 36.5559 1.28066C34.2544 1.39085 31.9525 1.46521 29.6506 1.53958C28.7596 1.56836 27.8685 1.59715 26.9775 1.62801C25.8466 1.66725 24.7157 1.70767 23.5849 1.7481C20.6952 1.85139 17.8056 1.95468 14.9158 2.03816C13.8146 2.07026 12.7133 2.0619 11.6119 2.05354C11.1113 2.04974 10.6107 2.04594 10.1101 2.04594L10.0793 2.71452L11.2606 3.3831L11.2276 4.10225H0.00154856L0 5.22432H7.47311C7.19035 5.95524 6.99796 6.45284 6.83825 6.86593C6.74779 7.09988 6.66782 7.30672 6.58785 7.51349C6.64919 7.59285 6.71046 7.69381 6.77172 7.79478C6.90354 8.012 7.03537 8.22925 7.16804 8.23153C9.28823 8.26977 11.4086 8.26745 13.6501 8.265C14.2098 8.26438 14.7771 8.26376 15.3538 8.26376L14.7163 6.49423C14.9775 6.49423 15.2372 6.49026 15.4957 6.48631C16.0803 6.47737 16.659 6.46852 17.2371 6.5059C18.1329 6.5637 19.0316 6.63484 19.921 6.85103C20.1604 6.909 20.394 7.08053 20.6275 7.25196C20.8685 7.42892 21.1094 7.60577 21.3562 7.65743C21.8756 7.7665 22.3977 7.82264 22.9196 7.87875C23.6183 7.95388 24.3167 8.02896 25.0075 8.23097C25.272 8.30831 25.5269 8.62055 25.7793 8.92979C26.0603 9.27394 26.3382 9.61437 26.6229 9.62315C28.5153 9.68206 30.4112 9.47976 32.303 9.26524C32.7975 9.20895 33.2884 9.0038 33.7393 8.81532Z" fill="black"/>
<path d="M28.5 0.5L0.5 2L1 1L30.5 0L28.5 0.5Z" fill="black"/>
</svg>
