<svg width="43" height="12" viewBox="0 0 43 12" fill="none" xmlns="http://www.w3.org/2000/svg">
<path d="M38.9311 11.0831C39.2614 11.2419 39.5916 11.4006 39.922 11.559C39.9212 11.7061 39.9205 11.8529 39.9198 12C37.9616 12 36.0032 12 33.8766 12C34.1221 11.3348 34.3411 10.7411 34.5225 10.2496C34.2409 10.3184 33.6872 10.498 33.1259 10.5804C32.244 10.7095 31.3577 10.8131 30.4714 10.855C29.3113 10.9098 28.1472 10.846 26.9898 10.945C26.724 10.9676 26.4792 11.4448 26.162 11.7788C26.0955 9.97133 25.196 9.77308 24.0547 9.80662C23.0091 9.8375 21.9329 9.72891 20.9206 9.3975C20.2966 9.19327 19.7663 8.45672 18.9958 7.78658C18.8359 8.00144 18.5608 8.37038 18.3916 8.59752C16.7361 8.28337 15.0432 7.96225 13.3506 7.64113C13.3306 7.69128 13.3103 7.74109 13.2903 7.79123C13.9589 8.17345 14.6275 8.55601 15.4136 9.00564C15.1619 9.30983 14.9379 9.81924 14.6894 9.84215C13.2135 9.9783 11.7318 10.0643 10.2528 10.0477C8.3317 10.0265 6.41134 9.88997 4.4905 9.81127C4.06283 9.79367 3.63443 9.80861 3.20628 9.80861C3.20945 9.67512 3.21262 9.54195 3.21603 9.40846C4.38029 9.48052 5.5443 9.55291 6.87461 9.63527C6.64468 9.05844 6.52448 8.75692 6.5096 8.71939C7.79236 6.82455 9.3894 7.76998 10.907 7.83573C10.9114 7.6584 10.9157 7.48074 10.9201 7.30341C7.28496 7.04339 3.65004 6.78304 0.0148732 6.52302C0.00999677 6.29854 0.0051203 6.07372 0 5.8489C3.90605 6.04649 7.78358 5.82732 11.6506 5.45273C11.6401 5.27175 11.6299 5.09077 11.6194 4.90978C11.1913 4.71983 10.7631 4.53022 10.3347 4.34027C10.3671 4.18652 10.3996 4.03243 10.4322 3.87868C15.6181 3.87868 20.8089 4.06365 25.9889 3.82588C31.0041 3.59575 33.8003 3.16073 38.9311 2.67489C39.8815 2 40.2862 1.10383 39.8815 0.467234C40.6681 0.293889 41.3291 0.148439 42.0028 0C42.674 0.732234 43.001 1.78193 43 2.67489C42.7676 3.4068 42.3485 4.14102 42.3534 4.86994C42.3587 5.65497 42.7613 6.43502 42.9907 7.21707C42.8713 7.18552 42.752 7.15397 42.6326 7.12276C42.4502 7.62586 42.1722 8.10637 42.1044 8.6367C41.9328 9.98029 41.2457 10.2835 40.4206 10.4107C39.9144 10.4887 39.4092 10.58 38.9035 10.6654C38.9125 10.8045 38.9218 10.944 38.9311 11.0831ZM11.9271 6.0455C12.3833 6.10228 12.8473 6.27596 13.2774 6.17766C13.6305 6.09697 13.9435 5.69283 14.4948 5.25847C12.248 4.51262 11.872 4.67368 11.9271 6.0455Z" fill="#010001"/>
</svg>
