<svg width="43" height="12" viewBox="0 0 43 12" fill="none" xmlns="http://www.w3.org/2000/svg">
<path d="M15.5163 9.21027C15.5386 9.87996 15.553 10.3141 15.5533 10.3231C12.7359 10.5106 9.99779 10.7244 7.25792 10.8543C6.47451 10.8913 5.73965 11.2658 4.92558 10.0781C4.41287 9.33031 3.21948 9.85693 2.33185 9.87996C1.58497 9.89928 0.839075 10.0169 0.0926857 10.0908C0.0617904 9.9038 0.0308952 9.71634 0 9.52929C1.90324 8.3223 3.75867 6.76588 5.72371 6.00699C7.66324 5.25796 9.71336 5.31593 11.7853 5.00925C11.7468 4.90031 11.6504 4.62734 11.4825 4.15128C20.3955 1.83022 29.3478 1.76896 38.287 1.40678C38.2909 1.17163 38.2946 0.936485 38.2985 0.701336C37.1319 0.595272 35.9655 0.489208 34.799 0.382734C34.7963 0.255293 34.7937 0.127441 34.7912 0C36.3629 0 37.9349 0 39.6756 0C39.4412 0.564029 39.2977 0.909352 39.1072 1.36732C39.4954 1.6666 39.8521 1.94121 40.28 2.27133C40.0282 2.43864 39.8276 2.57143 39.6111 2.71531C39.9556 4.12086 40.5936 4.49743 41.3689 4.11346C42.4728 3.5667 42.733 4.46043 42.7396 6.06249C42.7433 6.94758 42.8274 7.84419 42.9377 8.71325C43.1474 10.3634 42.8433 10.772 41.786 10.3815C40.8744 10.0448 39.9414 9.87009 38.8966 9.59177C39.0822 11.7024 38.2885 11.9782 37.4445 11.9885C35.8973 12.0074 34.3452 12.0275 32.8046 11.8327C32.296 11.7685 31.8361 10.7667 31.3214 10.668C28.6597 10.1574 25.9902 9.73402 23.3176 9.42158C22.1658 9.28674 20.8474 10.0962 19.8757 9.40514C18.364 8.3297 17.0282 9.13216 15.5163 9.21027Z" fill="black"/>
<path d="M14.0004 3C14.0004 7.2041 2.68189 3.31897 0.000866532 6C2.00087 4 10.8004 3 14.0004 3Z" fill="black"/>
</svg>
