<svg width="120" height="120" viewBox="0 0 120 120" fill="none" xmlns="http://www.w3.org/2000/svg">
<circle cx="60" cy="60" r="60" fill="white"/>
<path d="M39.1904 55.6621H40.9922L44.1475 64.3896L47.2939 55.6621H49.0957L44.9561 67H43.3389L39.1904 55.6621ZM53.3389 67H51.6338V55.6621H53.3389V67ZM64.6924 65.3828V67H57.0459V55.6621H64.5166V57.2793H58.751V60.3379H64.0596V61.9639H58.751V65.3828H64.6924ZM71.4492 67H70.2803L66.7646 55.6621H68.4785L70.9131 63.4932L73.251 55.6621H74.332L76.6699 63.4932L79.0957 55.6621H80.8096L77.3027 67H76.125L73.7871 59.4414L71.4492 67Z" fill="black"/>
</svg>
