<svg xmlns="http://www.w3.org/2000/svg">
  <symbol id="abstract-figures" viewBox="0 0 544 272" fill="none">
    <path opacity="0.5" d="M2 270V4.82843L267.172 270H2Z" stroke="#C4C4C4" stroke-width="4"/>
    <rect opacity="0.5" x="138" y="2" width="268" height="268" rx="134" stroke="#C4C4C4" stroke-width="4"/>
    <rect opacity="0.5" x="274" y="2" width="268" height="268" stroke="#C4C4C4" stroke-width="4"/>
  </symbol>

  <symbol id="abstract-figures-2" viewBox="0 0 579 386" fill="none">
    <g opacity="0.1">
      <rect x="2" y="-2" width="382" height="382" transform="matrix(1 0 0 -1 193 382)" stroke="white" stroke-width="4"/>
      <circle cx="193" cy="193" r="191" stroke="white" stroke-width="4"/>
      <path d="M195 384H574.172L195 4.82843V384Z" stroke="white" stroke-width="4"/>
    </g>
  </symbol>

  <symbol id="arrow" viewBox="0 0 30 30" fill="none">
    <path d="M30 30L30 3.33333L25 3.33333L25 21.6667L3.33333 -1.16564e-06L-1.45705e-07 3.33333L21.6667 25L3.33333 25L3.33333 30L30 30Z" fill="#131315"/>
  </symbol>

  <symbol id="arrow-top-white" viewBox="0 0 30 30" fill="none">
    <path d="M30 30L30 3.33333L25 3.33333L25 21.6667L3.33333 -1.16564e-06L-1.45705e-07 3.33333L21.6667 25L3.33333 25L3.33333 30L30 30Z" fill="#fff"/>
  </symbol>

  <symbol id="arrow-white" viewBox="0 0 24 24" fill="none">
    <path d="M24 24L24 2.66667L20 2.66667L20 17.3333L2.66667 -9.3251e-07L1.79078e-06 2.66667L17.3333 20L2.66667 20L2.66667 24L24 24Z" fill="#fff"/>
  </symbol>

  <symbol id="arrow-top" viewBox="0 0 12 12" fill="none">
    <path d="M12 0H1.33333V2H8.66667L0 10.6667L1.33333 12L10 3.33333V10.6667H12V0Z" fill="white"/>
  </symbol>

  <symbol id="lang" viewBox="0 0 16 16" fill="none">
    <path fill-rule="evenodd" clip-rule="evenodd" d="M8 14.5C11.5899 14.5 14.5 11.5899 14.5 8C14.5 4.41015 11.5899 1.5 8 1.5C4.41015 1.5 1.5 4.41015 1.5 8C1.5 11.5899 4.41015 14.5 8 14.5ZM8 16C12.4183 16 16 12.4183 16 8C16 3.58172 12.4183 0 8 0C3.58172 0 0 3.58172 0 8C0 12.4183 3.58172 16 8 16Z" fill="white"/>
    <path fill-rule="evenodd" clip-rule="evenodd" d="M15 5.75H1V4.25H15V5.75Z" fill="white"/>
    <path fill-rule="evenodd" clip-rule="evenodd" d="M15 10.75H1V9.25H15V10.75Z" fill="white"/>
    <path fill-rule="evenodd" clip-rule="evenodd" d="M4.25222 8.15586C4.19723 5.2047 5.17959 2.03355 7.57429 0.382531L8.42571 1.61747C6.61285 2.86735 5.70178 5.43493 5.75196 8.12792C5.80234 10.8315 6.81404 13.3088 8.41579 14.3758L7.58421 15.6242C5.39909 14.1686 4.30702 11.0965 4.25222 8.15586Z" fill="white"/>
    <path fill-rule="evenodd" clip-rule="evenodd" d="M11.7478 8.15586C11.8028 5.2047 10.8204 2.03355 8.42571 0.382531L7.57429 1.61747C9.38715 2.86735 10.2982 5.43493 10.248 8.12792C10.1977 10.8315 9.18596 13.3088 7.58421 14.3758L8.41579 15.6242C10.6009 14.1686 11.693 11.0965 11.7478 8.15586Z" fill="white"/>
  </symbol>

  <symbol id="logo" viewBox="0 0 171 25" fill="none">
    <path d="M159.562 12.809C159.562 13.5551 159.68 14.2356 159.918 14.8506C160.166 15.4556 160.5 15.9748 160.921 16.4083C161.341 16.8419 161.821 17.1796 162.361 17.4216C162.911 17.6535 163.471 17.7694 164.043 17.7694C164.615 17.7694 165.17 17.6535 165.709 17.4216C166.249 17.1796 166.723 16.8419 167.133 16.4083C167.543 15.9748 167.872 15.4556 168.12 14.8506C168.379 14.2356 168.508 13.5551 168.508 12.809C168.508 12.063 168.379 11.3875 168.12 10.7825C167.872 10.1776 167.543 9.65838 167.133 9.22485C166.723 8.79132 166.249 8.45861 165.709 8.22672C165.17 7.98475 164.615 7.86377 164.043 7.86377C163.471 7.86377 162.911 7.98475 162.361 8.22672C161.821 8.45861 161.341 8.79132 160.921 9.22485C160.5 9.65838 160.166 10.1776 159.918 10.7825C159.68 11.3875 159.562 12.063 159.562 12.809ZM171 12.809C171 13.8576 170.816 14.8204 170.45 15.6975C170.083 16.5646 169.587 17.3157 168.961 17.9509C168.336 18.576 167.597 19.065 166.745 19.4178C165.893 19.7606 164.992 19.932 164.043 19.932C163.094 19.932 162.193 19.7606 161.341 19.4178C160.489 19.065 159.745 18.576 159.109 17.9509C158.483 17.3157 157.987 16.5646 157.62 15.6975C157.264 14.8305 157.086 13.8676 157.086 12.809C157.086 11.7605 157.264 10.8027 157.62 9.93563C157.987 9.06857 158.483 8.3225 159.109 7.69741C159.745 7.06224 160.489 6.56822 161.341 6.21534C162.193 5.86247 163.094 5.68604 164.043 5.68604C164.992 5.68604 165.893 5.86247 166.745 6.21534C167.597 6.56822 168.336 7.06224 168.961 7.69741C169.587 8.3225 170.083 9.06857 170.45 9.93563C170.816 10.8027 171 11.7605 171 12.809Z" fill="#98A5B1"/>
    <path d="M155.276 19.932H152.882V5.68606H155.276V19.932ZM152.571 1.66876C152.571 1.22582 152.711 0.865295 152.991 0.587174C153.281 0.298752 153.639 0.154541 154.063 0.154541C154.509 0.154541 154.872 0.298752 155.151 0.587174C155.441 0.865295 155.586 1.22582 155.586 1.66876C155.586 2.09109 155.441 2.44647 155.151 2.73489C154.872 3.02331 154.509 3.16752 154.063 3.16752C153.639 3.16752 153.281 3.02331 152.991 2.73489C152.711 2.44647 152.571 2.09109 152.571 1.66876Z" fill="#98A5B1"/>
    <path d="M148.896 12.809C148.896 12.0468 148.771 11.3566 148.523 10.7386C148.284 10.1205 147.963 9.59003 147.559 9.14709C147.155 8.70416 146.678 8.36424 146.129 8.12732C145.59 7.8801 145.026 7.75649 144.435 7.75649C143.845 7.75649 143.275 7.8801 142.726 8.12732C142.187 8.36424 141.715 8.70416 141.311 9.14709C140.907 9.59003 140.581 10.1205 140.332 10.7386C140.094 11.3566 139.975 12.0468 139.975 12.809C139.975 13.5713 140.094 14.2666 140.332 14.8949C140.581 15.513 140.907 16.0435 141.311 16.4864C141.715 16.9293 142.187 17.2744 142.726 17.5216C143.275 17.7585 143.845 17.877 144.435 17.877C145.026 17.877 145.59 17.7585 146.129 17.5216C146.678 17.2744 147.155 16.9293 147.559 16.4864C147.963 16.0435 148.284 15.513 148.523 14.8949C148.771 14.2666 148.896 13.5713 148.896 12.809ZM148.569 18.356C148.248 18.6959 147.891 18.9895 147.497 19.2367C147.134 19.4736 146.684 19.6745 146.145 19.8393C145.616 20.0041 144.995 20.0865 144.28 20.0865C143.368 20.0865 142.503 19.9114 141.684 19.5612C140.866 19.2007 140.151 18.7011 139.539 18.0624C138.938 17.4135 138.462 16.6461 138.11 15.7602C137.768 14.8743 137.597 13.8906 137.597 12.809C137.597 11.7377 137.768 10.7592 138.11 9.8733C138.462 8.98743 138.938 8.22517 139.539 7.58653C140.151 6.93758 140.866 6.43284 141.684 6.07231C142.503 5.71178 143.368 5.53152 144.28 5.53152C145.005 5.53152 145.632 5.63453 146.16 5.84054C146.689 6.03626 147.134 6.25258 147.497 6.48949C147.901 6.76761 148.258 7.08179 148.569 7.43201V0H150.963V19.932H149.207L148.569 18.356Z" fill="#98A5B1"/>
    <path d="M129.585 20.0865C128.819 20.0865 128.099 19.9372 127.425 19.6384C126.762 19.3294 126.171 18.9071 125.653 18.3714C125.146 17.8255 124.742 17.1766 124.441 16.4246C124.151 15.6623 124.006 14.828 124.006 13.9215V5.68604H126.399V13.9215C126.399 14.5087 126.487 15.0443 126.664 15.5284C126.85 16.0126 127.099 16.4298 127.41 16.78C127.731 17.1302 128.104 17.4032 128.529 17.5989C128.953 17.7843 129.409 17.877 129.896 17.877C131.026 17.877 131.943 17.5216 132.647 16.8109C133.362 16.0898 133.72 15.1267 133.72 13.9215V5.68604H136.098V19.932H134.357L133.72 18.356C133.419 18.6959 133.067 18.9895 132.663 19.2367C132.3 19.4736 131.865 19.6745 131.357 19.8393C130.86 20.0041 130.269 20.0865 129.585 20.0865Z" fill="#98A5B1"/>
    <path d="M117.199 1.90039H119.266V5.68593H122.452V7.9109H119.266V15.3429C119.266 16.1464 119.483 16.7696 119.918 17.2125C120.354 17.6554 120.934 17.8769 121.659 17.8769C121.866 17.8769 122.058 17.8563 122.234 17.8151C122.317 17.7945 122.39 17.7636 122.452 17.7224V19.7774C122.348 19.8392 122.234 19.8907 122.11 19.9319C121.83 20.0349 121.467 20.0864 121.022 20.0864C120.473 20.0864 119.95 19.9731 119.452 19.7465C118.955 19.5096 118.514 19.1851 118.131 18.7731C117.748 18.361 117.442 17.8666 117.214 17.2898C116.997 16.7129 116.888 16.064 116.888 15.3429V7.9109H114.339V5.68593H115.458C116.629 5.68593 117.209 5.10908 117.199 3.9554V1.90039Z" fill="#98A5B1"/>
    <path d="M32.1024 1.90039H34.1695V5.68593H37.3556V7.9109H34.1695V15.3429C34.1695 16.1464 34.3871 16.7696 34.8223 17.2125C35.2574 17.6554 35.8377 17.8769 36.563 17.8769C36.7702 17.8769 36.9619 17.8563 37.138 17.8151C37.2209 17.7945 37.2934 17.7636 37.3556 17.7224V19.7774C37.252 19.8392 37.138 19.8907 37.0137 19.9319C36.7339 20.0349 36.3713 20.0864 35.9257 20.0864C35.3766 20.0864 34.8533 19.9731 34.356 19.7465C33.8586 19.5096 33.4183 19.1851 33.0349 18.7731C32.6516 18.361 32.3459 17.8666 32.1179 17.2898C31.9004 16.7129 31.7916 16.064 31.7916 15.3429V7.9109H29.2427V5.68593H30.3617C31.5325 5.68593 32.1128 5.10908 32.1024 3.9554V1.90039Z" fill="#131315"/>
    <path d="M112.948 15.822C112.948 16.4091 112.829 16.9602 112.591 17.4753C112.363 17.9903 112.036 18.4435 111.611 18.835C111.187 19.2264 110.674 19.5354 110.073 19.762C109.472 19.9783 108.788 20.0865 108.021 20.0865C106.426 20.0865 105.172 19.6642 104.26 18.8195C103.348 17.9748 102.851 16.9242 102.768 15.6675H105.162C105.244 16.2958 105.519 16.8212 105.985 17.2435C106.452 17.6658 107.13 17.877 108.021 17.877C108.829 17.877 109.456 17.671 109.902 17.2589C110.347 16.8469 110.57 16.3679 110.57 15.822C110.57 15.2966 110.384 14.9001 110.011 14.6322C109.638 14.3644 109.177 14.1532 108.627 13.9987C108.078 13.8442 107.477 13.7 106.825 13.5661C106.182 13.4219 105.581 13.2159 105.022 12.9481C104.473 12.6699 104.011 12.2785 103.638 11.7738C103.265 11.2587 103.079 10.548 103.079 9.64151C103.079 9.09557 103.193 8.57538 103.421 8.08094C103.659 7.5865 103.986 7.14872 104.4 6.76759C104.814 6.38646 105.312 6.08774 105.892 5.87142C106.483 5.6448 107.141 5.53149 107.866 5.53149C109.389 5.53149 110.57 5.92807 111.409 6.72123C112.249 7.51439 112.71 8.54447 112.793 9.81147H110.399C110.316 9.18312 110.073 8.68353 109.669 8.31271C109.265 7.94188 108.664 7.75646 107.866 7.75646C107.141 7.75646 106.56 7.95218 106.125 8.34361C105.69 8.72474 105.472 9.15737 105.472 9.64151C105.472 10.1668 105.659 10.5634 106.032 10.8312C106.405 11.0991 106.866 11.3154 107.415 11.4802C107.964 11.6347 108.56 11.7789 109.202 11.9128C109.855 12.0467 110.456 12.2528 111.005 12.5309C111.565 12.7987 112.026 13.1953 112.389 13.7206C112.762 14.2357 112.948 14.9361 112.948 15.822Z" fill="#98A5B1"/>
    <path d="M97.2275 18.5104C97.2275 18.0263 97.3674 17.64 97.6472 17.3516C97.9373 17.0632 98.3258 16.9189 98.8128 16.9189C99.2998 16.9189 99.6832 17.0632 99.9629 17.3516C100.253 17.64 100.398 18.0263 100.398 18.5104C100.398 18.9946 100.253 19.3808 99.9629 19.6693C99.6832 19.9474 99.2998 20.0864 98.8128 20.0864C98.3258 20.0864 97.9373 19.9474 97.6472 19.6693C97.3674 19.3808 97.2275 18.9946 97.2275 18.5104Z" fill="#1B64FA"/>
    <path d="M89.2923 5.53149C90.059 5.53149 90.774 5.68601 91.4371 5.99503C92.1106 6.30405 92.7012 6.72638 93.2089 7.26203C93.7166 7.79767 94.1155 8.44662 94.4056 9.20887C94.7061 9.96083 94.8563 10.7952 94.8563 11.712V19.932H92.4784V11.712C92.4784 11.1248 92.38 10.5892 92.1831 10.105C91.9966 9.6106 91.7427 9.18827 91.4215 8.83805C91.1003 8.48782 90.7273 8.22 90.3025 8.03458C89.8881 7.84917 89.4425 7.75646 88.9659 7.75646C87.8365 7.75646 86.9195 8.11699 86.215 8.83805C85.5104 9.5488 85.1581 10.5068 85.1581 11.712V19.932H82.7646V5.68601H84.5209L85.1581 7.27748C85.4586 6.95815 85.8057 6.67488 86.1994 6.42766C86.5621 6.19074 86.9973 5.98473 87.505 5.80962C88.0127 5.6242 88.6084 5.53149 89.2923 5.53149Z" fill="#131315"/>
    <path d="M81.009 19.932H78.6155V5.68606H81.009V19.932ZM78.3047 1.66876C78.3047 1.22582 78.4446 0.865295 78.7243 0.587174C79.0144 0.298752 79.3719 0.154541 79.7967 0.154541C80.2423 0.154541 80.6049 0.298752 80.8847 0.587174C81.1748 0.865295 81.3198 1.22582 81.3198 1.66876C81.3198 2.09109 81.1748 2.44647 80.8847 2.73489C80.6049 3.02331 80.2423 3.16752 79.7967 3.16752C79.3719 3.16752 79.0144 3.02331 78.7243 2.73489C78.4446 2.44647 78.3047 2.09109 78.3047 1.66876Z" fill="#131315"/>
    <path d="M65.5065 12.809C65.5065 13.5713 65.6257 14.2666 65.864 14.8949C66.1127 15.513 66.4391 16.0434 66.8432 16.4864C67.2472 16.9293 67.7187 17.2744 68.2575 17.5216C68.8066 17.7585 69.3765 17.877 69.9671 17.877C70.5577 17.877 71.1224 17.7585 71.6612 17.5216C72.2103 17.2744 72.6869 16.9293 73.091 16.4864C73.4951 16.0434 73.8163 15.513 74.0546 14.8949C74.3033 14.2666 74.4276 13.5713 74.4276 12.809C74.4276 12.0467 74.3033 11.3566 74.0546 10.7385C73.8163 10.1205 73.4951 9.59 73.091 9.14707C72.6869 8.70414 72.2103 8.36421 71.6612 8.12729C71.1224 7.88007 70.5577 7.75646 69.9671 7.75646C69.3765 7.75646 68.8066 7.88007 68.2575 8.12729C67.7187 8.36421 67.2472 8.70414 66.8432 9.14707C66.4391 9.59 66.1127 10.1205 65.864 10.7385C65.6257 11.3566 65.5065 12.0467 65.5065 12.809ZM65.8329 7.27748C66.1334 6.95815 66.4909 6.67488 66.9053 6.42766C67.268 6.19074 67.7135 5.98473 68.2419 5.80962C68.7807 5.6242 69.4076 5.53149 70.1225 5.53149C71.0343 5.53149 71.8995 5.71176 72.718 6.07229C73.5366 6.43281 74.2463 6.93755 74.8473 7.5865C75.4586 8.22515 75.9352 8.98741 76.2771 9.87327C76.6294 10.7591 76.8056 11.7377 76.8056 12.809C76.8056 13.8803 76.6294 14.864 76.2771 15.7602C75.9352 16.646 75.4586 17.4134 74.8473 18.0624C74.2463 18.701 73.5366 19.2006 72.718 19.5612C71.8995 19.9114 71.0343 20.0865 70.1225 20.0865C69.3972 20.0865 68.7704 19.9886 68.2419 19.7929C67.7135 19.5869 67.268 19.3706 66.9053 19.144C66.4805 18.8659 66.123 18.5465 65.8329 18.186V25H63.4395V5.68601H65.1957L65.8329 7.27748Z" fill="#131315"/>
    <path d="M27.8526 7.91111H26.6163C25.4869 7.91111 24.5699 8.27164 23.8654 8.9927C23.1608 9.70345 22.8085 10.6614 22.8085 11.8666V19.9321H20.415V5.68614H22.1713L22.8085 7.27762C23.109 6.95829 23.4561 6.67502 23.8498 6.4278C24.2125 6.19088 24.6476 5.98487 25.1553 5.80975C26.0614 5.47886 26.9284 5.52921 27.8526 5.68614V7.91111Z" fill="#131315"/>
    <path d="M47.1197 7.91111H45.8834C44.754 7.91111 43.837 8.27164 43.1325 8.9927C42.4279 9.70345 42.0756 10.6614 42.0756 11.8666V19.9321H39.6821V5.68614H41.4384L42.0756 7.27762C42.3761 6.95829 42.7232 6.67502 43.1169 6.4278C43.4796 6.19088 43.9147 5.98487 44.4224 5.80975C45.3285 5.47886 46.1955 5.52921 47.1197 5.68614V7.91111Z" fill="#131315"/>
    <path d="M61.658 15.9009C61.4005 16.4153 61.0757 16.9244 60.6837 17.4283C60.2918 17.9217 59.8326 18.3521 59.3063 18.7195C58.78 19.0764 58.1808 19.3704 57.5089 19.6013C56.8482 19.8218 56.1091 19.932 55.2915 19.932C54.3061 19.932 53.371 19.7535 52.4863 19.3966C51.6016 19.0292 50.8288 18.5201 50.1681 17.8692C49.5186 17.2079 49.0035 16.4258 48.6227 15.523C48.2531 14.6202 48.0684 13.6177 48.0684 12.5154C48.0684 11.4237 48.2531 10.4264 48.6227 9.52362C49.0035 8.62083 49.513 7.844 50.1513 7.19315C50.8009 6.5318 51.5568 6.01742 52.4191 5.65C53.2814 5.28259 54.1829 5.09888 55.1236 5.09888C56.0643 5.09888 56.949 5.27209 57.7777 5.61851C58.6176 5.96493 59.3455 6.45832 59.9614 7.09867C60.5885 7.72853 61.0813 8.48961 61.4397 9.3819C61.8092 10.2742 61.994 11.2662 61.994 12.358C61.994 12.5679 61.9828 12.7516 61.9604 12.9091C61.938 13.0561 61.9156 13.182 61.8932 13.287C61.8708 13.413 61.8484 13.5337 61.826 13.6492H50.8232C50.868 14.1636 51.0192 14.6675 51.2768 15.1608C51.5456 15.6542 51.8759 16.0846 52.2679 16.452C52.671 16.8195 53.1358 17.1186 53.6621 17.3496C54.1997 17.57 54.7428 17.6803 55.2915 17.6803C55.7731 17.6803 56.1986 17.6173 56.5682 17.4913C56.949 17.3548 57.2961 17.2026 57.6097 17.0347C57.9232 16.8667 58.1808 16.683 58.3824 16.4835C58.5952 16.2736 58.7688 16.0794 58.9031 15.9009H61.658ZM55.1236 7.36636C54.5972 7.36636 54.0933 7.47134 53.6117 7.68129C53.1414 7.89124 52.7102 8.17993 52.3183 8.54734C51.9375 8.91476 51.6128 9.35566 51.344 9.87004C51.0864 10.3844 50.9128 10.946 50.8232 11.5549H59.2391C59.0599 10.2637 58.584 9.24543 57.8113 8.5001C57.0497 7.74428 56.1538 7.36636 55.1236 7.36636Z" fill="#131315"/>
    <path d="M13.9141 15.3149H4.98492L2.92046 19.9319H0L8.25785 1.14331H10.658L18.8991 19.9319H15.9786L13.9141 15.3149ZM5.84092 13.2176H13.0581L9.44953 5.01755L5.84092 13.2176Z" fill="#131315"/>
  </symbol>

  <symbol id="logo-white" viewBox="0 0 171 25"  fill="none">
    <path d="M159.562 12.809C159.562 13.5551 159.68 14.2356 159.918 14.8506C160.166 15.4556 160.5 15.9748 160.921 16.4083C161.341 16.8419 161.821 17.1796 162.361 17.4216C162.911 17.6535 163.471 17.7694 164.043 17.7694C164.615 17.7694 165.17 17.6535 165.709 17.4216C166.249 17.1796 166.723 16.8419 167.133 16.4083C167.543 15.9748 167.872 15.4556 168.12 14.8506C168.379 14.2356 168.508 13.5551 168.508 12.809C168.508 12.063 168.379 11.3875 168.12 10.7825C167.872 10.1776 167.543 9.65838 167.133 9.22485C166.723 8.79132 166.249 8.45861 165.709 8.22672C165.17 7.98475 164.615 7.86377 164.043 7.86377C163.471 7.86377 162.911 7.98475 162.361 8.22672C161.821 8.45861 161.341 8.79132 160.921 9.22485C160.5 9.65838 160.166 10.1776 159.918 10.7825C159.68 11.3875 159.562 12.063 159.562 12.809ZM171 12.809C171 13.8576 170.816 14.8204 170.45 15.6975C170.083 16.5646 169.587 17.3157 168.961 17.9509C168.336 18.576 167.597 19.065 166.745 19.4178C165.893 19.7606 164.992 19.932 164.043 19.932C163.094 19.932 162.193 19.7606 161.341 19.4178C160.489 19.065 159.745 18.576 159.109 17.9509C158.483 17.3157 157.987 16.5646 157.62 15.6975C157.264 14.8305 157.086 13.8676 157.086 12.809C157.086 11.7605 157.264 10.8027 157.62 9.93563C157.987 9.06857 158.483 8.3225 159.109 7.69741C159.745 7.06224 160.489 6.56822 161.341 6.21534C162.193 5.86247 163.094 5.68604 164.043 5.68604C164.992 5.68604 165.893 5.86247 166.745 6.21534C167.597 6.56822 168.336 7.06224 168.961 7.69741C169.587 8.3225 170.083 9.06857 170.45 9.93563C170.816 10.8027 171 11.7605 171 12.809Z" fill="#98A5B1"/>
    <path d="M155.276 19.932H152.882V5.68606H155.276V19.932ZM152.571 1.66876C152.571 1.22582 152.711 0.865295 152.991 0.587174C153.281 0.298752 153.639 0.154541 154.063 0.154541C154.509 0.154541 154.872 0.298752 155.151 0.587174C155.441 0.865295 155.586 1.22582 155.586 1.66876C155.586 2.09109 155.441 2.44647 155.151 2.73489C154.872 3.02331 154.509 3.16752 154.063 3.16752C153.639 3.16752 153.281 3.02331 152.991 2.73489C152.711 2.44647 152.571 2.09109 152.571 1.66876Z" fill="#98A5B1"/>
    <path d="M148.896 12.809C148.896 12.0468 148.771 11.3566 148.523 10.7386C148.284 10.1205 147.963 9.59003 147.559 9.14709C147.155 8.70416 146.678 8.36424 146.129 8.12732C145.59 7.8801 145.026 7.75649 144.435 7.75649C143.845 7.75649 143.275 7.8801 142.726 8.12732C142.187 8.36424 141.715 8.70416 141.311 9.14709C140.907 9.59003 140.581 10.1205 140.332 10.7386C140.094 11.3566 139.975 12.0468 139.975 12.809C139.975 13.5713 140.094 14.2666 140.332 14.8949C140.581 15.513 140.907 16.0435 141.311 16.4864C141.715 16.9293 142.187 17.2744 142.726 17.5216C143.275 17.7585 143.845 17.877 144.435 17.877C145.026 17.877 145.59 17.7585 146.129 17.5216C146.678 17.2744 147.155 16.9293 147.559 16.4864C147.963 16.0435 148.284 15.513 148.523 14.8949C148.771 14.2666 148.896 13.5713 148.896 12.809ZM148.569 18.356C148.248 18.6959 147.891 18.9895 147.497 19.2367C147.134 19.4736 146.684 19.6745 146.145 19.8393C145.616 20.0041 144.995 20.0865 144.28 20.0865C143.368 20.0865 142.503 19.9114 141.684 19.5612C140.866 19.2007 140.151 18.7011 139.539 18.0624C138.938 17.4135 138.462 16.6461 138.11 15.7602C137.768 14.8743 137.597 13.8906 137.597 12.809C137.597 11.7377 137.768 10.7592 138.11 9.8733C138.462 8.98743 138.938 8.22517 139.539 7.58653C140.151 6.93758 140.866 6.43284 141.684 6.07231C142.503 5.71178 143.368 5.53152 144.28 5.53152C145.005 5.53152 145.632 5.63453 146.16 5.84054C146.689 6.03626 147.134 6.25258 147.497 6.48949C147.901 6.76761 148.258 7.08179 148.569 7.43201V0H150.963V19.932H149.207L148.569 18.356Z" fill="#98A5B1"/>
    <path d="M129.585 20.0865C128.819 20.0865 128.099 19.9372 127.425 19.6384C126.762 19.3294 126.171 18.9071 125.653 18.3714C125.146 17.8255 124.742 17.1766 124.441 16.4246C124.151 15.6623 124.006 14.828 124.006 13.9215V5.68604H126.399V13.9215C126.399 14.5087 126.487 15.0443 126.664 15.5284C126.85 16.0126 127.099 16.4298 127.41 16.78C127.731 17.1302 128.104 17.4032 128.529 17.5989C128.953 17.7843 129.409 17.877 129.896 17.877C131.026 17.877 131.943 17.5216 132.647 16.8109C133.362 16.0898 133.72 15.1267 133.72 13.9215V5.68604H136.098V19.932H134.357L133.72 18.356C133.419 18.6959 133.067 18.9895 132.663 19.2367C132.3 19.4736 131.865 19.6745 131.357 19.8393C130.86 20.0041 130.269 20.0865 129.585 20.0865Z" fill="#98A5B1"/>
    <path d="M117.199 1.90039H119.266V5.68593H122.452V7.9109H119.266V15.3429C119.266 16.1464 119.483 16.7696 119.918 17.2125C120.354 17.6554 120.934 17.8769 121.659 17.8769C121.866 17.8769 122.058 17.8563 122.234 17.8151C122.317 17.7945 122.39 17.7636 122.452 17.7224V19.7774C122.348 19.8392 122.234 19.8907 122.11 19.9319C121.83 20.0349 121.467 20.0864 121.022 20.0864C120.473 20.0864 119.95 19.9731 119.452 19.7465C118.955 19.5096 118.514 19.1851 118.131 18.7731C117.748 18.361 117.442 17.8666 117.214 17.2898C116.997 16.7129 116.888 16.064 116.888 15.3429V7.9109H114.339V5.68593H115.458C116.629 5.68593 117.209 5.10908 117.199 3.9554V1.90039Z" fill="#98A5B1"/>
    <path d="M32.1024 1.90039H34.1695V5.68593H37.3556V7.9109H34.1695V15.3429C34.1695 16.1464 34.3871 16.7696 34.8223 17.2125C35.2574 17.6554 35.8377 17.8769 36.563 17.8769C36.7702 17.8769 36.9619 17.8563 37.138 17.8151C37.2209 17.7945 37.2934 17.7636 37.3556 17.7224V19.7774C37.252 19.8392 37.138 19.8907 37.0137 19.9319C36.7339 20.0349 36.3713 20.0864 35.9257 20.0864C35.3766 20.0864 34.8533 19.9731 34.356 19.7465C33.8586 19.5096 33.4183 19.1851 33.0349 18.7731C32.6516 18.361 32.3459 17.8666 32.1179 17.2898C31.9004 16.7129 31.7916 16.064 31.7916 15.3429V7.9109H29.2427V5.68593H30.3617C31.5325 5.68593 32.1128 5.10908 32.1024 3.9554V1.90039Z" fill="white"/>
    <path d="M112.948 15.822C112.948 16.4091 112.829 16.9602 112.591 17.4753C112.363 17.9903 112.036 18.4435 111.611 18.835C111.187 19.2264 110.674 19.5354 110.073 19.762C109.472 19.9783 108.788 20.0865 108.021 20.0865C106.426 20.0865 105.172 19.6642 104.26 18.8195C103.348 17.9748 102.851 16.9242 102.768 15.6675H105.162C105.244 16.2958 105.519 16.8212 105.985 17.2435C106.452 17.6658 107.13 17.877 108.021 17.877C108.829 17.877 109.456 17.671 109.902 17.2589C110.347 16.8469 110.57 16.3679 110.57 15.822C110.57 15.2966 110.384 14.9001 110.011 14.6322C109.638 14.3644 109.177 14.1532 108.627 13.9987C108.078 13.8442 107.477 13.7 106.825 13.5661C106.182 13.4219 105.581 13.2159 105.022 12.9481C104.473 12.6699 104.011 12.2785 103.638 11.7738C103.265 11.2587 103.079 10.548 103.079 9.64151C103.079 9.09557 103.193 8.57538 103.421 8.08094C103.659 7.5865 103.986 7.14872 104.4 6.76759C104.814 6.38646 105.312 6.08774 105.892 5.87142C106.483 5.6448 107.141 5.53149 107.866 5.53149C109.389 5.53149 110.57 5.92807 111.409 6.72123C112.249 7.51439 112.71 8.54447 112.793 9.81147H110.399C110.316 9.18312 110.073 8.68353 109.669 8.31271C109.265 7.94188 108.664 7.75646 107.866 7.75646C107.141 7.75646 106.56 7.95218 106.125 8.34361C105.69 8.72474 105.472 9.15737 105.472 9.64151C105.472 10.1668 105.659 10.5634 106.032 10.8312C106.405 11.0991 106.866 11.3154 107.415 11.4802C107.964 11.6347 108.56 11.7789 109.202 11.9128C109.855 12.0467 110.456 12.2528 111.005 12.5309C111.565 12.7987 112.026 13.1953 112.389 13.7206C112.762 14.2357 112.948 14.9361 112.948 15.822Z" fill="#98A5B1"/>
    <path d="M97.2275 18.5104C97.2275 18.0263 97.3674 17.64 97.6472 17.3516C97.9373 17.0632 98.3258 16.9189 98.8128 16.9189C99.2998 16.9189 99.6832 17.0632 99.9629 17.3516C100.253 17.64 100.398 18.0263 100.398 18.5104C100.398 18.9946 100.253 19.3808 99.9629 19.6693C99.6832 19.9474 99.2998 20.0864 98.8128 20.0864C98.3258 20.0864 97.9373 19.9474 97.6472 19.6693C97.3674 19.3808 97.2275 18.9946 97.2275 18.5104Z" fill="#1B64FA"/>
    <path d="M89.2923 5.53149C90.059 5.53149 90.774 5.68601 91.4371 5.99503C92.1106 6.30405 92.7012 6.72638 93.2089 7.26203C93.7166 7.79767 94.1155 8.44662 94.4056 9.20887C94.7061 9.96083 94.8563 10.7952 94.8563 11.712V19.932H92.4784V11.712C92.4784 11.1248 92.38 10.5892 92.1831 10.105C91.9966 9.6106 91.7427 9.18827 91.4215 8.83805C91.1003 8.48782 90.7273 8.22 90.3025 8.03458C89.8881 7.84917 89.4425 7.75646 88.9659 7.75646C87.8365 7.75646 86.9195 8.11699 86.215 8.83805C85.5104 9.5488 85.1581 10.5068 85.1581 11.712V19.932H82.7646V5.68601H84.5209L85.1581 7.27748C85.4586 6.95815 85.8057 6.67488 86.1994 6.42766C86.5621 6.19074 86.9973 5.98473 87.505 5.80962C88.0127 5.6242 88.6084 5.53149 89.2923 5.53149Z" fill="white"/>
    <path d="M81.009 19.932H78.6155V5.68606H81.009V19.932ZM78.3047 1.66876C78.3047 1.22582 78.4446 0.865295 78.7243 0.587174C79.0144 0.298752 79.3719 0.154541 79.7967 0.154541C80.2423 0.154541 80.6049 0.298752 80.8847 0.587174C81.1748 0.865295 81.3198 1.22582 81.3198 1.66876C81.3198 2.09109 81.1748 2.44647 80.8847 2.73489C80.6049 3.02331 80.2423 3.16752 79.7967 3.16752C79.3719 3.16752 79.0144 3.02331 78.7243 2.73489C78.4446 2.44647 78.3047 2.09109 78.3047 1.66876Z" fill="white"/>
    <path d="M65.5065 12.809C65.5065 13.5713 65.6257 14.2666 65.864 14.8949C66.1127 15.513 66.4391 16.0434 66.8432 16.4864C67.2472 16.9293 67.7187 17.2744 68.2575 17.5216C68.8066 17.7585 69.3765 17.877 69.9671 17.877C70.5577 17.877 71.1224 17.7585 71.6612 17.5216C72.2103 17.2744 72.6869 16.9293 73.091 16.4864C73.4951 16.0434 73.8163 15.513 74.0546 14.8949C74.3033 14.2666 74.4276 13.5713 74.4276 12.809C74.4276 12.0467 74.3033 11.3566 74.0546 10.7385C73.8163 10.1205 73.4951 9.59 73.091 9.14707C72.6869 8.70414 72.2103 8.36421 71.6612 8.12729C71.1224 7.88007 70.5577 7.75646 69.9671 7.75646C69.3765 7.75646 68.8066 7.88007 68.2575 8.12729C67.7187 8.36421 67.2472 8.70414 66.8432 9.14707C66.4391 9.59 66.1127 10.1205 65.864 10.7385C65.6257 11.3566 65.5065 12.0467 65.5065 12.809ZM65.8329 7.27748C66.1334 6.95815 66.4909 6.67488 66.9053 6.42766C67.268 6.19074 67.7135 5.98473 68.2419 5.80962C68.7807 5.6242 69.4076 5.53149 70.1225 5.53149C71.0343 5.53149 71.8995 5.71176 72.718 6.07229C73.5366 6.43281 74.2463 6.93755 74.8473 7.5865C75.4586 8.22515 75.9352 8.98741 76.2771 9.87327C76.6294 10.7591 76.8056 11.7377 76.8056 12.809C76.8056 13.8803 76.6294 14.864 76.2771 15.7602C75.9352 16.646 75.4586 17.4134 74.8473 18.0624C74.2463 18.701 73.5366 19.2006 72.718 19.5612C71.8995 19.9114 71.0343 20.0865 70.1225 20.0865C69.3972 20.0865 68.7704 19.9886 68.2419 19.7929C67.7135 19.5869 67.268 19.3706 66.9053 19.144C66.4805 18.8659 66.123 18.5465 65.8329 18.186V25H63.4395V5.68601H65.1957L65.8329 7.27748Z" fill="white"/>
    <path d="M27.8526 7.91111H26.6163C25.4869 7.91111 24.5699 8.27164 23.8654 8.9927C23.1608 9.70345 22.8085 10.6614 22.8085 11.8666V19.9321H20.415V5.68614H22.1713L22.8085 7.27762C23.109 6.95829 23.4561 6.67502 23.8498 6.4278C24.2125 6.19088 24.6476 5.98487 25.1553 5.80975C26.0614 5.47886 26.9284 5.52921 27.8526 5.68614V7.91111Z" fill="white"/>
    <path d="M47.1197 7.91111H45.8834C44.754 7.91111 43.837 8.27164 43.1325 8.9927C42.4279 9.70345 42.0756 10.6614 42.0756 11.8666V19.9321H39.6821V5.68614H41.4384L42.0756 7.27762C42.3761 6.95829 42.7232 6.67502 43.1169 6.4278C43.4796 6.19088 43.9147 5.98487 44.4224 5.80975C45.3285 5.47886 46.1955 5.52921 47.1197 5.68614V7.91111Z" fill="white"/>
    <path d="M61.658 15.9009C61.4005 16.4153 61.0757 16.9244 60.6837 17.4283C60.2918 17.9217 59.8326 18.3521 59.3063 18.7195C58.78 19.0764 58.1808 19.3704 57.5089 19.6013C56.8482 19.8218 56.1091 19.932 55.2915 19.932C54.3061 19.932 53.371 19.7535 52.4863 19.3966C51.6016 19.0292 50.8288 18.5201 50.1681 17.8692C49.5186 17.2079 49.0035 16.4258 48.6227 15.523C48.2531 14.6202 48.0684 13.6177 48.0684 12.5154C48.0684 11.4237 48.2531 10.4264 48.6227 9.52362C49.0035 8.62083 49.513 7.844 50.1513 7.19315C50.8009 6.5318 51.5568 6.01742 52.4191 5.65C53.2814 5.28259 54.1829 5.09888 55.1236 5.09888C56.0643 5.09888 56.949 5.27209 57.7777 5.61851C58.6176 5.96493 59.3455 6.45832 59.9614 7.09867C60.5885 7.72853 61.0813 8.48961 61.4397 9.3819C61.8092 10.2742 61.994 11.2662 61.994 12.358C61.994 12.5679 61.9828 12.7516 61.9604 12.9091C61.938 13.0561 61.9156 13.182 61.8932 13.287C61.8708 13.413 61.8484 13.5337 61.826 13.6492H50.8232C50.868 14.1636 51.0192 14.6675 51.2768 15.1608C51.5456 15.6542 51.8759 16.0846 52.2679 16.452C52.671 16.8195 53.1358 17.1186 53.6621 17.3496C54.1997 17.57 54.7428 17.6803 55.2915 17.6803C55.7731 17.6803 56.1986 17.6173 56.5682 17.4913C56.949 17.3548 57.2961 17.2026 57.6097 17.0347C57.9232 16.8667 58.1808 16.683 58.3824 16.4835C58.5952 16.2736 58.7688 16.0794 58.9031 15.9009H61.658ZM55.1236 7.36636C54.5972 7.36636 54.0933 7.47134 53.6117 7.68129C53.1414 7.89124 52.7102 8.17993 52.3183 8.54734C51.9375 8.91476 51.6128 9.35566 51.344 9.87004C51.0864 10.3844 50.9128 10.946 50.8232 11.5549H59.2391C59.0599 10.2637 58.584 9.24543 57.8113 8.5001C57.0497 7.74428 56.1538 7.36636 55.1236 7.36636Z" fill="white"/>
    <path d="M13.9141 15.3149H4.98492L2.92046 19.9319H0L8.25785 1.14331H10.658L18.8991 19.9319H15.9786L13.9141 15.3149ZM5.84092 13.2176H13.0581L9.44953 5.01755L5.84092 13.2176Z" fill="white"/>
  </symbol>

  <symbol id="burger" viewBox="0 0 22 22" fill="none">
    <path d="M7.77176 18.1176C7.77176 20.2618 6.03443 22 3.89133 22C1.74823 22 0.0109026 20.2618 0.0109027 18.1176C0.0109029 15.9735 1.74823 14.2353 3.89133 14.2353C6.03443 14.2353 7.77176 15.9735 7.77176 18.1176Z" fill="white"/>
    <path d="M22 18.1176C22 20.2618 20.2627 22 18.1196 22C15.9765 22 14.2391 20.2618 14.2391 18.1176C14.2391 15.9735 15.9765 14.2353 18.1196 14.2353C20.2627 14.2353 22 15.9735 22 18.1176Z" fill="white"/>
    <path d="M7.77176 3.88235C7.77176 6.02652 6.03443 7.7647 3.89133 7.7647C1.74823 7.7647 0.0109038 6.02651 0.010904 3.88235C0.0109042 1.73819 1.74823 -1.77047e-06 3.89133 -1.58311e-06C6.03443 -1.39575e-06 7.77176 1.73819 7.77176 3.88235Z" fill="white"/>
    <path d="M22 7.76471L14.2391 7.7647L14.2391 -6.78476e-07L22 0L22 7.76471Z" fill="white"/>
  </symbol>

  <symbol id="flyboard" viewBox="0 0 62 46" fill="none">
    <path fill-rule="evenodd" clip-rule="evenodd" d="M28.635 19.7268C28.569 18.7883 28.5213 17.6679 28.6126 17.0571C28.7529 16.1909 28.7276 16.006 28.8469 15.1282C29.1431 15.1744 30.0609 15.0112 30.6462 14.8726C30.0315 14.7109 29.421 14.6979 29.0252 14.3615C28.9722 14.1416 28.9602 13.9132 28.9901 13.6887C29.3241 14.0497 30.555 14.1074 31.0532 14.0785C30.3569 13.8823 29.7062 13.5435 29.1403 13.0823C28.7557 12.4586 28.4919 11.3021 28.3599 10.9498L28.3698 10.9368L28.3206 10.8501C28.2982 10.7967 28.2715 10.7418 28.242 10.687C28.2547 10.6364 28.242 10.6162 28.1999 10.6162C27.8717 9.93034 27.8212 9.13852 28.0596 8.4144C28.1999 8.20794 28.3838 7.91628 28.6027 7.8542C28.4578 7.79383 28.2957 7.79383 28.1508 7.8542C28.0484 7.66794 27.8701 7.08464 28.2406 6.35984C28.0061 6.57918 27.8353 6.8612 27.7473 7.1745C27.6593 7.4878 27.6576 7.82007 27.7424 8.1343C27.2329 9.04535 27.5838 10.4343 27.7424 10.8429C26.6673 11.8536 25.6372 12.2059 25.3144 12.1236C25.5642 12.5076 25.6316 12.5437 25.6316 12.5437C25.6363 12.7352 25.6073 12.926 25.546 13.1068C25.4015 12.9615 25.2315 12.8459 25.0449 12.7661C25.1838 12.9878 25.2857 13.2318 25.3467 13.488C25.007 13.9313 23.365 15.0228 22.5832 16.4984C22.5158 16.6428 22.7643 17.0759 22.7643 17.4787C22.7643 17.8816 22.3573 18.2137 22.1313 18.4129C21.7692 18.1732 21.1362 18.4533 21.1362 17.7588C21.2766 17.0109 21.758 16.6615 22.0415 16.1706C23.1165 13.8952 23.1095 12.4167 23.5516 11.9287C23.5895 11.8868 23.6288 11.8464 23.6695 11.8045C24.112 11.9144 24.5219 12.1335 24.8639 12.4427C24.7344 12.0222 24.4832 11.6525 24.1439 11.3829C24.4555 11.1302 24.3277 10.5383 24.3277 10.5383C24.4003 10.7717 24.5072 10.9923 24.6449 11.1923C24.8176 10.1051 25.066 7.93938 26.9564 7.57265C26.8428 7.46003 26.7207 7.43693 26.4779 7.42827C26.5551 5.10515 30.2574 5.9007 30.75 5.93535C30.5781 5.76268 30.3793 5.62069 30.162 5.5152C30.343 5.32317 30.4427 4.92179 30.5676 4.6489C30.7692 4.85146 30.9962 5.02531 31.2427 5.16579C31.2822 5.1803 31.3231 5.19046 31.3648 5.19611C30.9639 4.74255 30.6603 4.20734 30.4736 3.62523L30.4988 3.65266C30.4904 3.61368 30.4806 3.57469 30.4736 3.53282C30.6333 3.60162 30.8006 3.6501 30.9718 3.67721C30.9718 3.67721 30.4918 3.12566 30.4286 2.74305C30.3655 2.45428 30.2476 1.2588 30.3837 0.736132C31.2342 -0.608071 33.0616 0.184591 33.143 0.782335C33.2609 1.91285 33.2244 2.48172 33.0981 2.8369C32.9867 3.11405 32.8504 3.37991 32.6911 3.631C32.8663 3.62654 33.0376 3.57689 33.1893 3.48662C33.1296 3.73339 33.035 3.96981 32.9086 4.18832C32.7668 4.56205 32.5578 4.90493 32.2925 5.199C32.3839 5.18941 32.4726 5.16145 32.5535 5.1167C32.747 4.96804 32.9211 4.79431 33.0714 4.59981C33.2005 4.87847 33.2202 5.28563 33.4054 5.48199C33.1881 5.5875 32.9894 5.7295 32.8174 5.90214C33.31 5.86749 37.0924 5.23654 37.1681 7.55966C36.9239 7.57409 36.8032 7.59719 36.6896 7.70404C38.5843 8.07221 38.4622 10.3982 38.6348 11.4854C38.7725 11.2854 38.8794 11.0648 38.952 10.8314C38.952 10.8314 38.7765 11.2818 39.1106 11.5533C38.7862 11.822 38.5461 12.1831 38.42 12.5914C38.7493 12.2947 39.1408 12.0802 39.5639 11.9648L39.6481 12.0557C40.0888 12.5466 40.2923 14.0771 41.3673 16.3511C41.648 16.842 42.1365 17.1914 42.2726 17.9393C42.048 18.6338 41.6382 18.0837 41.2775 18.5934C41.0516 18.3956 40.6446 18.0563 40.6446 17.6592C40.6446 17.2622 40.893 16.8189 40.8256 16.6789C40.0874 15.287 38.3976 14.1883 37.9246 13.6959C37.9817 13.4156 38.0883 13.1484 38.239 12.9076C38.0258 12.9967 37.8342 13.1327 37.6776 13.3061C37.5966 13.1024 37.5574 12.8836 37.5625 12.6636C37.5625 12.6636 37.6299 12.6275 37.8797 12.2434C37.5527 12.3257 36.9717 11.8579 35.898 10.8429C36.0566 10.4343 36.4075 9.04535 35.898 8.1343C35.9654 7.8773 36.1927 7.03555 35.477 6.35984C35.603 6.58715 35.6701 6.844 35.6718 7.10569C35.6736 7.36739 35.6098 7.62515 35.4868 7.8542C35.3927 7.79933 35.2889 7.77046 35.0026 7.88163C35.237 7.9596 35.3984 8.08377 35.578 8.4144C35.696 8.77622 35.7431 9.1585 35.7166 9.53916C35.6901 9.91982 35.5905 10.2913 35.4236 10.6321C35.3871 10.6321 35.3675 10.6523 35.3801 10.7029C35.3506 10.7563 35.3268 10.8083 35.3029 10.8617L35.2608 10.9353L35.2692 10.9454C35.1289 11.2992 34.7935 12.4138 34.4131 13.0375C34.0805 13.4996 33.3535 13.9717 32.8019 14.1175C33.2623 14.1435 34.263 14.0771 34.5633 13.7667C34.5792 13.973 34.5602 14.1806 34.5072 14.3803C34.2615 14.6604 33.5921 14.7802 33.1037 14.9116C33.564 15.0214 34.3822 15.0112 34.6826 15.043C34.9001 15.7837 34.844 16.0393 34.9759 17.0716C35.0447 17.5047 34.9759 18.6194 34.8791 19.6055C34.037 19.6373 33.1725 19.669 32.3262 19.6921C32.2665 19.2619 32.2458 18.8269 32.2644 18.3927C32.6265 18.1703 33.0153 17.7805 33.0096 17.4513C32.2855 17.9552 31.8574 17.9278 30.8693 17.486C30.8511 17.8729 31.2413 18.2295 31.5556 18.3725C31.5903 18.8169 31.5903 19.2635 31.5556 19.708C30.5578 19.7282 29.5908 19.7326 28.642 19.708L28.635 19.7268ZM34.844 8.98327C34.8566 8.48226 34.59 8.322 34.1563 7.53944C33.5053 7.25075 32.8152 7.06621 32.11 6.99223C32.166 6.93319 32.2133 6.86607 32.2504 6.79298C31.9276 6.90521 31.578 6.90521 31.2553 6.79298C31.2828 6.86605 31.3254 6.93208 31.3802 6.98646C30.7124 7.04188 30.0585 7.21322 29.4462 7.49324C28.9354 8.22382 28.6687 8.85188 28.7038 8.99338C28.8329 9.28214 30.0553 10.6956 31.8195 11.6024C33.0261 11.0099 34.0653 10.1098 34.8384 8.9876L34.844 8.98327ZM31.6623 10.9108C31.6623 10.7664 31.6623 10.3087 31.6623 10.1643C31.2786 9.89793 30.9155 9.60155 30.576 9.27781C31.5538 9.11486 32.5521 9.13394 33.5233 9.33412C33.5023 9.3038 33.8602 8.90819 33.804 8.80279C33.171 8.58477 31.2693 8.44183 30.1718 8.66996C30.1971 8.62664 30.2504 8.3321 30.3122 8.29601C31.6006 8.08665 32.1184 8.10253 33.8854 8.38986C33.8299 8.22119 33.783 8.04961 33.7451 7.87585C31.9542 7.3503 31.195 7.37196 29.8995 7.78201C29.6778 7.96826 29.4462 8.81579 29.4476 8.85621C29.9262 9.62288 31.2609 10.7332 31.6651 10.9108H31.6623Z" fill="black"/>
    <path fill-rule="evenodd" clip-rule="evenodd" d="M1.51059 16.9216C4.52012 17.3308 7.24094 17.9078 9.83636 18.2867C15.9152 19.1747 21.4006 19.4784 27.1951 19.6924C30.9686 19.837 35.1651 19.5145 39.745 19.4364C45.5774 19.3367 51.993 18.1739 60.1336 16.9534C61.4459 16.7552 62 17.5232 62 18.2853V35.4455C62 35.7347 61.338 36.6024 60.5871 36.4998C55.7564 35.8374 51.4171 35.0854 46.8809 34.6038C39.1312 33.7699 31.3282 33.5282 23.5411 33.8808C16.1023 34.2161 8.70148 35.1304 1.40707 36.6155C0.648855 36.7687 0 36.037 0 35.2806V18.119C0 17.3569 0.764045 16.8174 1.50768 16.9216H1.51059ZM8.31119 33.9863C8.51532 34.0109 11.8967 33.444 12.5397 33.4079C13.0821 33.3775 12.9975 33.4932 12.9975 32.9653C12.9975 32.4086 13.0311 31.7361 12.9975 31.188L10.1178 31.2372L10.0536 19.8819L8.26161 19.5536L8.3141 33.9863H8.31119ZM15.1453 20.5471L13.1156 20.2579C13.2162 20.6917 13.4073 21.2065 13.5531 21.6433C14.1363 23.4741 14.7575 25.6304 15.3538 27.4482C15.5813 28.1395 15.6994 28.2407 15.6994 28.9103C15.6994 29.6088 15.6906 32.5156 15.7315 33.0058L17.5279 32.9292C17.5672 32.4678 17.5074 29.697 17.5074 29.0375C17.5074 28.2552 17.522 28.4258 17.7991 27.6333C17.9449 27.2212 18.098 26.8191 18.254 26.4041L20.1174 20.9694L18.2379 20.7843C18.1563 20.9057 17.4695 23.532 17.3631 23.8444C17.2275 24.2522 17.1531 24.5674 17.019 24.9782C16.9548 25.1763 16.8805 25.386 16.828 25.6043L16.6822 26.2652C16.5655 25.7822 16.4911 25.3397 16.3453 24.8697L15.1307 20.5471H15.1453ZM4.23725 21.6578L7.23511 22.0381V19.516C7.19136 19.4393 7.03535 19.435 6.9362 19.4147L4.80299 19.072C4.45888 18.9896 2.53856 18.6454 2.37087 18.6382V34.9133L4.23579 34.7557V28.206L7.0441 28.3087C7.0441 27.9413 7.0893 25.9153 7.02514 25.7446L4.23579 25.4843V21.6534L4.23725 21.6578ZM38.927 27.7317L41.1579 27.6955C41.1695 27.5509 40.4288 24.5602 40.283 24.0454C40.232 23.8574 40.1795 23.6679 40.1445 23.4669C40.1253 23.2509 40.0946 23.0361 40.0526 22.8234C39.9958 22.8581 39.9724 23.2572 39.9418 23.425C39.8325 24.0353 39.3936 25.8834 39.2128 26.5675C39.1238 26.9131 38.9663 27.399 38.9211 27.7244L38.927 27.7317ZM37.8684 32.3912C37.9515 32.235 38.1411 31.321 38.1994 31.0795C38.2912 30.6963 38.3962 30.1207 38.5231 29.7664H41.5851C41.7397 30.2003 42.1275 32.5011 42.2442 32.6587C42.2966 32.6963 42.2442 32.6761 42.3404 32.6877L43.138 32.7151C43.4296 32.7238 43.7431 32.7513 44.0376 32.747C43.9574 32.2451 42.7807 27.198 42.6276 26.5964C42.5533 26.3072 41.2454 20.9115 41.1608 20.7626L39.0392 20.952C39.0013 20.9708 38.9868 21.0489 38.9707 21.114L36.8186 29.6652C36.7354 29.9631 36.0895 32.2451 36.0895 32.3536L37.8728 32.3767L37.8684 32.3912ZM33.742 27.1011C33.8397 25.4785 33.4751 23.4973 32.122 23.169C31.7212 23.0744 31.2995 23.1257 30.9337 23.3136C30.0048 23.7778 29.6695 25.117 29.5922 26.1365C29.4697 27.7707 29.8488 29.9718 31.1611 30.3304C32.0914 30.5849 32.7388 30.0528 33.0698 29.5668C33.4562 28.9999 33.6909 27.9254 33.7405 27.1084L33.742 27.1011ZM35.5398 27.2024C35.6244 25.707 35.4756 24.4648 34.8909 23.2746C34.4375 22.3505 33.5509 21.4408 32.2445 21.2875C29.4099 20.9549 27.9547 23.4452 27.79 26.0295C27.6967 27.4887 27.8119 29.0824 28.4068 30.2046C28.8923 31.12 29.7351 32.0152 31.0416 32.2032C33.8542 32.6096 35.3954 29.7621 35.5398 27.2009V27.2024ZM22.7989 27.5436V30.4837C23.2174 30.5387 24.0587 30.5011 24.3722 30.3319C24.7323 30.1381 24.9715 29.7346 24.9773 29.1749C24.986 28.2986 24.4786 27.5625 23.6898 27.5509C23.3936 27.5327 23.0966 27.5327 22.8004 27.5509L22.7989 27.5436ZM22.7989 22.7568V24.9174C23.5994 24.9709 24.6069 25.062 24.6128 23.8429C24.6128 23.3469 24.4174 23.0793 24.0791 22.9203C23.8108 22.7944 23.1357 22.7265 22.8018 22.7568H22.7989ZM24.9788 26.0454C25.1306 25.9479 25.2873 25.8581 25.4483 25.7764C26.6658 24.9261 26.6949 22.8725 25.8609 21.9947C24.9642 21.0504 23.7481 21.0995 22.3542 20.9969C21.9051 20.9636 21.437 20.9593 20.9908 20.9419V32.4563C21.5274 32.4722 22.134 32.5271 22.6779 32.517C24.1126 32.491 25.5081 32.5315 26.3421 31.0636C26.9472 30.0021 27.0347 27.7129 26.0505 26.6832C25.7399 26.3563 25.5008 26.2088 24.9715 26.0454H24.9788ZM46.8066 25.9008C47.505 25.8849 47.9366 25.9008 48.3084 25.4756C48.9033 24.793 48.9777 22.8971 48.4046 22.3563C48.0197 21.9933 47.3927 22.1625 46.8211 22.2232C46.7832 22.3678 46.7978 25.5248 46.808 25.9008H46.8066ZM48.8829 26.9666C48.9529 26.9044 49.0841 26.8423 49.1658 26.7859C49.8146 26.3419 50.1733 25.6723 50.3964 24.9058C50.6749 23.9427 50.6778 22.4647 50.3629 21.5348C50.0479 20.6049 49.3597 20.0887 48.1393 20.1754C47.6362 20.2101 47.0632 20.3201 46.5645 20.3924C46.0658 20.4647 45.5059 20.55 44.9956 20.5992L45.0248 32.9031L46.8284 32.9856C46.8284 32.4563 46.7599 28.339 46.8284 28.1727C47.1521 28.1539 47.4117 28.1105 47.6216 28.2913C48.0212 28.6297 48.3609 30.0831 48.5592 30.5849C48.8931 31.4281 49.2591 32.6804 49.5799 33.4541L51.6212 33.5742C51.5906 33.4295 51.1196 32.0947 51.0292 31.8793C50.6326 30.9624 49.7651 27.5798 49.0287 27.0809L48.8829 26.9666ZM54.3231 21.6954C54.3231 22.0685 54.2881 31.3485 54.3406 31.5192C55.0069 31.5409 55.612 31.6132 56.1428 31.3167C58.0689 30.2393 58.0689 24.3404 57.1445 22.5963C56.4227 21.2456 55.5071 21.4943 54.3231 21.6954ZM52.4786 33.8432C53.0618 33.8865 53.6611 33.927 54.2429 33.9675C54.7984 34.0066 55.491 34.1006 56.0276 34.034C56.4749 33.9858 56.905 33.8358 57.2844 33.5957C57.6637 33.3557 57.9821 33.0321 58.2148 32.6501C59.2486 31.0882 59.6072 28.7989 59.6262 26.5834C59.6437 24.498 59.4323 21.2326 58.2804 19.931C57.0337 18.5311 55.6645 19.0633 53.9425 19.4234L53.1581 19.5811L52.5748 19.6939C52.4596 19.717 52.4713 19.6939 52.429 19.7691L52.4786 33.8432Z" fill="black"/>
    <path fill-rule="evenodd" clip-rule="evenodd" d="M35.7452 35.2537L35.7367 35.2266H27.6324C27.6277 35.2403 27.623 35.2541 27.6183 35.2679C27.3707 35.285 27.1248 35.3147 26.8823 35.357C26.751 35.5134 26.7227 35.9003 26.8823 35.959L27.3937 35.9253L28.2257 37.063H29.5762C29.5762 37.063 29.1694 36.1524 29.8941 35.822H29.9039C30.1865 36.2654 30.7784 37.251 30.7897 37.8997C31.4705 38.0909 32.2023 38.0953 32.6967 37.8997C32.6854 37.2477 33.2123 36.2621 33.4694 35.8199C34.1531 36.1611 33.7519 37.0467 33.7519 37.0467H35.0954L35.9189 35.9198C36.1167 35.9318 36.3116 35.9448 36.5009 35.959C36.6747 35.8699 36.6888 35.4906 36.5009 35.357C36.2536 35.3009 35.9994 35.2645 35.7423 35.2483L35.7452 35.2537ZM31.7375 36.5946C31.7375 36.5946 31.5271 35.6036 31.2389 35.6036H32.2602C31.9169 35.6036 31.7375 36.5946 31.7375 36.5946Z" fill="black"/>
    <path fill-rule="evenodd" clip-rule="evenodd" d="M22.6615 44.9968H21.3217L20.5155 43.5927C20.4557 43.4867 20.3988 43.3915 20.3434 43.307C20.2935 43.2304 20.2374 43.1584 20.1758 43.0919C20.1242 43.0361 20.0641 42.9899 19.9979 42.9552C19.9358 42.9229 19.8674 42.9066 19.7982 42.9076H19.4847V44.9952H18.3184V39.5419H20.167C21.4238 39.5419 22.0521 40.036 22.0521 41.0243C22.0538 41.2037 22.0257 41.382 21.969 41.5512C21.9152 41.7093 21.8358 41.8564 21.7343 41.9859C21.6307 42.1181 21.5071 42.2312 21.3684 42.3208C21.2195 42.4176 21.0585 42.492 20.8902 42.542V42.5573C20.9712 42.5842 21.0472 42.6258 21.1147 42.6802C21.19 42.7403 21.2602 42.8071 21.3246 42.8799C21.3936 42.9575 21.4579 43.0396 21.5171 43.1257C21.5783 43.2133 21.6352 43.2993 21.6862 43.3823L22.663 44.9952L22.6615 44.9968ZM19.4847 40.462V41.9828H19.9906C20.2124 41.993 20.4289 41.9102 20.5927 41.7524C20.6671 41.6789 20.7261 41.5898 20.7657 41.4909C20.8054 41.3919 20.825 41.2853 20.8231 41.1779C20.8231 40.7017 20.5524 40.4631 20.011 40.462H19.4847ZM27.3648 42.6326C27.3648 44.2712 26.6407 45.0905 25.1925 45.0905C23.7861 45.0905 23.0834 44.2906 23.0843 42.691V39.5434H24.2507V42.7079C24.2507 43.5896 24.5777 44.0305 25.2319 44.0305C25.886 44.0305 26.2072 43.6045 26.1956 42.7524V39.5434H27.3619V42.6341L27.3648 42.6326ZM28.2527 44.7832V43.5681C28.6531 43.9225 29.1586 44.1181 29.6815 44.1212C29.8113 44.123 29.941 44.1091 30.0678 44.0797C30.1648 44.0574 30.2575 44.0179 30.3419 43.9629C30.4095 43.9202 30.4661 43.8606 30.5067 43.7893C30.5425 43.7223 30.5611 43.6466 30.5606 43.5697C30.5626 43.4675 30.5324 43.3675 30.4746 43.2855C30.409 43.194 30.3285 43.1155 30.2369 43.0535C30.1242 42.9746 30.0052 42.9063 29.8812 42.8492C29.7442 42.7832 29.5896 42.7156 29.4365 42.6464C29.089 42.5109 28.7782 42.2878 28.5312 41.9966C28.3344 41.7349 28.2312 41.4087 28.2396 41.075C28.233 40.8199 28.2893 40.5675 28.4029 40.3422C28.5088 40.1401 28.6587 39.9675 28.8403 39.8383C29.0382 39.7013 29.258 39.603 29.489 39.548C29.7446 39.4845 30.0064 39.453 30.269 39.4543C30.5091 39.452 30.7489 39.4694 30.9863 39.5065C31.1854 39.5354 31.3809 39.5869 31.5695 39.6602V40.7969C31.4805 40.7317 31.3858 40.6757 31.2867 40.6295C31.1845 40.5801 31.0787 40.5395 30.9703 40.5081C30.8647 40.4761 30.757 40.4525 30.6481 40.4374C30.5466 40.4225 30.4444 40.4148 30.3419 40.4144C30.2203 40.4128 30.099 40.4262 29.9804 40.4543C29.8838 40.4757 29.7912 40.5136 29.7063 40.5665C29.6368 40.6092 29.5774 40.668 29.5328 40.7385C29.4919 40.8065 29.4707 40.8855 29.4715 40.9659C29.4704 41.0532 29.4943 41.1389 29.5401 41.2117C29.5935 41.2916 29.6596 41.3612 29.7354 41.4175C29.8327 41.4895 29.9356 41.5527 30.043 41.6065C30.1641 41.6694 30.2996 41.7324 30.4513 41.7985C30.6438 41.8819 30.8309 41.9789 31.0111 42.0888C31.1672 42.1844 31.3104 42.3017 31.4368 42.4375C31.5534 42.5658 31.6455 42.7165 31.708 42.8815C31.8541 43.3227 31.829 43.8069 31.638 44.2287C31.5307 44.4323 31.3769 44.6044 31.1904 44.7295C30.9899 44.8637 30.7674 44.9575 30.5344 45.006C30.2745 45.0627 30.0096 45.0905 29.7442 45.0889C29.4723 45.0898 29.2009 45.0641 28.9336 45.0121C28.7023 44.9702 28.4779 44.8936 28.2673 44.7848L28.2527 44.7832ZM32.3976 44.7832V43.5681C32.798 43.9225 33.3035 44.1181 33.8264 44.1212C33.9562 44.123 34.0859 44.1091 34.2127 44.0797C34.3097 44.0574 34.4024 44.0179 34.4868 43.9629C34.5544 43.9202 34.611 43.8606 34.6516 43.7893C34.6874 43.7223 34.706 43.6466 34.7055 43.5697C34.7075 43.4675 34.6773 43.3675 34.6195 43.2855C34.5539 43.194 34.4734 43.1155 34.3818 43.0535C34.2691 42.9746 34.1501 42.9063 34.0261 42.8492C33.8891 42.7832 33.7345 42.7156 33.5814 42.6464C33.2339 42.5109 32.9231 42.2878 32.6761 41.9966C32.4793 41.7349 32.3761 41.4087 32.3845 41.075C32.3779 40.8199 32.4342 40.5675 32.5478 40.3422C32.6536 40.1401 32.8035 39.9674 32.9852 39.8383C33.1831 39.7013 33.4029 39.6029 33.6339 39.548C33.8895 39.4845 34.1513 39.453 34.4139 39.4543C34.654 39.452 34.8938 39.4694 35.1312 39.5065C35.3303 39.5354 35.5258 39.5869 35.7144 39.6602V40.7969C35.6254 40.7317 35.5307 40.6757 35.4316 40.6295C35.3294 40.5801 35.2236 40.5395 35.1152 40.5081C35.0096 40.4761 34.9019 40.4525 34.793 40.4374C34.6915 40.4225 34.5893 40.4148 34.4868 40.4144C34.3652 40.4128 34.2439 40.4262 34.1253 40.4543C34.0282 40.4756 33.9351 40.5135 33.8497 40.5665C33.7802 40.6092 33.7209 40.6681 33.6762 40.7385C33.6353 40.8065 33.614 40.8855 33.615 40.9659C33.6139 41.0532 33.6378 41.1389 33.6835 41.2117C33.7369 41.2916 33.803 41.3612 33.8789 41.4175C33.9762 41.4895 34.0791 41.5527 34.1865 41.6065C34.3075 41.6694 34.4431 41.7324 34.5947 41.7985C34.7873 41.8819 34.9743 41.9789 35.1546 42.0888C35.3107 42.1844 35.4539 42.3017 35.5803 42.4375C35.6969 42.5658 35.789 42.7165 35.8514 42.8815C35.9974 43.3227 35.9723 43.8068 35.7815 44.2287C35.6741 44.4322 35.5203 44.6044 35.3339 44.7295C35.1334 44.8637 34.9109 44.9575 34.6778 45.006C34.4179 45.0627 34.153 45.0905 33.8876 45.0889C33.6157 45.0898 33.3444 45.0641 33.077 45.0121C32.8458 44.9702 32.6214 44.8936 32.4107 44.7848L32.3976 44.7832ZM38.3795 39.5434V40.4943H37.9421V44.0474H38.3795V44.9983H36.3384V44.0474H36.7758V40.4927H36.3384V39.5419L38.3795 39.5434ZM43.6718 44.9968H42.4005L42.0374 43.7817H40.1859L39.8374 44.9968H38.5734L40.4571 39.5434H41.8406L43.682 44.9968H43.6718ZM41.7692 42.8461L41.2093 41.015C41.1645 40.8552 41.1352 40.6911 41.1219 40.525H41.0942C41.0821 40.6865 41.0517 40.8458 41.0038 40.9997L40.4381 42.8431L41.7692 42.8461Z" fill="black"/>
  </symbol>

  <symbol id="drop-icon" viewBox="0 0 44 28" fill="none">
    <ellipse cx="22" cy="14" rx="22" ry="14" fill="#131315"/>
    <path d="M33 14.0002L27.7329 9.00039L26.7453 9.93785L31.0317 14.0001L26.7453 18.0625L27.7329 19L33 14.0002Z" fill="#fff"/>
    <path d="M11 13.9998L16.2671 9L17.2547 9.93746L12.9683 13.9997L17.2547 18.0621L16.2671 18.9996L11 13.9998Z" fill="#fff"/>
  </symbol>
</svg>
