<svg width="41" height="44" viewBox="0 0 41 44" fill="none" xmlns="http://www.w3.org/2000/svg">
<path fill-rule="evenodd" clip-rule="evenodd" d="M15 32L30 23.9989L15 16" fill="white"/>
<path fill-rule="evenodd" clip-rule="evenodd" d="M18.5974 2.14132C21.1569 2.15631 24.6066 2.17653 27.532 3.93174C21.032 2.43174 14.1706 6.1583 9.23139 10.5342C4.66188 14.583 0.531435 18.4321 0.0336722 25.7612C-0.521448 33.9321 5.83775 42.6703 15.3701 43.3804C25.9728 44.1703 37.4981 35.9424 40.1756 25.4398C42.1548 17.6761 40.255 10.3583 34.032 4.93174C30.1759 1.56923 20.5 -0.999957 15 1.50027C15.4149 2.12267 16.7823 2.13068 18.5974 2.14132ZM16.7771 42.4265C25.7712 42.6658 35.2208 35.3185 38.2264 25.575C40.2049 19.1627 38.4003 13.7383 34.2809 8.98198C31.1236 5.33673 23.1616 4.21875 17.2955 6.95348C11.1841 9.80229 6.65944 14.2095 3.37105 20.0965C-2.96848 29.9321 6.03125 42.4265 16.7771 42.4265Z" fill="white"/>
</svg>
