<svg width="15" height="12" viewBox="0 0 15 12" fill="none" xmlns="http://www.w3.org/2000/svg">
<path d="M7.36941 11.8288L8.25044 12L9.08293 10.9525L8.97924 10.8948L8.20628 11.5908L8.08477 11.5191C8.093 11.498 8.09931 11.476 8.10562 11.4541L8.10644 11.452C8.12015 11.4054 8.13387 11.3588 8.16404 11.3208C8.49648 10.9038 8.83085 10.4878 9.16549 10.0719L9.19429 10.0361C9.78101 9.30624 10.3677 8.57626 10.9429 7.84044C11.6262 6.96625 12.2886 6.08076 12.9285 5.18555C13.1817 4.83108 13.3743 4.44384 13.5432 4.05693C13.5811 3.96971 13.5753 3.86911 13.5693 3.76907V3.76884C13.563 3.6623 13.5567 3.55638 13.6038 3.46792C13.6949 3.29686 13.8266 3.14033 13.9588 2.98343L13.9621 2.97976C14.0422 2.8843 14.1223 2.78866 14.1938 2.68947C14.6261 2.08792 14.8384 1.43708 14.8667 0.741374C14.8736 0.571043 14.912 0.401512 14.9504 0.231974C14.9679 0.154676 14.9855 0.077377 15 0C14.7978 0.1664 14.6379 0.37304 14.4868 0.568305L14.486 0.569396V0.569659C14.269 0.849909 14.0704 1.10647 13.7928 1.18661C13.1905 1.36074 12.9859 1.69893 12.7788 2.04156C12.6998 2.1722 12.6202 2.30348 12.5182 2.42656C12.3487 2.63134 12.1517 2.82137 11.9548 3.01146L11.9531 3.01298C11.7839 3.17608 11.6149 3.33926 11.4627 3.51189C11.302 3.69432 11.1955 3.92005 11.1278 4.13876C11.108 4.20162 11.1344 4.28143 11.1593 4.35719L11.1602 4.35855V4.35903C11.1884 4.44388 11.215 4.52342 11.1733 4.56806C11.0175 4.73532 10.837 4.88745 10.6566 5.03965L10.6549 5.04102C10.4991 5.17234 10.3433 5.30373 10.2029 5.44496C9.84738 5.80289 9.49821 6.16504 9.14903 6.52719L9.14656 6.52979C8.66381 7.03079 8.18105 7.53174 7.68101 8.0214C7.58336 8.11717 7.47885 8.21721 7.36941 8.30218C7.25997 8.21721 7.15546 8.11717 7.05781 8.0214C6.55777 7.53174 6.07502 7.03079 5.59226 6.52979L5.58979 6.52719C5.24061 6.16504 4.89144 5.80289 4.53595 5.44496C4.39551 5.30373 4.23971 5.17234 4.08392 5.04102C3.90288 4.88837 3.72185 4.73583 3.5655 4.56806C3.52381 4.52342 3.55041 4.44388 3.57867 4.35903V4.35855L3.57949 4.35719C3.60445 4.28143 3.63078 4.20162 3.61103 4.13876C3.54328 3.92005 3.43686 3.69432 3.27612 3.51189C3.12389 3.33926 2.95492 3.17608 2.78568 3.01298L2.78404 3.01146C2.58709 2.82137 2.39015 2.63134 2.22064 2.42656C1.31798 1.33772 0.37112 1.29986 0.012023 1.46941C-0.0539616 1.73232 0.144887 2.22667 0.776751 2.97976L0.780043 2.98343C0.912252 3.14033 1.04391 3.29686 1.13498 3.46792C1.18216 3.55638 1.17585 3.6623 1.16954 3.76884V3.76907C1.16351 3.86911 1.15775 3.96971 1.1956 4.05693C1.36456 4.44384 1.55712 4.83108 1.81029 5.18555C2.45022 6.08076 3.11264 6.96625 3.79591 7.84044C4.3711 8.57626 4.95782 9.30624 5.54453 10.0361L5.57333 10.0719C5.90797 10.4878 6.24234 10.9038 6.57478 11.3208C6.79484 11.5983 6.98661 11.663 7.36941 11.8288Z" fill="white"/>
</svg>
