<svg width="1920" height="774" viewBox="0 0 1920 774" fill="none" xmlns="http://www.w3.org/2000/svg">
<g clip-path="url(#clip0)">
<path d="M1919 0H0V774H1919V0Z" fill="#DEE7F0"/>
<path d="M1920 702H1005.41L234 0H1920V702Z" fill="#CCD6E2"/>
<path opacity="0.8" d="M838.5 723C680.795 723 553 715.914 553 707C553 698.086 680.795 691 838.5 691C996.205 691 1124 698.086 1124 707C1124 715.914 996.205 723 838.5 723Z" fill="#BAC7D6"/>
<path opacity="0.8" d="M1572.5 744C1539.79 744 1510.2 742.783 1488.8 740.802C1478.09 739.812 1469.46 738.633 1463.53 737.328C1460.55 736.673 1458.3 735.998 1456.82 735.322C1456.08 734.983 1455.58 734.668 1455.29 734.398C1455.15 734.266 1455.07 734.163 1455.03 734.094C1455 734.033 1455 734.005 1455 734L1455 734L1455 734C1455 733.995 1455 733.967 1455.03 733.906C1455.07 733.837 1455.15 733.734 1455.29 733.602C1455.58 733.332 1456.08 733.017 1456.82 732.678C1458.3 732.002 1460.55 731.327 1463.53 730.672C1469.46 729.367 1478.09 728.188 1488.8 727.198C1510.2 725.217 1539.79 724 1572.5 724C1605.21 724 1634.8 725.217 1656.2 727.198C1666.91 728.188 1675.54 729.367 1681.47 730.672C1684.45 731.327 1686.7 732.002 1688.18 732.678C1688.92 733.017 1689.42 733.332 1689.71 733.602C1689.85 733.734 1689.93 733.837 1689.97 733.906C1690 733.968 1690 733.996 1690 734V734C1690 734.005 1690 734.033 1689.97 734.094C1689.93 734.163 1689.85 734.266 1689.71 734.398C1689.42 734.668 1688.92 734.983 1688.18 735.322C1686.7 735.998 1684.45 736.673 1681.47 737.328C1675.54 738.633 1666.91 739.812 1656.2 740.802C1634.8 742.783 1605.21 744 1572.5 744Z" stroke="#BAC7D6" stroke-width="2"/>
<rect x="396" y="702" width="1192" height="3" fill="#282627"/>
<path d="M196 702H347V705H196V702Z" fill="#282627"/>
<g opacity="0.5">
<path d="M15.9785 734L1498.95 716.453L1498.98 718.453L16.0009 736L15.9785 734Z" fill="#8FA0B8"/>
<path d="M1805.98 711.556L1578.95 715.556L1578.97 717.556L1806 713.556L1805.98 711.556Z" fill="#8FA0B8"/>
</g>
<g opacity="0.5">
<path d="M1897 751.897L427.089 749.897L427.066 751.897L1896.98 753.897L1897 751.897Z" fill="#8FA0B8"/>
<path d="M120.063 745L347.094 749L347.071 751L120.041 747L120.063 745Z" fill="#8FA0B8"/>
</g>
<path d="M504.582 645.504L450.896 643.504L451.896 627.999L505.582 629.999L504.582 645.504ZM452.089 642.312L503.389 644.312L504.389 631.192L453.089 629.192L452.089 642.312Z" fill="#3B3839"/>
<path d="M477.336 660.817H426.65L425.65 644.312L478.336 645.312L477.336 660.817ZM427.843 659.625H476.143L477.143 646.504L426.843 645.504L427.843 659.625Z" fill="#3B3839"/>
<path d="M531.828 659.817L478.143 660.817L479.143 645.312H531.828V659.817ZM479.336 659.625L530.635 658.625V646.504H480.336L479.336 659.625Z" fill="#3B3839"/>
<path d="M453.517 677.687L399.843 676.569L400.166 661.067L452.819 663.164L453.517 677.687ZM401.061 675.401L452.349 676.47L451.602 664.332L401.334 662.284L401.061 675.401Z" fill="#3B3839"/>
<path d="M506.18 678.13L454.494 677.13L453.494 662.624L506.18 661.624V678.13ZM455.687 675.937L504.987 676.937V662.817L454.687 663.817L455.687 675.937Z" fill="#3B3839"/>
<path d="M557.672 677.13H507.986L506.986 661.624H558.672L557.672 677.13ZM509.179 675.937H556.479L557.479 662.817H508.179L509.179 675.937Z" fill="#3B3839"/>
<path d="M1391.74 628.625L1338.05 630.625L1339.05 646.131L1392.74 644.131L1391.74 628.625ZM1339.25 631.818L1390.55 629.818L1391.55 642.938L1340.25 644.938L1339.25 631.818Z" fill="#3B3839"/>
<path d="M1364.49 613.312H1313.81L1312.81 629.818L1365.49 628.818L1364.49 613.312ZM1315 614.505H1363.3L1364.3 627.625L1314 628.625L1315 614.505Z" fill="#3B3839"/>
<path d="M1418.99 614.312L1365.3 613.312L1366.3 628.818H1418.99V614.312ZM1366.49 614.505L1417.79 615.505V627.625H1367.49L1366.49 614.505Z" fill="#3B3839"/>
<path d="M1340.67 596.442L1287 597.561L1287.32 613.063L1339.98 610.966L1340.67 596.442ZM1288.22 598.728L1339.51 597.66L1338.76 609.798L1288.49 611.845L1288.22 598.728Z" fill="#3B3839"/>
<path d="M1446.67 645.62L1393 644.502L1393.32 629L1445.98 631.097L1446.67 645.62ZM1394.22 643.335L1445.51 644.403L1444.76 632.265L1394.49 630.217L1394.22 643.335Z" fill="#3B3839"/>
<path d="M1393.34 596L1341.65 597L1340.65 611.505L1393.34 612.505V596ZM1342.84 598.193L1392.14 597.193V611.313L1341.84 610.313L1342.84 598.193Z" fill="#3B3839"/>
<path d="M1472.69 613L1421 614L1420 628.505L1472.69 629.505V613ZM1422.19 615.193L1471.49 614.193V628.313L1421.19 627.313L1422.19 615.193Z" fill="#3B3839"/>
<path d="M1444.83 597H1395.14L1394.14 612.505H1445.83L1444.83 597ZM1396.34 598.193H1443.64L1444.64 611.313H1395.34L1396.34 598.193Z" fill="#3B3839"/>
<path d="M346.738 380.506L293.053 378.506L294.053 363L347.738 365L346.738 380.506ZM294.246 377.313L345.545 379.313L346.545 366.193L295.246 364.193L294.246 377.313Z" fill="#3B3839"/>
<path d="M319.492 395.819H268.807L267.807 379.313L320.492 380.313L319.492 395.819ZM270 394.626H318.299L319.299 381.505L269 380.505L270 394.626Z" fill="#3B3839"/>
<path d="M373.984 394.819L320.299 395.819L321.299 380.313H373.984V394.819ZM321.492 394.626L372.791 393.626V381.505H322.492L321.492 394.626Z" fill="#3B3839"/>
<path d="M1151.25 267.313L1204.93 269.313L1203.93 284.819L1150.25 282.819L1151.25 267.313ZM1203.74 270.506L1152.44 268.506L1151.44 281.626L1202.74 283.626L1203.74 270.506Z" fill="#3B3839"/>
<path d="M1178.49 252H1229.18L1230.18 268.506L1177.49 267.506L1178.49 252ZM1227.98 253.193H1179.69L1178.69 266.313L1228.98 267.313L1227.98 253.193Z" fill="#3B3839"/>
<path d="M1124 253L1177.69 252L1176.69 267.506H1124V253ZM1176.49 253.193L1125.19 254.193V266.313H1175.49L1176.49 253.193Z" fill="#3B3839"/>
<path d="M610 703H590V494H610V703Z" fill="#282627"/>
<path d="M1203 495H552V480H1202.94V495H1203Z" fill="#282627"/>
<path d="M547.742 96C546.192 96 545 94.6826 545 93.0659V88.9341C545 87.3174 546.252 86 547.742 86H1107.26C1108.81 86 1110 87.3174 1110 88.9341V93.0659C1110 94.6826 1108.75 96 1107.26 96H547.742Z" fill="white"/>
<path d="M1145.38 467.697H1089.07C1085.37 467.697 1080.84 464.894 1078.69 461.256L1060.86 431.199C1059.55 428.993 1059.37 426.846 1060.26 425.176C1061.1 423.745 1062.65 422.91 1064.62 422.91H1120.93C1124.63 422.91 1129.16 425.713 1131.31 429.35L1149.14 459.408C1150.45 461.614 1150.63 463.761 1149.74 465.431C1148.96 466.862 1147.35 467.697 1145.38 467.697ZM1064.62 426.548C1064.32 426.548 1063.54 426.607 1063.36 426.965C1063.13 427.323 1063.24 428.217 1063.9 429.35L1081.74 459.408C1083.23 461.912 1086.63 464.119 1089.07 464.119H1145.38C1145.68 464.119 1146.4 464.059 1146.64 463.702C1146.87 463.344 1146.76 462.449 1146.1 461.316L1128.26 431.259C1126.77 428.754 1123.37 426.607 1120.93 426.607H1064.62V426.548Z" fill="#8FA0B8"/>
<path d="M540.506 484C539.133 484 538 482.846 538 481.45V469.55C538 468.154 539.133 467 540.506 467H1230.49C1231.87 467 1233 468.154 1233 469.55V481.45C1233 482.846 1231.87 484 1230.49 484H540.506Z" fill="white"/>
<path d="M996.34 467C995.262 467 994.723 466.159 995.142 465.077L1022.02 391.924C1022.44 390.842 1023.58 390 1024.66 390H1135.66C1136.74 390 1137.28 390.842 1136.86 391.924L1109.98 465.077C1109.56 466.159 1108.42 467 1107.34 467H996.34Z" fill="#282627"/>
<path d="M1005.17 462C1004.21 462 1003.8 461.283 1004.1 460.326L1027.58 396.673C1027.94 395.777 1028.95 395 1029.85 395H1126.83C1127.79 395 1128.2 395.717 1127.9 396.673L1104.42 460.326C1104.06 461.223 1103.05 462 1102.15 462H1005.17Z" fill="white"/>
<path d="M673 378H430V135H673V378Z" fill="#282627"/>
<path d="M669 373H435V140H669V373Z" fill="#A4B3C6"/>
<path d="M669 373H623.874L435 207.04L435.299 140H669V373Z" fill="#8FA0B8"/>
<path d="M648 353H456V161H648V353Z" fill="white"/>
<path d="M648 353H600.894L456 224.801V161H648V353Z" fill="#F3F6F9"/>
<path d="M523 311.712V289L548 312L523 311.712Z" fill="#1B64FA"/>
<path d="M513.396 237.166L512.598 238.052L590.304 308.095L591.103 307.209L513.396 237.166Z" fill="#333333" stroke="black" stroke-width="0.5"/>
<path d="M555.365 268.749L555.126 267.854L554.709 268.332L517.904 235.531V208.098H554.172C554.291 208.098 555.425 208.158 560.316 209.589C563.477 210.543 571.709 216.209 576.362 224.975C580.12 232.072 580.836 239.586 578.45 247.28C573.797 262.308 561.986 267.139 555.365 268.749ZM519.097 234.994L555.484 267.437L555.425 267.497C561.867 265.886 572.902 261.115 577.316 246.981C579.583 239.586 578.927 232.43 575.288 225.572C570.814 217.103 562.941 211.676 559.958 210.782C555.305 209.35 554.172 209.291 554.172 209.291H519.157V234.994H519.097Z" fill="#333333" stroke="black" stroke-width="0.5"/>
<path d="M550.173 305.129H517.723V277.457L505.256 266.186L506.031 265.292L518.737 276.801H518.916V276.921L550.173 305.129ZM518.975 303.936H547.071L518.975 278.531V303.936Z" fill="#333333" stroke="black" stroke-width="0.5"/>
<path d="M609.421 312.234H565.16V313.427H609.421V312.234Z" fill="#333333" stroke="black" stroke-width="0.5"/>
<path d="M490.729 241.937L489.93 242.823L567.636 312.865L568.435 311.979L490.729 241.937Z" fill="#333333" stroke="black" stroke-width="0.5"/>
<path d="M806.099 461C804.43 461 803.596 459.63 804.192 457.962L846.627 343.038C847.223 341.37 849.13 340 850.799 340H1025.9C1027.57 340 1028.4 341.37 1027.81 343.038L985.373 457.902C984.777 459.57 982.87 460.94 981.201 460.94L806.099 461Z" fill="#282627"/>
<path d="M801.099 464C799.43 464 798.596 462.63 799.192 460.962L841.627 346.038C842.223 344.37 844.13 343 845.799 343H1020.9C1022.57 343 1023.4 344.37 1022.81 346.038L980.373 460.902C979.777 462.57 977.87 463.94 976.201 463.94L801.099 464Z" fill="white"/>
<path d="M719.757 467C717.67 467 716 466.183 716 465.133V461.867C716 460.817 717.67 460 719.757 460H898.243C900.33 460 902 460.817 902 461.867V465.133C902 466.183 900.33 467 898.243 467H719.757Z" fill="#8FA0B8"/>
<path d="M891.922 467C890.841 467 890 466.183 890 465.133V461.867C890 460.817 890.841 460 891.922 460H982.078C983.159 460 984 460.817 984 461.867V465.133C984 466.183 983.159 467 982.078 467H891.922Z" fill="#282627"/>
<path d="M1154 295H994V135H1154V295Z" fill="#282627"/>
<path d="M1148.94 290H999V140H1149V290H1148.94Z" fill="#A4B3C6"/>
<path d="M1134.94 276H1012V153H1135V276H1134.94Z" fill="white"/>
<path d="M1134.94 276H1104.77L1012 193.861V153H1135L1134.94 276Z" fill="#F3F6F9"/>
<path d="M1062 249C1055.92 249 1051 243.855 1051 237.5C1051 231.145 1055.92 226 1062 226C1068.08 226 1073 231.145 1073 237.5C1073 243.855 1068.08 249 1062 249Z" fill="#0449D9"/>
<path d="M1057.08 245.338C1050.52 245.338 1045.15 239.971 1045.15 233.411C1045.15 226.851 1050.52 221.483 1057.08 221.483C1063.65 221.483 1069.01 226.851 1069.01 233.411C1069.01 239.971 1063.65 245.338 1057.08 245.338ZM1057.08 222.676C1051.18 222.676 1046.35 227.507 1046.35 233.411C1046.35 239.315 1051.18 244.146 1057.08 244.146C1062.99 244.146 1067.82 239.315 1067.82 233.411C1067.82 227.507 1062.99 222.676 1057.08 222.676Z" fill="#333333" stroke="black" stroke-width="0.5"/>
<path d="M1097.53 231.144L1084.82 219.634H1084.64V219.515L1053.45 191.307H1085.84V218.978L1098.3 230.25L1097.53 231.144ZM1056.55 192.559L1084.7 217.965V192.559H1056.55Z" fill="#333333" stroke="black" stroke-width="0.5"/>
<path d="M1036.02 183.723L1035.22 184.608L1112.93 254.651L1113.73 253.765L1036.02 183.723Z" fill="#333333" stroke="black" stroke-width="0.5"/>
<path d="M1363.94 552.86L1361.55 552.622C1361.61 551.787 1369.19 469.487 1365.43 443.545C1364 433.705 1358.57 426.608 1350.1 423.447C1339.18 419.392 1324.92 422.553 1314.67 431.439C1296.65 447.004 1294.5 461.436 1294.5 461.555L1292.12 461.257C1292.18 460.661 1294.32 445.811 1313.11 429.65C1324.03 420.227 1339.24 416.887 1350.99 421.241C1360.3 424.7 1366.26 432.512 1367.87 443.247C1371.63 469.487 1364.29 549.52 1363.94 552.86Z" fill="#BAC7D6"/>
<path d="M1247.97 524.999C1247.97 524.999 1246.9 518.772 1243.45 514.739C1240 510.646 1236.38 504.063 1240 500.386C1243.63 496.768 1254.38 496.116 1252.42 492.676C1250.46 489.236 1243.63 489.058 1240 493.981C1236.38 498.903 1235.49 500.386 1235.49 500.386C1235.49 500.386 1234 486.923 1234 483.898C1234 480.933 1242.56 475.536 1251.77 476.01C1260.98 476.426 1263.77 474.113 1258.43 471.74C1253.08 469.368 1243.87 474.113 1239.11 477.73C1234.36 481.348 1234.42 481.348 1234.42 481.348C1234.42 481.348 1233.76 471.918 1235.72 468.716C1237.68 465.513 1246.9 460.353 1255.69 460.353C1264.49 460.353 1267.04 461.836 1268.35 459.523C1269.66 457.15 1257 455.43 1247.79 459.938C1238.58 464.445 1235.78 466.996 1235.78 466.996C1235.78 466.996 1236.44 454.363 1239.88 451.813C1243.33 449.262 1255.75 444.103 1266.45 446.653C1277.15 449.203 1278.87 444.933 1275.24 442.145C1271.62 439.358 1255.75 441.493 1249.09 444.518C1242.44 447.483 1240.3 448.788 1240.3 448.788C1240.3 448.788 1241.79 442.561 1246.72 437.223C1251.65 431.885 1251.65 431.885 1251.65 431.885C1251.65 431.885 1261.93 429.75 1271.14 433.19C1280.35 436.63 1284.87 434.673 1281.25 431.055C1277.62 427.437 1266.03 428.505 1261.28 428.92C1256.58 429.335 1256.58 429.335 1256.58 429.335C1256.58 429.335 1271.14 418.422 1285.52 425.243C1299.91 432.063 1296.88 443.865 1296.88 443.865C1296.88 443.865 1315.3 434.435 1325.4 450.508C1335.5 466.58 1328.85 480.696 1328.85 480.696C1328.85 480.696 1329.92 466.343 1324.99 460.59C1320.05 454.837 1317.91 461.421 1322.19 468.063C1326.47 474.706 1327.36 482.179 1327.36 482.179C1327.36 482.179 1324.99 489.473 1323.26 492.439C1321.54 495.404 1318.98 498.666 1318.98 498.666C1318.98 498.666 1318.75 483.246 1311.91 472.571C1305.02 461.895 1300.74 466.996 1304.19 474.053C1307.63 481.111 1311.5 481.348 1314.88 487.991C1318.33 494.633 1316.78 500.623 1316.78 500.623C1316.78 500.623 1314.23 506.198 1309.89 509.638C1305.61 513.078 1301.99 514.324 1301.99 514.324C1301.99 514.324 1302.82 499.971 1299.43 492.261C1295.98 484.551 1291.71 478.323 1289.8 479.213C1287.9 480.103 1288.32 482.653 1293.25 489.473C1298.18 496.294 1300.14 514.502 1300.14 514.502C1300.14 514.502 1298 518.357 1290.7 519.839C1283.39 521.322 1280.18 521.559 1280.18 521.559C1280.18 521.559 1284.69 514.086 1283.21 498.666C1281.72 483.246 1276.31 480.696 1275.72 487.991C1275.12 495.286 1279.34 501.276 1280.65 510.053C1281.96 518.831 1279.58 521.796 1279.58 521.796C1279.58 521.796 1275.07 522.627 1272.69 521.796C1270.31 520.966 1269.48 520.729 1269.48 520.729C1269.48 520.729 1274 506.791 1271.2 500.386C1268.41 493.981 1264.78 495.701 1266.51 505.309C1268.23 514.917 1267.82 520.077 1267.82 520.077C1267.82 520.077 1258.6 519.009 1254.09 520.492C1249.45 522.034 1247.97 525.058 1247.97 524.999Z" fill="#BAC7D6"/>
<path d="M1345.27 561.448L1342.94 560.852C1343 560.613 1348.43 537.534 1332.02 465.611C1324.15 431.141 1322.06 405.735 1325.58 388.023C1328.5 373.293 1335.48 363.691 1346.88 358.801C1359.04 353.672 1372.65 354.745 1386.13 361.962C1396.21 367.389 1402.65 374.187 1402.95 374.485L1401.22 376.096C1400.98 375.797 1375.69 349.199 1347.89 360.948C1337.15 365.599 1330.83 374.366 1328.03 388.441C1324.57 405.855 1326.65 430.902 1334.47 465.015C1350.93 537.832 1345.5 560.494 1345.27 561.448Z" fill="#8FA0B8"/>
<path d="M1451.06 415.922C1451.06 415.922 1450.05 410.326 1451.72 405.802C1453.4 401.278 1454.42 394.492 1450.16 392.527C1445.91 390.563 1436.56 393.301 1437.1 389.789C1437.64 386.277 1443.51 383.955 1448.13 387.05C1452.8 390.086 1454 391.098 1454 391.098C1454 391.098 1451.06 379.133 1450.16 376.633C1449.27 374.133 1440.22 372.168 1432.49 375.383C1424.76 378.597 1421.64 377.466 1425.48 373.776C1429.31 370.085 1438.66 371.275 1443.87 372.883C1449.09 374.49 1449.03 374.549 1449.03 374.549C1449.03 374.549 1446.63 366.335 1443.99 364.192C1441.36 362.048 1431.83 360.56 1424.34 363.239C1416.79 365.977 1415.11 368.001 1413.25 366.394C1411.39 364.787 1421.7 359.429 1430.99 360.382C1440.28 361.334 1443.45 362.703 1443.45 362.703C1443.45 362.703 1438.96 352.167 1435.24 351.036C1431.53 349.905 1419.24 349.369 1410.91 354.905C1402.52 360.382 1399.77 357.286 1401.99 353.774C1404.2 350.262 1418.46 347.226 1425.12 347.702C1431.77 348.178 1433.99 348.595 1433.99 348.595C1433.99 348.595 1430.75 343.773 1424.88 340.737C1419 337.701 1419 337.701 1419 337.701C1419 337.701 1409.54 339.07 1402.7 344.845C1395.87 350.619 1391.44 350.381 1393.42 346.154C1395.39 341.928 1405.64 339.249 1409.78 338.178C1413.97 337.106 1413.97 337.106 1413.97 337.106C1413.97 337.106 1398.09 332.344 1387.96 342.583C1377.84 352.881 1384.07 361.929 1384.07 361.929C1384.07 361.929 1365.37 359.608 1361.78 376.395C1358.18 393.182 1368.25 403.123 1368.25 403.123C1368.25 403.123 1362.85 391.217 1365.25 384.788C1367.65 378.359 1371.54 383.3 1369.99 390.325C1368.37 397.289 1369.99 403.957 1369.99 403.957C1369.99 403.957 1374.3 409.433 1376.7 411.457C1379.09 413.481 1382.27 415.446 1382.27 415.446C1382.27 415.446 1377.66 402.29 1380.17 391.039C1382.69 379.788 1387.96 382.824 1387.24 389.908C1386.52 396.992 1383.29 398.361 1382.39 405.088C1381.55 411.814 1384.67 416.457 1384.67 416.457C1384.67 416.457 1388.62 420.386 1393.36 421.994C1398.09 423.601 1401.63 423.541 1401.63 423.541C1401.63 423.541 1396.41 411.576 1396.95 403.957C1397.49 396.337 1399.23 389.729 1401.15 389.848C1403.06 389.967 1403.48 392.289 1401.39 399.67C1399.29 406.993 1403.3 423.125 1403.3 423.125C1403.3 423.125 1406.36 425.744 1413.01 424.791C1419.66 423.839 1422.54 423.006 1422.54 423.006C1422.54 423.006 1416.37 418.005 1412.83 404.433C1409.3 390.86 1413.07 386.991 1415.89 393.003C1418.7 399.016 1416.91 405.445 1418.52 413.302C1420.14 421.16 1423.14 423.006 1423.14 423.006C1423.14 423.006 1427.27 422.351 1429.01 420.863C1430.75 419.374 1431.41 418.958 1431.41 418.958C1431.41 418.958 1423.2 408.54 1423.62 402.171C1424.04 395.801 1427.63 396.158 1429.19 404.909C1430.75 413.66 1432.67 417.886 1432.67 417.886C1432.67 417.886 1440.22 414.136 1444.53 414.017C1448.85 413.779 1451.06 415.862 1451.06 415.922Z" fill="#8FA0B8"/>
<path d="M1350.99 567.531L1347.47 566.935C1347.65 565.861 1366.03 458.574 1349.08 423.805C1343.36 412.057 1336.08 404.721 1327.55 402.038C1317.11 398.817 1308.22 403.767 1308.16 403.827L1306.38 400.726C1306.79 400.487 1316.63 394.941 1328.57 398.638C1338.11 401.561 1346.1 409.552 1352.31 422.255C1369.72 458.037 1351.77 563.118 1350.99 567.531Z" fill="#282627"/>
<path d="M1368.33 702.206L1385 549.11L1375.71 546L1360 704L1368.33 702.206Z" fill="#282627"/>
<path d="M1361.26 702H1336.74L1322 546H1376L1361.26 702Z" fill="white"/>
<path d="M1366.41 647L1328.31 612.816L1322 546H1376L1366.41 647Z" fill="#F3F6F9"/>
<path d="M1312.75 401.535C1312.75 401.535 1321.58 395.755 1312.15 377.821C1302.72 359.887 1277.83 363.819 1264.82 371.267C1251.8 378.715 1247.5 385.209 1247.5 385.209C1247.5 385.209 1266.43 385.626 1278.66 391.823C1290.9 398.02 1290.78 402.31 1283.92 400.105C1277.05 397.9 1266.13 391.346 1255.32 389.321C1244.52 387.295 1243.74 389.142 1243.74 389.142C1243.74 389.142 1237.54 394.743 1233.72 403.501C1229.89 412.26 1230.97 414.047 1230.97 414.047C1230.97 414.047 1238.01 404.335 1250.85 405.885C1263.68 407.374 1270.01 416.431 1264.52 415.894C1258.97 415.358 1250.85 409.042 1241.48 411.724C1232.1 414.405 1231.39 416.192 1231.39 416.192C1231.39 416.192 1228.28 423.879 1228.46 435.914C1228.64 447.95 1225 453.61 1225 453.61C1225 453.61 1233.83 459.39 1240.4 461.118C1246.91 462.786 1251.44 461.356 1253.53 458.019C1255.62 454.683 1260.16 445.09 1264.87 442.945C1269.59 440.8 1267.8 447.116 1261.77 453.968C1255.74 460.82 1251.5 463.203 1251.5 463.203C1251.5 463.203 1264.4 472.081 1272.46 469.936C1280.51 467.791 1287.68 459.866 1289.77 452.299C1291.86 444.732 1288.39 439.787 1292.57 437.642C1296.75 435.438 1296.57 452.538 1289.53 462.25C1282.48 471.962 1277.23 472.855 1277.23 472.855C1277.23 472.855 1291.98 477.086 1301.59 469.281C1311.2 461.475 1312.33 452.002 1311.61 443.124C1310.9 434.246 1306.6 427.096 1311.38 425.964C1316.15 424.832 1319.61 432.697 1317.88 443.362C1316.15 453.968 1311.14 463.203 1311.14 463.203C1311.14 463.203 1332.39 450.214 1337.58 434.961C1342.77 419.767 1332.57 408.625 1325.4 404.752C1318.24 400.88 1312.75 401.535 1312.75 401.535Z" fill="#282627"/>
<path d="M1235.3 371.027C1224.72 370.533 1231.91 377.011 1240.11 382.008C1248.3 387.005 1245.87 371.52 1235.3 371.027Z" fill="#CCD6E2"/>
<path d="M1377.77 366.018C1386.24 365.665 1380.43 370.497 1373.9 374.269C1367.37 377.981 1369.3 366.372 1377.77 366.018Z" fill="#CCD6E2"/>
<path d="M542.803 91C541.253 91 540 89.6875 540 88.0625V83.9375C540 82.3125 541.253 81 542.803 81H1112.2C1113.75 81 1115 82.3125 1115 83.9375V88.0625C1115 89.6875 1113.75 91 1112.2 91H542.803Z" fill="#282627"/>
<path d="M582.167 84C580.99 84 580 83.1111 580 82.0556V75.9444C580 74.8889 580.99 74 582.167 74H590.833C592.01 74 593 74.8889 593 75.9444V82.0556C593 83.1111 592.01 84 590.833 84H582.167Z" fill="#282627"/>
<path d="M584.344 75C583.611 75 583 74.4366 583 73.7606V72.2394C583 71.5634 583.611 71 584.344 71H589.656C590.389 71 591 71.5634 591 72.2394V73.7606C591 74.4366 590.389 75 589.656 75H584.344Z" fill="#282627"/>
<path d="M587 0H586V87H587V0Z" fill="#282627"/>
<path d="M1066 84C1064.91 84 1064 83.1111 1064 82.0556V75.9444C1064 74.8889 1064.91 74 1066 74H1074C1075.09 74 1076 74.8889 1076 75.9444V82.0556C1076 83.1111 1075.09 84 1074 84H1066Z" fill="#282627"/>
<path d="M1067.34 75C1066.61 75 1066 74.4366 1066 73.7606V72.2394C1066 71.5634 1066.61 71 1067.34 71H1072.66C1073.39 71 1074 71.5634 1074 72.2394V73.7606C1074 74.4366 1073.39 75 1072.66 75H1067.34Z" fill="#282627"/>
<path d="M1070 0H1069V87H1070V0Z" fill="#282627"/>
<path d="M897 446C897 446 901.034 430.005 908.628 426.687C916.221 423.37 928.442 421.237 928.442 421.237L952.646 421C952.646 421 968.19 425.265 969.613 431.19C971.037 437.114 968.071 445.763 968.071 445.763L897 446Z" fill="#BAC7D6"/>
<path d="M938.236 402C938.236 402 935.463 400.059 936.093 396.783C936.723 393.508 938.362 393.629 939.118 394.6C939.874 395.57 940 398.482 940 398.482L938.236 402Z" fill="#FEC3B1"/>
<path d="M956.624 404.871C956.624 404.871 960.143 405.386 962.309 401.529C964.475 397.673 960.955 397.93 959.873 398.059C958.79 398.187 957.572 399.601 957.572 399.601L955 405L956.624 404.871Z" fill="#FEC3B1"/>
<path d="M937.63 408.407C937.63 408.407 936.426 417.692 932.213 419.411C928 421.13 928 421.13 928 421.13C928 421.13 928.602 427.435 938.472 426.976C948.343 426.518 952.917 420.786 952.917 420.786C952.917 420.786 950.509 419.296 950.269 416.202C950.028 413.107 954 406.573 954 406.573L938.352 406L937.63 408.407Z" fill="#FEC3B1"/>
<path d="M939 408.197C939 408.197 940.157 413.822 944.438 414.899C948.719 415.976 953 408.077 953 408.077L940.388 407L939 408.197Z" fill="#FE8E8A"/>
<path d="M939.095 395.201C939.095 395.201 936.203 405.014 939.818 409.133C943.433 413.251 952.831 410.223 957.53 403.318C962.229 396.413 965 386.722 965 386.722C965 386.722 956.807 380.664 951.023 379.211C945.24 377.757 941.625 384.299 941.625 384.299L940.42 389.75L939.095 395.201Z" fill="#FEC3B1"/>
<path d="M944 388.776C944 388.776 947.521 385.538 949.679 386.056C951.837 386.574 950.701 388.128 950.701 388.128C950.701 388.128 947.862 387.61 945.931 388.517C944 389.423 944 388.776 944 388.776Z" fill="#282627"/>
<path d="M961 392.89C961 392.89 957.896 388.935 955.567 389.001C953.239 389.067 954.194 390.846 954.194 390.846C954.194 390.846 957.239 390.912 959.09 392.165C960.94 393.417 961 392.89 961 392.89Z" fill="#282627"/>
<path d="M947 398.006C947 398.006 951.4 397.889 950.971 398.704C950.541 399.518 949.361 400.566 948.502 399.635C947.644 398.704 947 398.006 947 398.006Z" fill="#FE8E8A"/>
<path d="M939.541 395.636C939.541 395.636 941.674 385.696 944.993 383.272C948.312 380.847 951.631 382.545 954.357 386.06C957.083 389.575 960.52 389.697 960.52 389.697C960.52 389.697 958.268 388.242 957.438 387.151C956.609 386.06 956.609 386.06 956.609 386.06C956.609 386.06 960.402 388.363 961.942 388.484C963.483 388.606 963.365 389.212 963.246 390.181C963.128 391.151 960.639 396 960.639 396C960.639 396 964.431 393.212 965.735 390.424C967.039 387.636 967.039 387.636 967.039 387.636C967.039 387.636 970.476 385.696 970.95 382.06C971.425 378.423 968.343 377.574 968.343 377.574C968.343 377.574 967.513 373.938 964.076 372.362C960.639 370.786 956.846 374.786 954.238 376.12C951.631 377.453 950.564 377.453 950.564 377.453C950.564 377.453 952.46 376.362 952.816 375.029C953.171 373.695 951.631 372.483 951.631 372.483C951.631 372.483 952.223 374.786 950.919 375.999C949.616 377.211 944.756 376.483 941.793 378.665C938.83 380.847 938 385.454 938.356 389.454C938.711 393.454 938 395.273 938 395.273L939.541 395.636Z" fill="#282627"/>
<path d="M965.154 448.017H899.538C897.987 448.017 896.734 447.421 895.899 446.288C895.064 445.155 894.945 443.545 895.482 441.934L923.935 360.828C924.949 357.846 928.111 355.58 931.093 355.58H996.709C998.26 355.58 999.512 356.176 1000.35 357.309C1001.18 358.442 1001.3 360.052 1000.76 361.663L972.312 442.769C971.298 445.691 968.136 448.017 965.154 448.017ZM931.153 357.965C929.184 357.965 926.918 359.635 926.261 361.663L897.808 442.769C897.51 443.604 897.569 444.439 897.927 444.916C898.285 445.393 898.822 445.632 899.598 445.632H965.213C967.182 445.632 969.448 443.962 970.105 441.934L998.558 360.828C998.856 359.993 998.797 359.158 998.439 358.681C998.081 358.204 997.544 357.965 996.768 357.965H931.153Z" fill="#BAC7D6"/>
<path d="M852.534 380C849.017 380 847.17 377.103 848.362 373.555L851.819 363.445C853.011 359.897 856.886 357 860.402 357H905.466C908.983 357 910.83 359.897 909.638 363.445L906.181 373.555C904.989 377.103 901.114 380 897.598 380H852.534Z" fill="#BAC7D6"/>
<path d="M861.172 367C860.528 367 860 366.325 860 365.5C860 364.675 860.528 364 861.172 364H891.828C892.472 364 893 364.675 893 365.5C893 366.325 892.472 367 891.828 367H861.172Z" fill="white"/>
<path d="M861.021 372C860.42 372 860 371.529 860 371C860 370.412 860.48 370 861.021 370H878.979C879.58 370 880 370.471 880 371C880 371.588 879.52 372 878.979 372H861.021Z" fill="white"/>
<path d="M841.913 403C839.67 403 838.431 401.11 839.257 398.807L841.5 392.193C842.267 389.89 844.746 388 847.048 388H876.087C878.33 388 879.569 389.89 878.743 392.193L876.5 398.807C875.733 401.11 873.254 403 870.952 403H841.913Z" fill="#DEE7F0"/>
<path d="M1087.12 414C1085.5 414 1084.63 412.603 1085.15 410.915L1086.77 406.085C1087.35 404.397 1089.14 403 1090.76 403H1111.88C1113.5 403 1114.37 404.397 1113.85 406.085L1112.23 410.915C1111.65 412.603 1109.86 414 1108.24 414H1087.12Z" fill="#BAC7D6"/>
<path d="M1090.59 408C1090.29 408 1090 407.8 1090 407.5C1090 407.25 1090.24 407 1090.59 407H1105.41C1105.71 407 1106 407.2 1106 407.5C1106 407.75 1105.76 408 1105.41 408H1090.59Z" fill="white"/>
<path d="M1090.5 411C1090.19 411 1090 410.75 1090 410.5C1090 410.187 1090.25 410 1090.5 410H1099.5C1099.81 410 1100 410.25 1100 410.5C1100 410.813 1099.75 411 1099.5 411H1090.5Z" fill="white"/>
<path d="M1081.45 425C1080.35 425 1079.74 424.139 1080.11 423.049L1081.21 419.951C1081.58 418.861 1082.86 418 1083.97 418H1098.55C1099.65 418 1100.26 418.861 1099.89 419.951L1098.79 423.049C1098.42 424.139 1097.14 425 1096.03 425H1081.45Z" fill="#DEE7F0"/>
<path d="M1077.19 441C1075.52 441 1074.62 439.476 1075.16 437.635L1076.83 432.365C1077.43 430.524 1079.29 429 1080.96 429H1102.81C1104.48 429 1105.38 430.524 1104.84 432.365L1103.17 437.635C1102.57 439.476 1100.71 441 1099.04 441H1077.19Z" fill="#BAC7D6"/>
<path d="M1081.59 434C1081.29 434 1081 433.8 1081 433.5C1081 433.25 1081.24 433 1081.59 433H1096.41C1096.71 433 1097 433.2 1097 433.5C1097 433.75 1096.76 434 1096.41 434H1081.59Z" fill="white"/>
<path d="M1081.5 437C1081.19 437 1081 436.75 1081 436.5C1081 436.187 1081.25 436 1081.5 436H1090.5C1090.81 436 1091 436.25 1091 436.5C1091 436.813 1090.75 437 1090.5 437H1081.5Z" fill="white"/>
<path d="M1072.38 452C1071.33 452 1070.75 451.016 1071.1 449.771L1072.15 446.229C1072.5 444.984 1073.72 444 1074.77 444H1088.62C1089.67 444 1090.25 444.984 1089.9 446.229L1088.85 449.771C1088.5 451.016 1087.28 452 1086.23 452H1072.38Z" fill="#DEE7F0"/>
<path d="M1024.75 443C1023.39 443 1022.67 441.877 1023.15 440.459L1035.57 406.541C1036.11 405.123 1037.6 404 1039.02 404H1076.25C1077.61 404 1078.33 405.123 1077.85 406.541L1065.43 440.459C1064.89 441.877 1063.4 443 1061.98 443H1024.75Z" fill="#DEE7F0"/>
<path d="M1171 703H1152V494H1171V703Z" fill="#282627"/>
<path d="M1086 703H1067V494H1086V703Z" fill="#282627"/>
<path d="M1164 501.118L1083.12 582L1073 571.882L1153.88 491L1164 501.118Z" fill="#282627"/>
<path d="M1073 501.118L1153.88 582L1164 571.882L1083.12 491L1073 501.118Z" fill="#282627"/>
<path d="M1401 0H1400V143H1401V0Z" fill="#282627"/>
<path d="M1498 -2H1497V206H1498V-2Z" fill="#282627"/>
<path d="M1400.82 222.768C1394.8 222.768 1389.85 217.877 1389.85 211.794C1389.85 205.711 1394.74 200.821 1400.82 200.821C1406.91 200.821 1411.8 205.711 1411.8 211.794C1411.8 217.877 1406.85 222.768 1400.82 222.768ZM1400.82 202.073C1395.45 202.073 1391.04 206.427 1391.04 211.854C1391.04 217.281 1395.4 221.634 1400.82 221.634C1406.25 221.634 1410.61 217.281 1410.61 211.854C1410.61 206.427 1406.19 202.073 1400.82 202.073Z" fill="#282627"/>
<path d="M1386.87 213V157.8C1386.87 150.186 1393.1 144 1400.76 144H1402.98C1410.64 144 1416.87 150.186 1416.87 157.8V213H1386.87Z" fill="#282627"/>
<path d="M1385.87 213V157.8C1385.87 150.186 1392.01 144 1399.57 144H1401.87V212.703L1385.87 213Z" fill="#0449D9"/>
<path d="M1397.36 145C1396.55 145 1395.87 144.379 1395.87 143.645V139.355C1395.87 138.621 1396.55 138 1397.36 138H1403.38C1404.19 138 1404.87 138.621 1404.87 139.355V143.645C1404.87 144.379 1404.19 145 1403.38 145H1397.36Z" fill="#282627"/>
<path d="M1398.7 139C1398.26 139 1397.87 138.571 1397.87 138.082V136.918C1397.87 136.429 1398.26 136 1398.7 136H1402.04C1402.48 136 1402.87 136.429 1402.87 136.918V138.082C1402.87 138.571 1402.48 139 1402.04 139H1398.7Z" fill="#282627"/>
<path d="M1497.99 277.634C1491.96 277.634 1487.01 272.744 1487.01 266.661C1487.01 260.578 1491.91 255.687 1497.99 255.687C1504.07 255.687 1508.97 260.578 1508.97 266.661C1508.97 272.744 1504.01 277.634 1497.99 277.634ZM1497.99 256.94C1492.62 256.94 1488.21 261.293 1488.21 266.72C1488.21 272.147 1492.56 276.501 1497.99 276.501C1503.42 276.501 1507.77 272.147 1507.77 266.72C1507.77 261.293 1503.36 256.94 1497.99 256.94Z" fill="#282627"/>
<path d="M1484 268V212.8C1484 205.186 1490.23 199 1497.89 199H1500.11C1507.77 199 1514 205.186 1514 212.8V268H1484Z" fill="#282627"/>
<path d="M1483 268V212.8C1483 205.186 1489.14 199 1496.7 199H1499V267.703L1483 268Z" fill="#0449D9"/>
<path d="M1494.49 200C1493.68 200 1493 199.379 1493 198.645V194.355C1493 193.621 1493.68 193 1494.49 193H1500.51C1501.32 193 1502 193.621 1502 194.355V198.645C1502 199.379 1501.32 200 1500.51 200H1494.49Z" fill="#282627"/>
<path d="M1495.83 194C1495.39 194 1495 193.571 1495 193.082V191.918C1495 191.429 1495.39 191 1495.83 191H1499.17C1499.61 191 1500 191.429 1500 191.918V193.082C1500 193.571 1499.61 194 1499.17 194H1495.83Z" fill="#282627"/>
<path d="M1365.44 66C1347.66 66 1331.68 62.7744 1317.88 56.455C1305.81 50.9255 1295.39 43.092 1286.77 33.0862C1272.18 16.0368 1268 -1.60504 1268 -1.73669L1269.33 -2C1269.39 -1.80252 1273.44 15.5102 1287.9 32.2962C1301.16 47.7657 1326.24 65.9342 1370.15 64.6176C1409.68 63.2352 1432.96 45.3959 1445.63 30.6505C1459.3 14.6544 1463.67 -1.21007 1463.74 -1.34172L1465 -1.01258C1464.93 -0.880929 1460.49 15.3127 1446.63 31.5063C1433.82 46.4492 1410.21 64.6176 1370.21 66C1368.56 66 1366.96 66 1365.44 66Z" fill="#282627"/>
<path d="M1497.9 194C1497.9 193.867 1497.65 177.744 1502.86 165.42C1506.17 157.625 1512.98 137.772 1505.01 122.715C1496.86 107.326 1489.26 89.6713 1489.01 65.0881C1488.71 39.3724 1493.86 -0.600273 1493.92 -1L1495.14 -0.800135C1495.08 -0.400408 1489.93 39.439 1490.24 65.0215C1490.55 89.2716 1498.02 106.726 1506.11 121.983C1514.39 137.572 1507.4 157.891 1503.97 165.886C1498.88 177.944 1499.13 193.733 1499.13 193.933L1497.9 194Z" fill="#282627"/>
<path d="M1389.31 189.49H1388.12V157.763C1388.36 154.184 1390.5 150.785 1393.9 148.698C1396.05 147.386 1398.26 146.849 1399.51 147.386L1399.03 148.459C1398.26 148.161 1396.53 148.399 1394.5 149.711C1391.46 151.62 1389.49 154.661 1389.25 157.822L1389.31 189.49Z" fill="white"/>
<path d="M1389.19 192.592H1388V197.244H1389.19V192.592Z" fill="white"/>
<path d="M1486.48 244.952H1485.29V213.225C1485.52 209.647 1487.67 206.248 1491.07 204.16C1493.22 202.848 1495.43 202.312 1496.68 202.848L1496.2 203.922C1495.43 203.624 1493.7 203.862 1491.67 205.174C1488.63 207.083 1486.66 210.124 1486.42 213.285L1486.48 244.952Z" fill="white"/>
<path d="M1486.36 248.054H1485.16V252.706H1486.36V248.054Z" fill="white"/>
<path d="M563 444.996L559.272 446L545 392.004L548.728 391L563 444.996Z" fill="#004FD3"/>
<path d="M565 444.055L559.609 445L550 390.134L552.051 386L555.391 389.189L565 444.055Z" fill="#282627"/>
<path d="M574.396 467H558.604L551 419H582L574.396 467Z" fill="#282627"/>
<path d="M561.319 453.087C557.382 453.087 549.687 451.715 546.048 441.756C544.736 438.237 544.975 435.673 546.704 434.003C550.641 430.246 560.663 434.242 562.631 435.077L561.259 438.357C557.203 436.627 550.761 435.077 549.15 436.627C548.554 437.164 548.673 438.595 549.389 440.563C553.385 451.358 562.572 449.509 562.989 449.449L563.705 452.968C563.765 452.908 562.81 453.087 561.319 453.087Z" fill="#282627"/>
<path d="M557 423.417L561.38 454L563 423L557 423.417Z" fill="#004FD3"/>
<path d="M576.353 445L572 444.226L580.647 394L585 394.774L576.353 445Z" fill="#282627"/>
<path d="M585.135 395L580 394.049L580.865 389L586 389.951L585.135 395Z" fill="#004FD3"/>
<path d="M557.739 423.2L556.553 423.323L558.346 440.644L559.532 440.522L557.739 423.2Z" fill="white"/>
<path d="M888.945 532.154C888.945 532.154 895.3 534.472 900.562 533.769C905.824 533.067 909.446 536.579 909.446 536.579L908.079 556.458L880.949 555.264L884.161 531.381L888.945 532.154Z" fill="#FEC3B1"/>
<path d="M845.406 690.964C845.406 690.964 836.51 689.994 841.362 687.083C846.214 684.171 868.655 681.907 871.688 683.524C874.721 685.142 874.047 684.948 874.047 684.948C874.047 684.948 873.373 687.665 870.677 688.506C867.982 689.347 861.916 689.929 861.916 689.929L845.406 690.964Z" fill="#282627"/>
<path d="M845.603 687.614C845.603 687.614 845.603 692.977 844.032 697.872C842.461 702.766 844.032 706.588 844.032 706.588L862.681 711.482L873.406 698.944C873.406 698.944 868.146 693.782 869.308 687.546C869.991 680.842 869.786 665.622 875.251 665.89L847.721 683.524L845.603 687.614Z" fill="#FEC3B1"/>
<path d="M845.613 692.104L846.01 686.799C846.01 686.799 854.937 683.96 862.012 683.437C869.088 682.914 869.551 682.989 869.551 682.989L868.823 689.116C868.823 689.116 868.096 687.696 859.235 688.443C850.44 689.19 845.613 692.104 845.613 692.104Z" fill="#FE8E8A"/>
<path d="M892.513 549.133L883.229 548.578L883.809 541.64L899.187 543.028L894.472 549.619L892.513 549.133Z" fill="#FE8E8A"/>
<path d="M802.298 732C763.919 732 732.766 727.657 732.766 722.311C732.766 716.965 763.919 712.622 802.298 712.622C840.678 712.622 871.831 716.965 871.831 722.311C871.831 727.657 840.678 732 802.298 732Z" fill="#3B3839"/>
<path d="M820.536 730.86H794.318V654.488H820.536V730.86Z" fill="#3B3839"/>
<path d="M598.41 437.911C598.41 437.911 593.994 438.25 592.295 444.019C590.596 449.787 586.52 466.414 588.558 469.468C590.596 472.522 595.692 472.861 595.692 472.861L643.255 487.113C643.255 487.113 647.332 489.149 648.352 493.221C649.371 497.293 649.371 497.293 649.371 497.293L688.101 636.078C688.101 636.078 693.536 656.437 713.241 657.455C732.946 658.473 915.768 657.455 915.768 657.455C915.768 657.455 924.941 658.473 925.621 652.026C926.3 645.579 925.621 614.361 925.621 614.361V599.77L908.294 586.536C895.044 585.857 761.144 586.536 761.144 586.536L698.293 451.823L598.41 437.911Z" fill="#1A64F9"/>
<path d="M672.352 451.789L719.707 589.129C719.707 589.129 722.433 597.967 734.016 600.007C745.599 602.047 925.923 600.007 925.923 600.007C925.923 600.007 915.021 587.429 907.526 586.749C900.031 586.069 796.362 586.749 796.362 586.749L691.43 447.03L678.484 448.05L672.352 451.789Z" fill="#004FD3"/>
<path d="M597.645 437.227C597.645 437.227 591.479 441.672 594.562 443.04C597.645 444.408 680.885 468.687 680.885 468.687L689.449 449.537L618.884 434.491L597.645 437.227Z" fill="#004FD3"/>
<path d="M792.369 433.351C792.369 433.351 812.512 442.901 813.537 445.971C814.561 449.04 817.634 466.435 820.365 466.776C823.096 467.117 823.438 460.977 826.852 467.117C830.266 473.256 837.094 479.736 837.094 479.736C837.094 479.736 838.801 475.643 842.898 477.69C846.995 479.736 855.872 482.806 855.872 482.806L836.07 519.982C836.07 519.982 820.706 515.207 818.316 511.455C815.926 507.704 814.219 500.2 814.219 500.2C814.219 500.2 808.757 497.472 805.001 492.015C801.246 486.557 789.296 477.69 789.296 477.69L785.199 436.762L792.369 433.351Z" fill="#F3F6F9"/>
<path d="M772.073 391.562C772.073 391.562 772.758 393.077 772.073 393.766C771.388 394.455 771.388 394.455 771.388 394.455C771.388 394.455 773.716 396.246 772.073 397.761C770.429 399.277 771.251 401.206 771.251 401.206C771.251 401.206 772.484 403.961 769.745 404.788C767.005 405.614 741.942 398.45 741.942 398.45C741.942 398.45 729.752 393.49 726.739 386.877C723.726 380.264 725.096 374.753 725.096 374.753L733.724 369.518L743.174 379.989C743.174 379.989 743.722 390.459 750.433 394.179C757.144 397.899 760.431 400.655 764.677 394.73C768.923 388.806 770.566 389.219 770.566 389.219L772.073 391.562Z" fill="#FEC3B1"/>
<path d="M725.485 393.02C725.485 393.02 726.37 407.328 725.008 409.372C723.646 411.416 723.646 411.416 723.646 411.416V413.255L741.144 431.378L742.302 435.67L749.791 445.89L748.906 439.281L758.438 421.09C758.438 421.09 755.714 419.728 756.6 416.525C757.485 413.323 759.527 412.301 758.846 409.576C758.165 406.851 741.144 392.748 741.144 392.748C741.144 392.748 735.902 393.429 732.293 390.023C728.685 386.616 728.685 386.616 728.685 386.616L725.961 387.297L725.485 393.02Z" fill="#FE8E8A"/>
<path d="M759.922 356.683C759.922 356.683 762.124 360.399 764.052 361.953C765.979 363.507 766.942 364.52 767.149 366.007C767.355 367.493 766.323 369.52 767.493 371.074C768.663 372.628 770.59 372.763 771.485 374.588C772.38 376.412 772.862 379.25 774.651 381.277C776.578 383.304 776.578 384.79 774.514 385.466C772.449 386.142 770.59 386.074 770.59 386.074L769.214 390.128L764.74 397.425C764.74 397.425 762.124 400.128 758.201 398.776C754.278 397.425 745.261 388.979 743.747 379.317C742.233 369.655 739.961 364.115 739.961 364.115L733.904 359.25C733.904 359.25 734.593 356.683 741.82 354.521C749.047 352.358 757.65 354.521 757.65 354.521L759.922 356.683Z" fill="#FEC3B1"/>
<path d="M722.641 384.807L724.32 386.966L724.857 393.036C724.857 393.036 726.2 391.012 727.678 389.664C729.155 388.315 729.827 388.18 729.827 388.18C729.827 388.18 726.469 381.772 728.148 377.726C729.827 373.679 734.326 376.512 734.326 376.512C734.326 376.512 734.863 374.488 737.012 374.623C739.161 374.758 745.406 383.391 742.519 388.112C739.631 392.833 737.818 395.194 738.624 397.555C739.43 399.915 751.517 411.381 756.218 412.258C760.919 413.135 771.126 413.27 772.335 410.774C773.544 408.279 770.992 397.622 770.992 397.487L768.977 398.027C773.342 403.288 763.471 404.906 764.411 396.678C764.545 394.52 768.44 391.957 770.992 391.282C773.544 390.608 770.857 384.673 770.992 386.426C770.992 386.426 768.44 386.291 764.142 389.259C762.127 390.608 763.336 396.813 758.635 396.341C751.383 395.531 753.8 387.708 750.241 386.763C741.646 384.066 745.272 377.456 743.862 373.814C741.713 368.081 747.219 365.585 747.219 365.585L742.384 361.539C742.384 361.539 730.431 365.72 725.932 371.521C721.432 377.321 721.365 381.772 721.365 381.772L722.641 384.807Z" fill="#3B3839"/>
<path d="M760.123 356.885C760.123 356.885 758.04 350.776 751.238 349.419C744.436 348.061 729.721 350.233 726.945 352.677C724.169 355.12 713.619 372.497 714.59 374.398C715.562 376.299 723.266 386.616 723.266 386.616C723.266 386.616 724.793 378.81 731.248 372.362C737.704 365.913 745.477 364.08 745.477 364.08C745.477 364.08 739.578 359.465 742.146 357.971C744.714 356.478 751.516 355.256 754.778 355.799C758.04 356.342 760.123 356.885 760.123 356.885Z" fill="#282627"/>
<path d="M752.143 370.246C752.143 370.246 754.771 367.022 757.676 367.022C760.581 367.022 767.359 363.797 767.912 365.41C768.466 367.022 767.774 370.246 766.183 370.246C764.593 370.246 760.996 371.052 758.022 370.408C755.048 369.763 752.143 370.246 752.143 370.246Z" fill="#282627"/>
<path d="M871.12 459.404C871.12 459.404 864.057 493.986 858.656 504.658C853.255 515.33 846.747 518.842 846.747 518.842L832.552 513.574C832.552 513.574 828.951 502.767 839.13 489.596C849.309 476.425 858.864 456.838 858.864 452.988C858.864 449.138 857.341 440.83 859.21 436.777C861.08 432.725 862.673 426.983 864.196 425.16C865.719 423.336 869.389 421.107 870.982 417.73C872.574 414.353 875.136 415.163 877.075 411.786C879.014 408.409 880.191 408.274 880.191 408.274C880.191 408.274 882.13 411.313 880.745 413.812C879.36 416.312 868.42 428.132 868.42 428.132C868.42 428.132 870.566 434.278 872.921 442.248C873.751 444.95 882.061 445.355 883.03 447.246C885.038 450.759 871.12 459.404 871.12 459.404Z" fill="#FEC3B1"/>
<path d="M868.588 429.932L877.207 436.584L884.368 448.651C884.368 448.651 881.583 451.39 880.39 451.586C879.196 451.781 867.792 444.281 865.803 448.585C865.405 448.977 863.283 447.02 868.057 439.585C869.715 436.323 868.588 429.932 868.588 429.932Z" fill="#FE8E8A"/>
<path d="M722.173 410.321L720.135 408.274L713.001 413.05C713.001 413.05 697.035 408.615 693.638 409.297C690.241 409.98 683.107 415.097 683.107 415.097C683.107 415.097 650.155 413.391 648.797 415.438C647.438 417.485 625.697 410.321 622.979 410.321C620.261 410.321 600.219 416.462 596.142 424.649C592.066 432.837 598.86 437.954 598.86 437.954L666.801 449.553C666.801 449.553 681.408 453.988 682.088 456.376C682.767 458.764 687.863 478.551 693.298 486.739C698.733 494.927 704.508 505.843 708.585 515.737C712.661 525.63 722.513 536.206 722.513 536.206L719.116 542.347L722.513 551.899L752.407 549.852L809.137 529.383C809.137 529.383 794.19 484.692 793.511 480.939C792.832 477.187 792.832 477.187 792.832 477.187C792.832 477.187 799.286 458.764 797.248 454.329C795.21 449.894 791.133 433.178 791.133 433.178L765.316 422.261L763.957 418.85L757.842 418.167L747.311 437.272L748.33 443.071L742.555 434.201L741.196 430.108L722.173 410.321Z" fill="white"/>
<path d="M744.612 540.054C744.612 540.054 737.811 540.054 730.67 545.496C723.528 550.938 724.889 551.278 724.889 551.278C724.889 551.278 727.949 562.502 728.969 571.005C729.99 579.507 733.05 584.269 739.511 589.711C745.972 595.153 762.635 601.615 772.497 598.554C782.359 595.493 868.734 576.786 870.095 580.528C871.455 584.269 859.893 585.629 861.593 589.031C863.293 592.432 851.391 605.696 852.751 622.702C854.112 639.708 853.772 648.211 849.691 651.612C845.61 655.013 844.93 655.013 844.59 659.435C844.25 663.856 839.829 688.685 839.829 688.685C839.829 688.685 849.011 686.644 860.233 685.283C871.455 683.923 874.515 685.624 874.515 685.624C874.515 685.624 879.956 666.237 877.576 666.237C875.195 666.237 879.956 646.85 887.438 634.946C894.919 623.042 899.68 596.173 904.441 586.99C909.202 577.807 918.383 561.481 911.582 555.019C904.781 548.557 884.717 548.217 884.717 548.217C884.717 548.217 887.438 545.156 887.438 537.333C887.438 529.51 887.098 528.15 887.098 528.15C887.098 528.15 864.994 525.429 826.227 510.124C787.46 494.819 784.059 491.417 772.497 495.159C760.935 498.9 744.612 540.054 744.612 540.054Z" fill="#3B3839"/>
<path d="M660.994 459.014C660.994 459.014 633.938 459.558 619.896 453.713C605.854 447.868 606.197 445.558 602.087 443.519C597.977 441.48 599.484 433.189 600.717 430.946C601.95 428.703 613.047 422.79 632.225 429.926C651.404 437.062 660.857 444.878 669.213 448.82C677.57 452.761 680.309 457.995 682.364 466.15C684.419 474.305 690.241 483.684 690.447 485.723C690.652 487.762 694.009 499.451 694.009 500.674C694.009 501.898 693.666 506.111 692.091 507.471C690.515 508.83 689.351 507.335 689.351 506.247C689.351 505.16 689.214 501.626 688.323 498.228C687.433 494.83 684.899 487.898 684.899 487.898C684.899 487.898 684.899 497.276 684.351 501.49C683.803 505.704 682.159 515.626 680.926 516.306C679.693 516.985 677.844 516.306 677.844 514.403C677.844 512.5 677.844 508.966 677.844 508.966C677.844 508.966 677.159 513.859 675.789 513.723C674.419 513.587 672.706 512.024 672.912 506.927C673.117 501.83 672.09 494.694 672.09 494.694L671.405 488.441C671.405 488.441 671.747 498.296 671.405 500.674C671.062 503.053 669.898 504.752 669.008 504.616C668.117 504.48 668.186 504.072 667.775 500.674C667.364 497.276 666.953 489.936 666.405 487.626C665.857 485.315 664.007 483.412 662.98 477.771C661.953 472.131 660.925 464.179 661.062 461.596C661.199 459.014 660.994 459.014 660.994 459.014Z" fill="#FEC3B1"/>
<path d="M900.726 554.167C900.726 554.167 892.034 553.895 891.349 547.299C890.665 540.704 892.444 532.817 897.577 534.313C902.71 535.808 904.49 539.14 904.49 535.808C904.49 532.477 905.174 530.097 909.965 532.137C914.619 534.177 919.889 537.032 927.212 536.352C935.288 535.672 942.679 535.264 952.056 540.84C961.432 546.415 963.212 548.455 963.006 553.827C962.801 559.198 962.322 562.462 958.079 564.502C953.835 566.542 941.516 571.641 931.25 567.29C920.984 562.938 913.592 559.402 910.718 559.13C907.843 558.994 900.726 554.167 900.726 554.167Z" fill="#3B3839"/>
<path d="M844.706 695.479L847.882 696.837C847.882 696.837 849.436 698.263 848.693 700.844C848.017 703.424 854.03 705.054 856.868 704.511C859.705 703.968 861.259 703.56 860.516 700.708C859.773 697.856 863.624 694.053 868.624 691.879C873.624 689.706 876.259 691.676 877.61 694.935C878.961 698.195 879.839 701.591 887.001 704.918C894.163 708.246 896.663 709.74 901.46 710.08C906.189 710.419 915.783 711.438 918.418 714.969C921.053 718.501 923.148 723.186 921.256 723.866C919.364 724.545 914.838 727.804 898.42 728.416C882.002 729.027 872.88 727.872 870.516 726.039C868.151 724.273 865.921 722.032 863.827 723.798C861.732 725.563 858.692 727.397 850.652 725.971C842.612 724.545 835.855 725.495 835.45 722.236C835.045 718.908 835.855 711.438 839.031 704.171C842.206 696.701 844.706 695.479 844.706 695.479Z" fill="#282627"/>
<path d="M888.813 401.3L867.595 426.959C867.595 426.959 866.585 428.633 868.134 429.638C869.683 430.643 878.912 437.812 878.912 437.812C878.912 437.812 879.922 438.482 881.741 436.338C883.559 434.194 902.285 411.014 902.285 411.014C902.285 411.014 903.094 409.54 902.151 408.468C901.208 407.396 891.373 400.295 890.363 400.295C889.352 400.295 888.813 401.3 888.813 401.3Z" fill="#282627"/>
<path d="M885.401 449.309C885.401 449.309 877.499 445.95 876.331 446.286C875.163 446.622 867.742 446.824 866.574 445.278C865.406 443.733 866.917 442.591 866.917 442.591L871.59 441.785C871.59 441.785 866.23 442.591 866.23 440.307C866.23 438.023 872.964 436.276 876.881 436.276C880.797 436.276 883.408 435.94 883.408 435.94L886.5 431.909C886.5 431.909 877.018 433.589 876.056 431.775C875.094 429.961 876.4 427.878 882.24 426.937C888.081 425.997 893.234 425.459 893.234 425.459L895.639 422.234C895.639 422.234 894.609 419.547 895.777 417.666C896.945 415.785 899.075 415.113 899.075 415.113C899.075 415.113 901.48 418.607 899.625 422.638C897.769 426.669 894.677 429.222 894.677 429.222C894.677 429.222 894.54 430.431 893.44 431.775C892.341 433.118 888.974 437.485 888.974 437.485C888.974 437.485 890.348 439.837 889.112 441.651C887.875 443.465 887.806 443.397 887.806 443.397C887.806 443.397 889.043 444.875 887.669 446.756C886.294 448.638 885.401 449.309 885.401 449.309Z" fill="#FEC3B1"/>
<path d="M885.08 432.211L882.09 435.832C882.09 435.832 885.76 435.966 886.712 436.1C887.663 436.235 888.207 436.771 888.207 436.771C888.207 436.771 891.061 433.418 889.702 432.882C888.343 432.346 886.168 432.346 885.08 432.211Z" fill="#FE8E8A"/>
<path d="M734.355 441.078C734.355 441.078 737.126 448.17 735.644 453.471C734.162 458.773 733.904 460.15 733.904 460.15L739.252 465.451C739.252 465.451 737.963 471.648 737.77 475.297C737.577 478.946 737.577 478.946 737.577 478.946L748.723 475.297C748.723 475.297 745.952 469.307 744.213 467.242C742.473 465.176 742.473 465.176 742.473 465.176L745.05 455.33C745.05 455.33 740.991 452.094 739.059 447.55C737.126 442.937 736.675 437.911 736.675 437.911L734.355 441.078Z" fill="#282627"/>
<path d="M755.058 440.19C755.058 440.19 755.695 446.75 755.058 449.454C754.422 452.159 754.422 452.159 754.422 452.159L758.05 454.864L756.331 464.128C756.331 464.128 761.869 462.573 764.415 461.896C766.961 461.22 766.961 461.22 766.961 461.22L760.596 453.782L761.869 447.223C761.869 447.223 758.686 444.518 758.241 442.287L755.058 440.19Z" fill="#282627"/>
<path d="M872.971 548.604C872.971 548.604 807.065 543.839 795.854 541.457C784.644 539.074 776.151 526.822 776.151 526.822C776.151 526.822 775.811 533.629 779.548 537.713C783.285 541.797 780.567 542.137 777.51 542.137C774.452 542.137 768.677 542.137 771.055 543.839C773.433 545.541 774.792 555.411 759.505 563.92C744.217 572.429 755.088 580.937 749.313 585.362C743.538 589.786 735.045 584.681 735.045 584.681C735.045 584.681 743.878 596.593 760.184 598.295C776.491 599.997 789.06 594.892 803.668 591.828C818.276 588.765 843.415 582.639 843.415 582.639C843.415 582.639 819.635 583.66 813.18 584C806.725 584.341 806.046 586.383 801.63 586.723C797.213 587.064 788.381 585.702 788.381 585.702C788.381 585.702 794.835 575.492 796.194 571.067C797.553 566.643 805.367 548.264 805.367 548.264L872.971 548.604Z" fill="#282627"/>
<path d="M876.44 565.577L865.446 579.472C865.446 579.472 859.116 579.811 862.115 581.505C865.113 583.199 865.113 580.488 863.447 583.538C861.781 586.588 858.783 582.86 859.782 588.621C860.782 594.382 852.453 607.26 852.453 614.377C852.453 621.493 853.453 628.271 853.453 628.271C853.453 628.271 855.118 611.327 861.448 601.499C867.778 591.671 865.446 588.96 865.446 588.96C865.446 588.96 881.104 581.844 876.773 580.149C872.442 578.455 871.11 578.455 872.775 575.744C874.441 573.033 876.44 565.577 876.44 565.577Z" fill="#282627"/>
<path d="M877.965 665.675C877.965 665.675 876.586 660.605 880.725 650.127C884.865 639.65 890.729 629.172 892.109 625.454C893.489 621.736 893.489 620.722 893.489 620.722C893.489 620.722 887.279 631.538 886.934 625.792C886.589 620.046 891.074 608.893 891.074 608.893C891.074 608.893 879 624.102 881.415 632.89C883.83 641.678 876.93 647.423 874.171 653.507C871.411 659.591 867.271 667.027 867.271 667.027L877.965 665.675Z" fill="#282627"/>
<path d="M739.806 565.577C739.806 565.577 742.488 556.974 744.5 549.06C746.511 541.145 749.864 529.101 749.864 529.101C749.864 529.101 741.482 544.93 740.476 552.501C739.471 560.071 738.465 562.48 738.465 562.48L739.806 565.577Z" fill="#282627"/>
<path d="M689.136 470.634C689.136 470.634 688.092 460.398 688.44 452.21C688.788 444.021 690.527 422.526 688.44 424.915C686.353 427.303 687.397 449.139 684.267 449.821C681.137 450.504 672.095 448.798 665.835 440.95C659.575 433.103 656.793 424.232 654.359 424.232C651.925 424.232 668.27 450.845 673.138 451.186C678.007 451.527 683.919 457.327 683.919 457.327L688.788 474.387L689.136 470.634Z" fill="#F3F6F9"/>
<path d="M715.666 418.533L731.127 447.03L741.883 430.937L731.8 441.666L715.666 418.533Z" fill="#B9C6D6"/>
<path d="M748.723 437.56L760.642 443.891L763.541 424.232L762.253 445.89L748.723 437.56Z" fill="#B9C6D6"/>
<path d="M723.41 535.941C723.41 535.941 729.203 530.198 737.041 523.779C744.879 517.361 732.611 524.117 728.522 527.833C724.432 531.549 721.365 532.562 721.365 532.562L723.41 535.941Z" fill="#D2D9E3"/>
<path d="M886.569 531.146C886.433 531.146 869.774 529.378 837.001 516.802C804.296 504.226 790.017 498.515 789.881 498.447L790.357 497.156C790.493 497.224 804.772 502.934 837.477 515.51C870.046 528.018 886.569 529.718 886.705 529.718L886.569 531.146Z" fill="white"/>
<path d="M911.067 559.114C911.067 559.114 904.557 552.473 899.267 551.61C893.978 550.747 892.554 549.817 892.554 549.817C892.554 549.817 890.18 546.496 891.74 546.032C893.3 545.567 900.963 548.887 903.54 548.887C906.117 548.887 905.1 543.774 907.066 545.367C909.033 546.895 908.423 551.344 911 554.465C913.577 557.587 921.986 563.298 921.986 563.298L911.067 559.114Z" fill="#282627"/>
<path d="M723.52 384.446L716.312 373.229L716.448 372.889C716.652 372.414 721.48 361.673 724.676 357.322L727.872 353.039L728.959 353.855L725.764 358.138C722.976 361.945 718.692 371.19 717.808 373.093L724.608 383.63L723.52 384.446Z" fill="white"/>
<path d="M746.841 475.879C746.841 475.811 744.325 471.12 742.625 469.013C741.877 468.061 741.333 467.517 740.926 467.109C740.314 466.566 739.906 466.09 739.906 465.342C739.906 464.526 741.469 458.272 742.081 455.893C741.265 454.533 737.526 447.803 737.05 443.793L736.506 439.578L737.866 439.442L738.41 443.657C738.886 447.735 743.373 455.349 743.441 455.485L743.577 455.757L743.509 456.029C742.489 460.176 741.333 464.798 741.333 465.41C741.333 465.546 741.401 465.682 741.945 466.158C742.353 466.566 742.965 467.177 743.781 468.197C745.481 470.44 747.997 475.063 748.065 475.267L746.841 475.879Z" fill="white"/>
<path d="M683.198 456.504V455.825L682.654 455.485C682.722 455.349 683.266 454.057 685.986 442.772C688.978 430.196 685.986 417.348 685.986 417.28L687.278 416.94C687.278 417.076 690.338 430.196 687.278 443.112C684.082 456.504 683.81 456.504 683.198 456.504Z" fill="#CBD3DE"/>
<path d="M793.755 481.93L791.987 477.647L792.055 477.375C792.123 477.171 797.767 460.109 796.135 452.563C794.435 444.881 790.763 433.733 790.695 433.597L791.987 433.189C792.055 433.325 795.727 444.541 797.427 452.291C799.059 459.769 794.163 475.336 793.415 477.579L795.047 481.454L793.755 481.93Z" fill="#CBD3DE"/>
<path d="M819.799 482.609C819.391 482.609 818.915 482.405 818.371 481.793C815.584 478.666 814.904 457.592 814.768 455.213L816.127 455.145C816.399 464.322 817.487 478.802 819.323 480.909C819.595 481.249 819.731 481.249 819.731 481.249C820.139 481.045 820.819 479.346 820.819 470.78V467.042H822.179V470.78C822.179 478.734 821.635 481.929 820.139 482.473C820.139 482.541 819.935 482.609 819.799 482.609Z" fill="#CBD3DE"/>
<path d="M660.952 459.568V454.104C660.952 454.104 634.479 455.42 622.556 452.326C610.632 449.231 606.389 441.33 606.389 441.33L602.818 443.503C602.818 443.503 611.575 454.894 633.805 457.132C656.035 459.305 660.952 459.568 660.952 459.568Z" fill="#FE8E8A"/>
<path d="M771.522 385.951C771.522 385.951 768.341 385.673 768.208 384.007C768.076 382.341 768.871 382.063 768.076 380.952C767.413 379.98 768.208 377.759 765.822 384.146L766.485 387.756L771.522 385.951Z" fill="#FE8E8A"/>
<path d="M771.405 393.455C771.405 393.455 765.884 395.735 767.149 395.735C768.415 395.735 771.52 395.375 771.52 395.375L771.405 393.455Z" fill="#FE8E8A"/>
<path d="M684.89 488.148C684.89 488.148 684.89 497.444 684.35 501.621C683.81 505.798 682.19 515.634 680.975 516.308C679.76 516.981 677.937 516.308 677.937 514.421C677.937 512.535 677.937 509.032 677.937 509.032C677.937 509.032 677.262 513.882 675.912 513.748C674.562 513.613 672.874 512.063 673.077 507.011C673.279 501.958 672.267 494.884 672.267 494.884L671.592 488.687C671.592 488.687 671.929 498.455 671.592 500.813C671.254 503.171 670.107 504.855 669.229 504.72C668.351 504.586 668.419 504.181 668.014 500.813C667.609 497.444 667.204 490.169 666.664 487.878C666.124 485.588 684.89 488.148 684.89 488.148Z" fill="#FE8E8A"/>
<path d="M804.253 490.345L795.216 482.835L793.178 477.578L796.575 464.128C796.575 464.128 802.486 473.686 803.845 479.353C805.204 485.02 804.253 490.345 804.253 490.345Z" fill="#D2D9E3"/>
<path d="M684.548 449.663L687.17 439.051C687.17 439.051 683.628 449.464 680.086 450.791C676.544 452.117 674.631 452.582 674.631 452.582C674.631 452.582 681.715 455.699 682.211 458.352C682.707 461.006 686.461 469.827 686.461 469.827L684.336 456.362L684.548 449.663Z" fill="#D2D9E3"/>
</g>
<defs>
<clipPath id="clip0">
<rect width="1920" height="774" fill="white"/>
</clipPath>
</defs>
</svg>
