<svg width="189" height="62" viewBox="0 0 189 62" fill="none" xmlns="http://www.w3.org/2000/svg">
<path d="M160.451 45.491C176.546 39.0011 185.644 31.3952 184.998 24.1856C184.351 16.976 176.12 12.2847 159.13 8.79834C142.293 5.34353 111.704 5.54366 86.4058 7.799L87.6927 6.41532C139.256 1.81706 187.571 8.26076 188.966 23.8253C190.366 39.4406 148.119 56.0375 96.3319 60.7386C44.5444 65.4398 1.42741 56.5922 0.0274559 40.9769C-1.37055 25.3833 50.8562 4.72731 102.541 0L102.654 1.25662C77.246 3.58081 50.3245 9.18523 25.8453 19.6308C9.7496 26.1207 1.95013 33.5341 2.59649 40.7437C3.24284 47.9533 13.5464 53.798 30.5365 57.2844C47.4846 60.7621 70.7234 61.7965 96.2192 59.482C121.715 57.1676 144.395 51.9648 160.451 45.491Z" fill="#1B64FA"/>
</svg>
