<svg width="39" height="64" viewBox="0 0 39 64" fill="none" xmlns="http://www.w3.org/2000/svg">
<path d="M0 64V0H39V64L19.5 52.6933L0 64Z" fill="url(#paint0_linear)"/>
<path d="M10.2402 23.8933V26.3998H12.0188V37.4746H10.2402V39.97H16.9773V37.4746H15.1215V26.3998H16.9773V23.8933H10.2402Z" fill="white"/>
<path d="M18.554 39.97H21.6346V31.479C21.7377 31.317 21.8518 31.1698 21.9769 31.0373C22.102 30.9048 22.2419 30.7907 22.3965 30.695C22.5879 30.5625 22.805 30.4631 23.0479 30.3969C23.2982 30.3306 23.5706 30.2975 23.865 30.2975C24.2184 30.2975 24.5349 30.3343 24.8146 30.4079C25.0943 30.4742 25.3336 30.5956 25.5323 30.7723C25.7311 30.949 25.882 31.1919 25.985 31.501C26.0954 31.8029 26.1507 32.1893 26.1507 32.6604V39.97H29.2202V32.6163C29.2202 31.7476 29.1172 31.0115 28.9111 30.4079C28.7123 29.797 28.4326 29.2964 28.0719 28.9063C27.7038 28.5235 27.2695 28.2438 26.769 28.0671C26.2684 27.8904 25.7163 27.8021 25.1127 27.8021C24.6416 27.8021 24.1963 27.8683 23.7767 28.0008C23.3571 28.1333 22.9707 28.3247 22.6173 28.575C22.4112 28.7222 22.2161 28.8879 22.0321 29.0719C21.8481 29.2559 21.6788 29.4583 21.5242 29.6792L21.3365 28.0229H18.554V39.97Z" fill="white"/>
<defs>
<linearGradient id="paint0_linear" x1="19.5" y1="0" x2="19.5" y2="64" gradientUnits="userSpaceOnUse">
<stop stop-color="#BB955D"/>
<stop offset="1" stop-color="#BD9958"/>
</linearGradient>
</defs>
</svg>
